<mxfile host="Electron" agent="Mozilla/5.0 (Windows NT 10.0; Win64; x64) AppleWebKit/537.36 (KHTML, like Gecko) draw.io/25.0.2 Chrome/128.0.6613.186 Electron/32.2.5 Safari/537.36" version="25.0.2">
  <diagram id="l8hXMBHkgcEJcSW0mbfh" name="Page-1">
    <mxGraphModel dx="1688" dy="683" grid="1" gridSize="10" guides="1" tooltips="1" connect="1" arrows="1" fold="1" page="1" pageScale="1" pageWidth="1169" pageHeight="827" math="0" shadow="0">
      <root>
        <mxCell id="0" />
        <mxCell id="1" parent="0" />
        <mxCell id="2HamQk87lNA_e7r32Q2T-12" style="edgeStyle=entityRelationEdgeStyle;rounded=0;orthogonalLoop=1;jettySize=auto;html=1;exitX=1;exitY=0.5;exitDx=0;exitDy=0;fillColor=#dae8fc;strokeColor=#6c8ebf;" edge="1" parent="1" source="2HamQk87lNA_e7r32Q2T-1" target="2HamQk87lNA_e7r32Q2T-8">
          <mxGeometry relative="1" as="geometry" />
        </mxCell>
        <mxCell id="2HamQk87lNA_e7r32Q2T-13" style="edgeStyle=entityRelationEdgeStyle;rounded=0;orthogonalLoop=1;jettySize=auto;html=1;exitX=1;exitY=0.5;exitDx=0;exitDy=0;fillColor=#dae8fc;strokeColor=#6c8ebf;" edge="1" parent="1" source="2HamQk87lNA_e7r32Q2T-1" target="2HamQk87lNA_e7r32Q2T-9">
          <mxGeometry relative="1" as="geometry" />
        </mxCell>
        <mxCell id="2HamQk87lNA_e7r32Q2T-14" style="edgeStyle=entityRelationEdgeStyle;rounded=0;orthogonalLoop=1;jettySize=auto;html=1;exitX=1;exitY=0.5;exitDx=0;exitDy=0;fillColor=#dae8fc;strokeColor=#6c8ebf;" edge="1" parent="1" source="2HamQk87lNA_e7r32Q2T-1" target="2HamQk87lNA_e7r32Q2T-10">
          <mxGeometry relative="1" as="geometry" />
        </mxCell>
        <mxCell id="2HamQk87lNA_e7r32Q2T-15" style="edgeStyle=entityRelationEdgeStyle;rounded=0;orthogonalLoop=1;jettySize=auto;html=1;exitX=1;exitY=0.5;exitDx=0;exitDy=0;fillColor=#dae8fc;strokeColor=#6c8ebf;" edge="1" parent="1" source="2HamQk87lNA_e7r32Q2T-1" target="2HamQk87lNA_e7r32Q2T-11">
          <mxGeometry relative="1" as="geometry" />
        </mxCell>
        <mxCell id="2HamQk87lNA_e7r32Q2T-1" value="vm1&#xa;192.168.50.11&#xa;L7 balance :443 ssl&#xa;L4 balance :80&#xa;:9090 console light" style="shape=image;verticalLabelPosition=bottom;labelBackgroundColor=#99CCFF;verticalAlign=top;aspect=fixed;imageAspect=0;image=data:image/png,iVBORw0KGgoAAAANSUhEUgAABQAAAAE3CAIAAAB6tnumAAAgAElEQVR4Aex9ebwUxdV29+xzd/ZFEYxIgKC+iiASFIMSY4waXELia8QlkphI4oIm8aeSoAZiElRANEajookKRlFcuIALSBTUgJ8oIFwVFUTWu8y9s8/0l/c+5qTsme47S3dP98zpP+49U11dVf3Uqep6qk6dkhQLr3Tnleq8LMyWs2IEGIE8EEA7xd88HuOojIBtEGAdtk1VVHRBrNRDK/Oq6ErN8+WdUi8oZ2WOz62sIzPyEtMU5TxVteKiS1a+MVVMKpWyMl/OixFgBHJHgNppOp3O/SmOyQjYBwHWYfvURSWXxEo9tDKvSq7TfN/dKfVC5azA8Tm9uwVjHjPyEtMU5Xx1tdLiaxJgEURRLgYgo9Ippgz8LCNQTgiIbUqUi3lHo9Ippgz8LCNQDAJ202GxPKJczDvys/ZHwMq6tjIv+yNvnxI6pV6cUk4zatbKdzcjLzFNUTYDq3JKkwlwOdUmv0vFISB2dqJcDBBGpVNMGfhZRqAYBOymw2J5RLmYd+Rn7Y+AlXVtZV72R94+JXRKvTilnGbUrJXvbkZeYpqibAZW5ZQmE+Byqk1+l4pDQOzsRDlfIIp5Nt+8OD4jYDYCdtNnsTyibDYOnH5pETC7rs1Ov7ToOTd3J9aLE8tslIaY/e5mp28UDpWWDhPgSqtxft+yQkDsWEU535cs5tl88+L4jIDZCNhNn8XyiLLZOHD6pUXA7Lo2O/3Soufc3J1YL04ss1EaYva7m52+UThUWjqaBNgoILjijUKS02EEzEOA26l52HLK1iPA+mw95pxjJgJm66HZ6We+EYfkgoBT6sUp5cwF82LimI2D2ekX8+6V/CwT4EqufX53RuALBLiDZlUoJwRYn8upNp37LmbrodnpOxf50pbcKfXilHKaXZtm42B2+mbjU67pm06AyxW4Yt6LG0Mx6PGzjIBzERDbvig7943sWfJUKiXCS7I9S2t9qQgQlWB9STjHSkZApX70s5Ix4XdnBOyGADVMlWC3cuZbHibA+SJmQHxRhwxIjpNgBBgBhyAgtn1RdkjxHVNMEVvIjim6JQXNxIdRsgR4zuRLCLAefgkO/sEI2BKBcm2nTIBLoG6iMpUge86SEWAESoSA2PZFuUTFKdtsRWzT6XTZvmehL6bCh34Wmh4/xwgUggApnkooJC1+hhFgBMxBQNU86ac5uVmXKhNg67CmnEh7eGRGmLDACFQCAmLbF+VKeHcr35Gx1UdbxEeU9Z/iu4yAsQiIuifKxubCqTECjEAxCIhtU5SLSdMOzzIBtqgWyklpLIKMs2EEGAFGoCAEuL8tCDZ+iBFgBBgBRoARqAgEmABbVM08ILMIaM6GEWAEKh4B6m8rHgkGgBFgBBgBRoARYATUCDABViNi0m8akLHZs0kIc7KMACPACAAB9LeMBiPACDACjAAjwAgwApkIMAHOxMSUECbApsDKiTICjAAjwAgwAowAI8AIMAKMACOQMwJMgHOGiiMyAowAI8AIMAKMACPACDACjAAjwAg4GQEmwE6uPS47I8AIMAKMACPACDACjAAjwAgwAoxAzggwAc4ZKo7ICDACjAAjwAgwAowAI8AIMAKMACPgZASYADu59rjsjAAjwAgwAowAI8AIMAKMACPACDACOSPABDhnqDgiI8AIMAKMACPACDACjAAjwAgwAoyAkxFgAuzk2uOyMwKMACPACDACjAAjwAgwAowAI8AI5IwAE+CcoeKIjAAjwAgwAowAI8AIMAKMACPACDACTkaACbCTa4/LzggwAowAI8AIMAKMACPACDACjAAjkDMCtibAaeHK+Y3KJKLw6ukyeSV+DUag7BDgdmrPKuV6sWe9lKpUpdKHUuVbKpzzzTf15Yvgyjcdjs8IFIMAKV46zePtLEB+uZmmCK4sUQ0NooxMqhcmwIZWl3GJmV3xxpWUU2IEKhcBbqf2rHuuF3vWS6lKVSp9KFW+pcI533xpYC0CZdJgN9+ycfzKQUBUv8p569zftFTt1Ox6YQKcuw5YGtPsirf0ZTgzRqBMEeB2as+K5XqxZ72UqlSl0odS5VsqnPPNl/HJFzGObwYCrIf6qJYKH7PzZQKsX+8lu2t2xZfsxThjRqCMEOB2as/K5HqxZ72UqlSl0odS5VsqnDlfRsCJCHA7tWetmV0vTIDtWe+K2RVv09fmYjECjkKA26k9q4vrxZ71UqpSlUofSpVvqXDmfBkBJyLA7dSetWZ2vTABtme9MwG2ab1wsRgBEQGzO2gxL5ZzR4DrJXesKiFmqfShVPlWQp3yOzICRiHA7dQoJI1Nx+x6YQJsbH0ZlprZFW9YQTkhRqCCEeB2as/K53qxZ72UqlSl0odS5VsqnPPNl/DJ90GOzwgYiADpITtgy4oq4ZP1rnmBlK9J9cIE2Ly6Kyplsyu+qMLxw4wAI9CJALdTeyoC14s966VUpSqVPpQq31LhnG++Ij4mjXHzLRLHr0AERD2swNfv8pVFfKxsp2K+XRaygAi2JsAFvA8/wggwAowAI8AIMAI6CCQSiVTq/45zRBwaZ0Sj0Xg8TrcQjp8k05EYqVSKHkdg8j+XVtaZieAJnfjirVQqlUgk4vG4onyxS4juplKpZDJJb4RwZEdxWGAEGAFGoPwQQEeX+bf83tTYN2ICbCyenBojwAgwAowAI+AwBPS5ImgqEeMu341IcjKZhCymLw7UcJcIrYpIZz6LrP9DtL+UOCVLxcsMoVssMAKMACPACFQyAkyAK7n2+d0ZAUaAEWAEKg4BEEv6SwunWF+Nx+OJRALcVYSG+CQ9GO28YrEYHsFTyWRSfCoXGXlRMegRrOsmOi8xC4qgKhIRaYTT4xSfBUaAEWAEGAFGQFEUJsCsBowAI8AIMAKMQCUiQFQWjBEQEKskRCgamUPjFsIpPjFY4p/0oJg+JUtCOp1GzEQiEYvFIpFIR0dHe3s7pUwxKV/KS7ylFV+MwzIjwAgwAowAI8AEmHWAEWAEGAFGgBGoIASSySSoJpZViaZmQoBFVDFcJLcUjt254K7hcBjhREchKIpCGamEaDQai8WwM5nSRHwV0QVVpu2+6XQ6mUzG43GsRWMFGGWmd4xGo2KaLDMCjAAjUE4IqHpa+llO72jGuzABNgNVTpMRYAQYAUaAEbA1AipuidVdUFO6lUql4BYrEons27fvww8/3LBhw6pVq55//vklS5bcfPPNM2fOnDFjxg033PCrX/1q+vTpV1111ZVXXnlu53VOxvXDL18X/ue69dZbZ8+ePWfOnAULFjz44IOPP/74kiVLnn322e3bt3/66ad79uxpbW2NxWJiqbIiS365st7lQEaAEWAEyg8BYrwqofze1Ng3YgJsLJ6cGiPACDACjAAjYGsEaB0Vm28TiUQ4HA6FQnv37m1qalq1atVDDz30m9/85uKLLz711FPHjBlTX19fV1dXU1NTVVXl9/u9Xq/b7Xa5XP7OCz9lWZb+c7k6L7nzQpgo/yeW+r8sy2632+/3V1dX19fXd+vWTZZln8/X0NAwYMCA4cOHjx49evz48aeccsp11103Y8aM22+/feHChcuWLVu/fv2nn37a3NwMro51YKwM01qxreuDC8cIMAKMQKEIqHgv/Sw0vUp5jglwpdQ0vycjwAgwAowAI6AoSjKZ3Ldv39tvv/3EE0/ceuutF1544QknnDBs2LCamppAIODxeMBgXS4XaG2O9FWW5Uzqq6a5nb+RIP66XC6fz+f1el0ulxhZZNSSJCFxT+eFaHjc4/FUV1f37NnzoIMOOuGEE84888zLL7981qxZf/vb31599dUPPvhg//79XOmMACPACDACjICIgKUEmKYlyJBJLEphspimKBeWGp4qJh1sN2ptbaV9UBDENM2Qtd5XtdWKfhpVBkVRcCpjLBbDm7a3t2sVpshwscxFJkXOQotPx9gU0ul0c3OzoiiffvqpoihQp0QioZULVahKMCq+iLkoa6WvKEpbWxvutra2YvkFtovi4yTrpNPlLUrEwP6ky0wtjgCioigKYUhakbUkIiainDUytQIxJuR842emgBB0Dh0dHdFoVEeNtbLLK1yrDHklYpPI6XQaDpnJphebXVE88plMh+ii+cdiMUCNaLFYDEI8Hm9padm6detTTz11ww03TJ48eciQIf3796+uriaSSYJIQZ0o04vIsuz3++vr63v37j127Ngf/OAHs2bNWrp06caNG/fs2QNtDIVChBK2HMfj8VgsBjxJGaiHIeRJ2ShOJBKB+2vcEtsshVDkShYIOggALZVKUUUAZNUXTVUjKgBVadJPVbQuf2bNlNpg5uO0vZwMDVpbW9HpZUYuYQj22Hd0dFCfX1hhCFiVoJWaKlqXP7XSybde8o2vlW+XBc4xglHpG5WOUfjopEPfJjCCSCSi04603svscCbAWRAWdTrL7a6CqJo/+OCDBQsWzJo16/e///2DJl/3a1x/1biMKs7cuXPnzJnz9ttvi6gUcAyG+LiWXGS9qJJFaqrAkv9MpVKhUCiRSCxcuPD5559funTpy51XY4mu5RqXVnGWLl363HPP/etf/4IOYCiQSCTEuhPlYgA3Kp1iymDBs8/851qxYsWyzuu5557Twl+jupabHV8r34ceeujzzz8HSnQmDfWQxqIn6oMoG5uLNanF43EiXSDDaFBtbW3EE1CSRCLR3t6uGl7EYrE9e/Y0NTU9/vjjM2fO/Pa3vz1gwACv1ytJksvlcrvd1dXVPp8PXFFctnUi4xXLTAvLCMTaclVVlRjH4/H06tVrxIgRJ5xwwqJFixobG9evX//JJ5+0tLQQdaHJGrgKA72BAsN6PBaLYU4HP0WtiEQieFxUQqpNMWZlyipYxN4gkUhs3Ljxvvvu0+qvtMK1+h+t+EaFr1ixYuXKlc8999yzzz67pPNavXq1Pau1qanpySeffOqpp5588smlS5c+33nli0O+OGvF1wrPtzxmx9cqZ77hWuW0Wzpa5cw3HGOVJ598cvHixY8//vjevXvFZm6fBsIEOEtdiB10lttdBbW1teFrd8cddwwcOLB3797du3cXP8BWyjQgUAlGlaFfv359+/a95pprsG4ZiUQw890VSIXcL7JeCsmyFM+EQqGNGzcedNBBNTU1MPzDX1UN4qdWPWaNTGsjmU9pxS8gvLq6+thjj/3b3/6GLg9Hg4p1J8rFAGxUOsWUwexnP/roo6FDh7rdblmWPR4PqqOqqqqAeinJI4cffvjSpUthGwJSZx4TEPVBlM2uI5PSj8fj4XBYZLY0sZhIJPbu3btnzx4sQCE8Go1+/PHHL7/88t133z1t2rSJEycOGzasrq7O7/ejvYPoqtp+ObFf8TXFvg5tx+PxuN1uen2v1wti7Pf7BwwYcMIJJ1x22WVz585duXLle++919raqhqxYRU9EolAgYn3ptNpLBpj3RgrbFCJjo6OMtBDw9VbxATOw+GvW1GUlpaWe+6556tf/SpVk0owuxNTZUc/tfIlu/1gMOjz+Twez4QJE7Zs2WI4aEUm2NTUdMMNN/Tp08fr9fp8vkAggJJrvZfdwqkiVIJWOVXRuvyplY5R4VoFMCr9fNPJtzxa8XXCfT6fy+UKBoODBg169tln29raaHqxSGU28HEmwFnAFDvoLLd1g9LpdDgcTqVSn3322cSJE0k/8lVQp8THC44YMeKNN95QFAVrfboIFX6zmHopPFfLn4zH4++//z5pjsvl8nq9TtEHjDu9Xu+pp5766quvKorS0dERDofFuhPlYtA1Kp1iymDBs/369aOFO9IKp+iDJEn/NrvFAhoxByJyxqIn6oMoG5tLqVKDN+adO3eGQiEYnsEoev/+/e+///6CBQuuv/76M844Y9CgQR6PB3oCn1JQFXQjPp8PJNDdedEWX9Kr8hBoH7LqdTwej6/zIias2nXsdrvr6up69eo1adKkn//853/+859XrVr1ySefiJausJQOhUJwTC3qA+qFtF1l+SLGrGQ5s21iEgHbqf70pz/pTPjard8jBcMcpSRJJ598sj0r93e/+x1mfNAtoOR2w5PLUx4ISJLk8/mgYz6fb/ny5eLMoH0aiOMJsBlQZnbQuedC24cWL17cs2dPWZarq6v9fr/Zak0dsUowO9/q6mqPxxMMBmfPng27L9r8nDtoOcYspl5yzKLk0WKd14cffihJEryher1eGtGqKhe8CKM91d/MmAhRRaOfRsX3dl6gweecc867774LjztmAFsJ+pBOp+vq6mDJ6fF4/H6/2+22oT6QIqkEr9f74osvih8/2hpkuEqI+iDKhmdkQYJk5xyLxQ4cOAD/xpRvJBLZvn37ihUrbr311tNPP/2www4T2y8cKQc7L/QeoLsi6aXvgvigig2Kt5wl09vR+jZ8VovLwngjkAEVK5YkCa2srq5uyJAh3/rWt6688sp777132bJlO3bsIAsvrF5GIpGWlpZwOCzucsfpyrTfEtpI1Vfhgtg24bU7nU7DdkxRlD//+c8WfNe09FnVfdFPrfhutxuTSphbkSRp/PjxKtsBm1T3jBkzwEngcE6SJJ3viNb7EiAqId/4qsfpZ77pGBU/33SowDkKRqVvVDpaxdZKXytcJx0YRKAHxhjAJg1BLAYTYBGNL2Sxg85yWzcI9G/Pnj0XXnghbK6CwWAJZzTFoY8oi0OEYmQcgCFJ0kknnfTRRx9hEdiCFR7dSnD2zXQ63dTUhO8TfaKKqSMrn8XYBUvWfr//Jz/5yWeffWZSfRTTTk0qkuHJJpPJbt260WQqehIs3FlZrQXnJUlSY2MjTBzxl02gc1ESeMCKxWLUl6ZSqebm5k2bNi1atOiKK6447rjjevToQeMSj8cD40acS0T9RlbiRzwQ+4FFdaIEHSrQq4nlFwPBbOHmWowD2eVygcnU1tYCQ2i+JEnBYLBXr15nnnnmtddeu3jx4m3bthFnI5UWmU8sFiObfybAos6L/Tb2S8NuLt553X333SUcL+Xb0aGoUB74Jx8/fjwphvjWJZdnzpwJp3fwBYAvdb7v6/T4mU0eIWa/V6nyNeq98i0/2gWZLjY2NtKekZI3BLEATIBFNL6QxQ46y23dIHwLV6xYcdhhh2FeGd9RrZkSo8K1FFQr3MB88YK9e/f+61//aqqVf5H1QsMU3Qq0xc0tW7ag4txut9frDQQCWh2ZVv2WKn4wGMTgEtZWPXr0mDVrlkkcuBh9sEU151CItra2hoYGv9+PM1fJhLVU9aulb1rhsiy/8soreFGsmImrwTkAkEcUUR9EOY8k7BcVi2Pbtm17/PHHZ8yYMXDgwG7duhG/lWUZe1mxP5xqAeHUb4DoYoCOv+LSKEgyPetoQcuoG5PRIhOmuSTMHdBMrvj6dD4Tmhsxh/r6+hEjRvzgBz+YP3/+xo0bRbcXovcssoWGNtpPuUpTIp22GY/HFyxYIFaBSjaq3zMqHaymoj3CCnrcuHFkvlEafLPlGo/Hf/Ob3+CjTH0F8RMtNDLDVdVBPzNjIoQi5Cjkm06+8bWKYVQ6WukbFW52OY1KH20hGAy6XK5AILBy5cpsWln6MCbAWepAp4POEvvLQfDYOXPmTGg8PpnwZmRUG7BVOrDxxmDi7LPP3rVrVzKZpB1TX8am2F9F1osjCDAmj7du3QrDAQCrGreJCpBvh5VvfDGvHGV413C5XHV1dZIkHXTQQffcc0+xdZ/t+WL0IVt6Ng3r3bs3kCfak2NF2CTaypUr4QgtlUqhDZo0QBT1QZRtWq+6xQKPamlpWbZs2c9//vOjjz5a9REBg6WeAe0aG31pgCtJUiavI+qbqR6UWuYtp4SI/RsmeRGSWX7goArHTAG+2rSDWowDzkAhXq+3T58+w4cPnzVr1quvvkrW0bTc4XQ91FXSAm+KmGB+h3oGEGCxElUyIW+SoMqOfupnh2iIM27cuAJxMfmxW2+9tba2Fub9jmvpVBEqQateVNHop1b8SgsnQFRCvjioHqefSAeWa4FAYMWKFdTGTVbz/JK3lADnVzRFETvKfJ81O340GoUPEgzpaGNbKpX65JNP+vTpAwsT8jiSr2I5JT5sxrB5rLq6esmSJUBePMSSDMNMXR82u8YtSz+VSm3duhVdCQiwU5SByonCYzQJm8Onn35aJD/wbWvSRIllNWVBRul0mnzIo5XRMhShbWfB5XKtWLECQKE/hw8hC6CzYRZw9kNHHGGFEOuH8BiM5fH29vb169fffPPNRx55JGY9yFbZznVdyWVzuVy1tbXHHXfcb3/727Vr19JZ6DD7J9+QGDPQKjGcZkFR4eTMhkprdpEwPICpfyKRmD9/vrMUCWM8+uQdd9xxZiNWWPqzZ88G7y2nLQ/OUpWKKi2UDe0CVmA2XIJiAlxYZ/J/TyUSCcxqEMFDJ37PPffQATaqefryawDoTDHX7na7r7vuOrj8xTAXE+EAyjzTx8Kr0JZPlgEBJvNCUozRo0f/4x//gJ9P8F4aBdqyEuxSKKcTYFmWRQKMrpI6TLugbH454BUpmUzik0FzAa2trTQtGIlENmzYcMcdd1xyySWBQAAfC3Ed0qEmAOX31ct8I1pSc7vdPXv2HD9+/M0337xixYr29naMCmAYBR+Z4tQ5Pot0RLb5mmi7HJgAW1MlTIAzmy2HmIeAMwiwuMoqyma3STEvURbz1QoX45gti2UQZUVR6EhAGs/FYrHW1tZx48aJ7jSdtWJTWHvAAoUkScOHD1+/fj0AIbjE1WCz60srfSpMjoJWOhaElwcBJuNtWso++eST161bR06h4/G4gc5CtKrV7PrKN98C4jt6BViSpOXLl2Pql9a7qMPMvXbyxS33lI2NqVVOkQBD8+E0GJjs3r3737ukZsyYceKJJzY0NKAThnf9qqoq5r2FfZUsfopOG0a+YMLnnnvuvHnzmpqaoGaJRKKjo6O1tZV8m4EYk1GAsdpo/9TIVhyAxOPxefPmWVxxRWbHK8BFAsiPlyUChhBgre+pUT2bZHYGWgXNJV8xjlY6ZoeLZRBlRVGwkIWxHbz5K4ryzDPPYJsQeRYp7+ELtJxeWZKk2bNnYz4bYzvgAw5cQhMIse5ykc3WK530y4YAi906Rgnnnnvue++9Bw5MJ4XoQJH7La06zT2FwmLmm28B8Z1OgBsbG8lShlbD8kU7X9zyTd+o+PrlBNuJRqPEfz788MOHH3747LPP7t+/fyAQEGdOVc2HDhoVw1m2CQK0Yg9b6Lq6Op/PB0rcp0+fE0888de//vWLL77Y0tICTcNSsKh1iUQiFAqJIZUgMwG2rJZ5BdgmfUWFFIMJsF7T1h8o4Ekxjl5aZt4TyyDKZLcGS06cfpROpydPngw3A2T8CaFclR4uf+Gxqb6+XpKkE044YdeuXbTmg6FeKpWKxWJMgHNR1bIkwNAQr9d76aWX4rgsY0d7YtsU5VwALyaOmJcoa6UpxhFlnfhOJ8DLli1jAgzqS2ekJ5PJt95667777hsxYsTBBx8MZyH4Ung8HuygwbHP6GC1nBuX62fFce+FaoLTfkz2wQSG7L98Pt+QIUOmTJny2GOPffDBB/gUwgVUOBwuwCZCq8dwVjgTYMvqiwmw43oVRxeYCbBe0xYHf6IsPqMVLsYxWxbLIMo0hQ+Ppvj79ttvNzQ0kHtJbN8i82BHa7NW4fF2+MyDAAcCgYULF9IXHTMFcI5tdmXppC/WXS6yTlJm3ypLAhwIBOCCMhAIzJgxQzQCNARPrTo1JHGdRPLNt4D45USA0S1Q56ADrOpWvripHrfsp1Y5acc7Nvreeeed3/zmN/GxoK7V6/XCXCgr6cUp7hSZBbshgPVeYr84/8Pn8+EEJpTW5XINHDjwxBNPXLJkyfvvvw+1TCaTbW1t7e3tJnlHt0z5C8sIvQEGVOwEqzAMc3mKCbDdeozyLo8zCHAuLadUccTBRKnKoJ8vbH3hzDMWi/3iF7+QJAmDGNoZgtn9MtZ1soImY+9TTjll3759gI4+6jQE1IeU75YfAcY2YLfbjbYwZMiQe++9d//+/VzXXSLgdCdYkiSJJtAFE+AugbJ5hEQi0dLSsmHDhjvvvHPixIl0plGw8wLjFY8vIjnzZKMy/pQ499UCgQC++KgvWvjFOrDP5wsGgxSImCeddNJdd9313nvvkTN8mlW3uTIbWzwyFsPWmLvuustZakAjPax8sBdoZ1Ufl9YkBAwhwMZ2NZmpsRfoTExyDYl1XnBsqyjK3r17+/bti0NQJUny+/1QLDrQ1SQ9K22yWOWWJIl8t/j9flmWN2/e3NHRAV/ZALRi/Xzkqk//iVceBBikl/66XK5gMBgIBKAnAwYMWLRo0X/emP9rIlA2BJi83VamN/hdu3bdcccdRx11FLprrBbSNwKBsKYR3T6TMREO1aONpqXt8zn3TARgvi5aquOAQFQcbe1G5eJkOHDjY4455rbbbtu2bRum+zU7gvK9kUmAMXTOBNmeIUyA7VkvXKrSIuAMAmz/VVbb9vzY0NXR0YGJ29tuu001oCmt/pU29x/84Af4sEWj0VQqhXMRCzB9tG3tm1qwpqYmGgSQUNoKLT53Gh1i+WvEiBGrV6+mRQ8sgySTyXg8TlYDpoLslMR79OgB8DGMJjuL4mvEmhQaGxtpx6M42HUK/lrlTKfTsViMnEHg1WANFI/HMf2nKMr27dsfeeSRQYMGYQsAPEQA+bJp2tYoUrnmIsvyiBEj/vCHP3z66ac0T0Qu03FMNCkhttMjmo4XfaeM62gPMNpRIpFw3AowumUa7o8ePZoqy1YCm0CXawdiz/eiFiHL8ssvv2zPie8veYG2VXO1eWGwnhnpvBRF+fjjj7/73e/ygIaa4ogRIzZs2IADD8n9FQ0WbV65JS9e+RFgTJNDPcgU8Jhjjnn99dfpRDGcF82zJCr1U+0BZgKswqckP2niBiP4ZDIZi8Xg3pn2euzatevRRx8988wzA6YPB88AACAASURBVIFAdXU1vg4wkcWgWWwU1HOyUAkIYGOwv/PC+3br1u2oo45asGABvpuKoqRSqdbWVjgLxDETULNMD9KZTYAJsGVaxATYMqg5IwchwAQ4s1sunxAsUrW0tGDl6uGHH+7Vq5eDtNPsov7b1uvmm2/GpxpY4eNdPhpg5puUHwGGvsFEwuVyVVdXI+Scc87ZuHEjHSoG8sAcmJSrPEygy28FGF79YrEYMWEwFiz8plKpV1999Uc/+tFBBx0k9rSwgMWIGRaw4l2WKxABv98vWrb7/f5TTjll4cKFO3bsoPni5uZmtCB0C3TKoBhIPQYEJsCW6RITYMug5owchAATYFWfXFY/YYkE++e2trbvf//72O3jIAU1u6ijRo366KOPAFSi8xIHi2WlDUa/TPkRYGwGrq6uplUvl8uF7eIXXHDBJ598AgsZbCtgE2hSKCbABIXdBOrNQIaJjbz55ps33njjqFGjyBtiQ0MDdoSS8pvd93L6NkeAfIVgHgRHXlVVVWEU0a1bt0mTJi1btgzT67T8K84M6k8oMwG2TAGYAFsGNWfkIAScQYDFUYVTOk2xzCWUafr/xRdfPOSQQ8hvp4N01Lyi4gP/yCOPYJiYSCTI12UJq8wpWZcfAaZVL3GeiE52mT59ejgcxv5J1hNRS5kAi2jYUI7H4+FwGOy3ra3t/vvvP+2006Dt5AYJJIf2wKMJuN1usVGY1xVzyjZEALYAmWOGfv36obR+v/9rX/va9ddf/+6770LtsedctH+mORf9dmHncR3vAdavOwPv8h5gG/YDZVwkJsAGNl7bJYX5V3yTrrrqKrfbXd7envNtqEBj8uTJn332Geatsbhnu4q0ZYHKjwCLBp9VnRfWhLHo0aNHjzvuuAN6ouPZxZZ1ZW6hmACbi28RqcdisUgkQotyb7755k033YSz0CVJ8vl82OsuyzJtekcvCt/OGB/k269y/DJDAEzY23nBZKCqqopOyWpoaDjnnHMefvhhkevCV0LumssE2FSd4RVgU+HlxB2KABPg3Lto58VMJBLYorN27VocboGhvEOV1fBi42TL/v37L168mBaByWjQefVtbYnLjwDj3JesS16YKxk4cODixYsPHDiQ7Lysxdu+uaVSqW7duqF5Aj0VmzK85RqeYLl6gaaZmp07d8LZFaDzeDw+nw/rvZjrwewPZnzEdWDDoeYEnYJAdXW1z+fLnATBSemSJJGvu6qqqm7dus2fP//VV1/FYQo4XDD3fpIJsKlawQTYVHg5cYciwATYvsPK4kuGtV9FUebPn4/zLaqrq+mj5VCVNbbYGLhfffXVqVQKdq28CJyj4pUfAUbTwL5fqBkcYqGXRAsaMmTISy+9pDr2I0fEyjUaE2B71iz1/x9++OHVV1+N062rq6vBb8m2H/M+dJwvCaDEfGyesV8cJ6bmdru9Xi/s4bFFnAaOCKeXmjx58qpVq/AlFReEu2wgTIAJQzMEJsBmoMppOh0B6sdsfQxSl71nCSPYoeNGGXAoHx3BB0xisVhzc/OYMWMkScJQhqZvna67xZdflmUsiR966KEvvviioigtLS0l1CVnZd3U1ERVgH6EfpafAG6Mv2PHjl27di05hU6n07CzIMFZ9Vh8aZ1uAi3L8gsvvAAPyYqiUG0Wj4x+CkZ9O5LJJIx94JgNXsppm/rixYtHjhwJWuvqvMqvefIb2QEBsKzDDz987ty5mEfG8UhoBeFwGJoZi8UOHDig3zTsdhebCMhMbP78+XYAPMcy0NeZJi/GjBljN4ThYHLWrFkwQnG73RByfEeOxggUgIBIgF955RWbngNsw7ZKRTJqEEMJFiBQGcB+aeYVI7mFCxf2798fO77wiSpAUcryEa/Xi+mAmpqa2bNn4+QGgFZALVTaI5VDgL1eLzpK+IPxeDzf//73169fD7KE5haJRCrWLzQT4MLaPvXb1GMXlk4qlaJzfZPJ5N69e3Gq+f79+2fNmjVo0CBJksT13rLszPmlSo4AbXzo37//tGnTNm3apChKR0dHa2sruU6gKWZnWVoxAS6sa8rrqXQ6zQS45K24ogrABDivFpolslGDmCxJ5xlEJaHn8I355je/CSM3SZJ4D7CqeZP3l3Hjxr3zzju0/kMYsqCFQOUQYKyeYfkX52F6PJ4LLrhg//79AIdOBo5Go0WSGS207RzOBLiw2qEeu0idicfjyWSSNnHAPv+tt96aMmVKnz59YPtDhj88B6r6BPBPAxHAUUmYcDnjjDMaGxvRNMgNG3S1sPZSwqeYAFsAPhNgA1siJ5ULAkyAi23XRg1iii1HtudTqdSbb76JrV8YANEwKBflqJA4dXV1kiRVV1ffddddWATOhiWHqRGoHAKMhlBdXY2zYaAwPp/v5ptv3rdvn6Iora2tQKe5ublIMqNG2Qm/mQAXVktGfTvIbx+W11KpVGNj44QJE2Dx6PV6SXWrqqrwya+Qvp1f00oEaDQZDAYxzzJq1Kj77ruP5gfJhLi9vb2wJlOqp5gAW4A8E2ArWyvnRad+wNieTaALaeNGDWIKyTuHZ6699lqsAGD9SvTcyA0A32lydHT++ed/+umnFUhgctCjLFEqhwBjMAef4eg0QS3q6urmzZvX3t6O3b+wRCVj1CyQlWkQE+DCKtbAb0drayv2buzcufPWW28dNWoUHeRLjFf0bsWdPyNgOALwlYVka2tr8WGtqamZM2dOU1MTrKugpdi1XlirKclTTIAtgJ0JsOFNkhPUR4Dm7GRZZgJcSBs3cBBTSPYaz6BUH3744fDhwyVJCgQCsixj+Zc26uhrRiXcDQQC8GyJZjBo0KDHHnuMCbCGTqmDK4cAk5281+vFqA476iVJGjhw4F//+ldA09HRUZkm9EyA1W0jt99GfTs6OjowQN+yZctNN90Ez/bU22Pihmx/iA9XQg/P72gxAj6fD+YG2G8FuWfPntOmTXv//ffRLJw4RcgEOLcurahYTIAtbq2cHRPgolosnIbROKbYtAp9HgWgp9PpNDxCz5o1C3SX/tIqFqs+EPD7/XAPg1W+H/7wh2TOSniykBWByiHAkiThHGBZloPBIJZ/JUmqr6+XJGn06NHPP/98OByOx+OJRKICJ1CYAGdtIF0G0oejSJ2B5fM777xz3nnn4bAuortk+IO5G3KFxf0/I2A4AviGksMRmJ5BIRsaGqZOnfrWW2/F4/FYLOY4T5NMgLvszYqPwATY8CbJCeojwAS42GZr1CCmmHJkJcDJZPK4446DxSYNg9gJltge3G53TU2NLMtut7uurk6W5REjRtBEdTE1UgnPVhQBdrlcZDoBYwp0nWhQp5xyysaNGxVFcdzxHoYoKhPgwmA08NuxevXqSZMm4YBf7HMh2xaPx+Pz+Yic8Aqw+Alg2UAEyFLG5XLV1dVB5aqrq2GSIEnSOeec89Zbb+G8sUgkUlirKclTTIAtgJ0JsIGNkZPKBQEmwBa0a9OzwKEXkUgE3TT+Llq0KBcN4DhoAzU1NZIk1dbWTp8+XVGUSCQCj77pdBprwo6btDZP7bBgtW3bNuwzhAphuFNR6oQFYbzyGWec8f/+3/9TFGXPnj0wDCFLv0QiUfYnJGH+iPSBmJhT9KGxsRFnyJEbPPIsZV47yjdlOuMdZ/zSvt9Vq1YdffTRsFOowGboFB2r5HKiQ3C5XBMmTFizZo2iKHQeErQaB1nbcwsJTOqobIlE4q677nJWbdIJwHAEcNxxx+Xb+VgTf/bs2RiPQWH4KGBnqZnjSptJgK3R87xykfKKXZmRU6lUPB5Pp9MYan/++ecXXnih49TR4gJjkQTmgjh4XZKkI444YufOnYqi0AgYwNLPylQw8a2ZAJOier1emFf06dNn2rRp4MDJzgtUSqTBIoZlJpcTARanEW1VTYlEAutm+/fvRxtsbm5++OGHjzjiCCgkLfPC7wNpKQuMQGkRoL1XDQ0N3/ve91566SVFURKJhHh2VzQapd7SVu2OCbBl1cEEuLTttNJyZwJsWdM2MaN0Oh0Oh3EUJA4YeOmll3r16lVp2pzv+2Ja1O/3Y+BI/o0eeughDIJp1Rdr7CZWoaOSZgJMmgZzaHDghoaG66+/XmUFjd34NIRyVD3nUVinE+Dly5dDq6mm0APkAYH5UWkOrrm5WVGU/fv3L1iwAG4OZVmurq7Gggn1Y6SlLDACJURAtfPc5XKdffbZr732GvSZtgTT/I75LSm/HKhPwHiAV4Dzgy+f2EyAS9hOKzBrJsD5tE67xk0kEqFQCFtrYrFYNBq94YYbKlCb831laL/H4/F6vdjkif3A3/72t7dv364oSigUwrAYNod2rX+ry8UEGJoWCAQgVFdXYw5l2LBhN9xwAwZ2MMqgVml1JVmbn6MJsCzLIgEmJmwthF3nlkwmMdEJC9Jbb7310EMPhbtd9GCSJLndbjhsy7cz5PiMgEkIkAuSQCAAv9A1NTUTJ07ctGkTlD4UCmG+CbYzXbcEa2MwAbYMbybAJrVBTjYrAiIBfvnlly3T87wycrwJtOjsRJTzQkE/ssjQ1q9ff8wxx2Stbw5UIUCbTGjvXDAYrK2tXbJkiaIoHR0d6XQ6mUzCClqrCsQ6FWWt+Frh4rOirBW/VOFMgKFF5GvX6/ViYCfLcp8+fZ599lms0YVCIRj12dO0T0t/RN0TZa34iqIwAdYBx8Bb2DkZiUTuvffewYMHw9SZ+i4SMJGn6uv4JyNQWgR8Ph/ZW7lcrmnTpoEDJxIJGsAY2FWKfZco59semQDrIyZiK8r6T2W9ywS4tC200nInAixJEggwBrdZldOoQLGNiLJW+kyAtZD5b3g8Hsf2sGQyeccdd2BVs9K0uYD3DQaDaANutxsT1RhEXn311fv27SP/HDBk/S/cX5ZEJRblL8fq+pf4rCh3/aS1MZgAk6ZhGzl8rdPxSMcee+xTTz2FOiH3V2S/am1dFZKbqHuirJOWowmwJEniCrBt9wDjoOl9+/b97ne/GzRoEJSQtC4YDMKTnyRJ5LGcFJUFRqBUCIgemFAG6Gd1dfWsWbP27dsHMxkYGBu49UDsu0RZpx/LeosJcFZYKFDEVpQpQu4CE+BSNdLKzJcJcO5ts/CYYqcgyoWn+OUn4W4HiwPvvffeySefjCP4KlOn83prv99PBJjMCGVZPuKII5YvXw7Hj6gyHQIj1qkof7mWuv4lPivKXT9pbQwmwKRjOPmDSIi385Ik6fTTT3/55ZcxbwIObODAzuzaFnVPlHXydToBFr1A25YAK4oSDofvu+++IUOGgOUGAgFx1ReyLMu8DZhaKAslRyBzOoY6zJEjRy5YsAD2MtFo1NhOUuy7RFmnH8t6iwlwVlgoUMRWlClC7gIT4JK31ooqgIoAU0vPXWMLiCm2EVHWSopXgLWQ+SIcVkMgwE888QS2JtI3pqIUOq+Xhf0zOAxaApzvY/j4xz/+EduAcaqNzrdZVGJR7qLaMm6Lz4pyRsQSBzABhprR3rbq6moyh5Ykqb6+XpKkyZMnNzU1gbRYYFdjoE6IuifKOlmUEwHGVJfOhJcODmbfmj179iGHHAL1o+0bsiyTKno8HurW8uoMOTIjYB4CNNCEfiIjnA88bty41157DXPNOh/ZAlqW2HeJcr5J0bCYnWBlhU7EVpSzRtYPZAJsXhvklDMRoH5JkqSXXnqJWrq+lhZ5V2wjoqyVrJRLJK2H8w3PN6984+dbnlzip1Kp3bt3g62deOKJHo+nqqqKVgYya51D9BEAAR4yZMjWrVuTySRsy3EacC7VUfI4ZuskE2B9/ZEkCYTk/PPPhze1SCQC0KBL2F6OlWHyNG6s2og6IMrG5kKp1dfX0xQSDMK7hMhWEbACLE51GTsWJ6DEuhBlioDjYZLJZDqdhs0zTotRFOWBBx4A+62urqZzZWwFIxeGEcgLgYaGBkmSjj/++A0bNuDoQRxmQa0vHA6jn6RNwmJLMU9WtU303lhpSKVSCxYsyOs1Sx5ZtEJ3uVx8DnDJa4QLYAcEiADLslzwHmBVX2F4p8QEuGtIMbBeuXIlnYqBqrWDkjm0DHV1dQ888ICiKJFIxEDPHF3XZdExzG6QTID1VZpWg3v27HnjjTdi6oQmUCKRCG0MjkajALPoOlcnIOqAKKvjGfSbCXCOQIp1Icqqx2kqOhQKYS36iSeegNcrWKyQBrK1M0HBgrMQ8Pv9IGbdunW74oordu3apSgK+sZEIkGdJPxQWmyRoWqbTIBVHZRJP3kF2FlN2OmlZQKsbsiqjk99O+N3vvEzEjAgAJ+KPXv2/OxnP4NZkSRJvAJccOMkh1iTJk3avXt3R0cHHGIZUFWWJGG2TjIB1lct0QfvQQcddPvtt+N0bhrS0WoGLXQYrheiDoiy4RkhQSbAOQIr1oUoi49DPaAtWBBbvXr1uHHjYFlA1uaYZ+GJTv3GyHdtiwDYL/726NHjvvvuw7ELaAsiB6aeU2wmpsqqtskE2FS0KXEmwLZtrWVZMCbA1PS+EFQdn/p2xu9842ckYEAADgF+5ZVXvva1r7ndblQqE+BiWizQ69Wr15NPPqkoCgiMAVVlSRJm6yQT4C5Vy+Vyud3uqqoqSZIOPfTQv//976h5MiWIxWLmsV+Y8opqQLJJCsgEOEdgqSJUgvh4e3t7Op0Oh8PQlk2bNp155pnwa0jdu9vtxslbXaoiR2AE7IwAbdcaNWoUrBDp0MFoNIomgB0BYhsxWxabJ7pT7E2Aw2o2gTYJfybAdm6q5Vc2JsDqhqzq+NS3M37nGz8jAQMCMJKePXs2hkRer5d8opSfylrwRmC/mJmeMmUKpp9N2qtpQPVnJGG2TjIB1lfCYDCIxTrs1ZQkafTo0U8//TQM/EiR4CPaJNM+UQdEOUNZjAlgApwjjmJdiLLq8UQigVa2efPmq666Ct9p6tVBg+Gxjyc69Rsj37UzAlVVVZ7OC+YMl1xyyfbt2+PxOHgvjJ/RNCxeBFa1TV4BVnVQJv1kAmzn1lp+ZWMCrG7Iqo5PfTvjd77xMxIwJuDdd9897bTToKAej4eOmy8/lbXgjXA2Um1trSRJgwYN+uc//+msRWCzdZIJsL4Ser1eWp2DR2hZlseMGbN27VrQXTKBNm9lQ9QBUTamu8lIhQlwBiTZA8S6EGVVbLi/+vdS2E033YSOyNd5SZIUDAZJu4gS6ysk32UEbIgAndfldrvr6uokSaqtrZ05cybaAoz/0+k0kWFVGzH1p6ptMgE2FW1KnAmwDdtpGReJCTA1vS8EVcenvp3xO9/4GQkYEJBOp2+//fY+ffrATA5eUnhloMh2C+8yfr//l7/8JTEWA2rL/CTM1kkmwF2qVq9evRAHq8FojOeee+66desURYlGo+QO2iR1EHVAlE3KjglwjsCKdSHK4uPJZDIcDre2tv7tb38bOnSoJEmBQIAOPRKdbJO7tS4VkiMwAjZEgEwbgsEgjm8cPHjw22+/DUtjdJLkQl9sI2bLqrbJBNhswJE+E2AbNtIyLhITYHW7VnV86tsZv/ONn5GAAQGJROKiiy6CRRzOFShjlbXg1bxer8vlwuqK2+0eOXLkxx9/jE+gAbVlfhJm6yQTYH0lhObAjkCSJKgTzFavvfbaHTt24NBLbAMmi2hj9ULUAVE2NhdKjQkwQaEviHUhyuJT4XA4nU6//fbbo0aNwpIvTaNgX4bX6w0EAmwCrd8M+a7NEYAC+/1+r9eLovbo0UOSpOuvvx5ON8gOItl5iW3EbFnVNpkAmw040mcCbPM2W2bFcwYBtqbt2T8X2AKlUinMidIRtW+88QYsiMitIiZTy0xZLXsdeIEmX75VVVVz5swR1QMfZpzmKoZXiIzRQFNTE9UI+hH6yYIOAjfeeCNIbygUgpBOp7HWkUgkaGXYJGJskoqSa2KsdWNoqwOCrW65XK5ly5Zh0Qnr8+T2xiS4kCz6czr4V8z0s88+mzhxIln0SJKEvt1WuHFhGAEzEOjWrdvrr79O7ZHORjK1MeonDjcraLDxeHz+/PlmvLhJadLXGX0I9uPov2+p7jIBNkkHONmsCBhCgM1uLJLZGTglfVqEpI4Y85TTp0+XZRmOZ6lGecCUVeNzDIT9s9vtxtrLWWedBboCWkIzEcDfKfpjVDmZAOeoRZnR6uvrBw8ePHv27P3796M6YrGYuM8tlUolk0n4ATaqvixIhwlwASCnUql0Oh2NRrEzPN55YTbkxhtvrKuro5k4Puw3sylxSBkjcN11133yySdwghUOh9ErFtDEjHqECbBRSOqnwwS4jBu1DV+N6JIsy3BBTyRLX1GtvMsE+L9oYzMqumMsFr3//vuHHHIILC1lWaa1XzIrsqHa2b9IXq8XK8A4yaZHjx7PPfccrQ5h0QZk2CQvvv+tcvtJTIALU2C/34/5lP79+z/44IOoWHg3TafT8Xictpo7a/lXUZRyIsBUI2a3PCLAyAiVnk6nH3300X79+sH4GZrm9/t5QrOwRsdPORGBwYMHP/roo1j7xSmPpR2YVhQBFs2/Rdns/lBRFCbATmytzi0zE2ALGrVhWYjGz5DRZcAtCkZI5CCUnWAV3CyxhxMzCGghbrf7e9/7HioyGo3ic4iBMmTD6tgJCTEBLky14M4XDXPMmDHPP/88GcHC/DUWiyEkkUgQGXaCRjieAL/wwguKomAyyzICLNY+efpZv379scceK0kSuX1G987+rgprdPyU4xCA94SLLrooFAph7RdNsoQ9IRNgayYgmAA7rrU6usBMgPU6VXH2S5T1njHzHj4GODoFg6ddu3aNHDnS5XL5fD5YQWMFmEdLxTRLUF9gCFR9Pl+PHj1U3inpnAYz6/z/0hZ1T5TNzlcrfSbAhWmX2+12uVx+vx+zVCeddBJO2IpEIkR3o52XHba9Zda+qHuiXAYrwCIBppXYTAT0Q0RMRFnrKZo7SyQS4XBYUZTNmzdfdNFFYLwwFuC138LaGj/lXARgdXX44YevXLkSbScUChlIwMS2Kcpa7ZR2I2PQVfZ7gEVMRFkHH6NuMQF2brN1YsmZAOu1XLHxi7LeM+bfo2GToiiLFy+Gvxks/3q9Xgi8Z6zI1giuQlaIrs7rl7/8JQbH5KkIWmF2nYu6J8pm56uVPhPggrULHqExw+J2uy+44IJ33nkHAyyMrlKplLgwqFUFJQkXdU+Uy4MAY8MhdjfQkDcvnEVMRFknkVgsFo/HaWA9d+5cmneDjtFUJj7VBSseP8gIOAUBd+fl9/t/8YtfYGYwGo0auCtEbJuirNNOeQXYwAkIHZyZADulkZZHOZkA6zRG2628oazUEzU3N0+aNAmKCN6L5UpJkmDEWx46WpK3AJ4wREQjcblcX/3qVzdv3owzbGi4TNWhp0nF3RM/0qJcXKqFP80EuDCdhFKhbYLY1NfX/+QnP9m5cycqAya4yWRSdAddeD0Z/aSoe6JcNgQYRJRmIvLFT8RElHXSicVi5ETglVdeGT9+PLw5QMFEPw7cpRfW6PgpJyKAReARI0asXbsW1NfAaUGxbYqyTjutKAKsg4PZt5gAO7G1OrfMTID1WrTYOYqy3jNm3oOnHIyPE4nE+++/X1VVhSqkhQKPxwMHTs5VypKXXARTkiQcuQm7xOeff76lpQUMEN4pzazwL9IWdU+ULcg6axZMgAtTUVmW0Tb9fr+4z3zGjBk4HJgMoUUrj6xVUJJAUfdEuQwI8PPPP09r75YRYDjBQlXu3bv3V7/6lSRJMI+XZdnj8aBvr6mpKUzf+ClGwKEINDQ0wPxq3rx5OHTQwC5R7LtEWadTZQKsA46Bt5gAO7TBOrTYTIANbLymJ4XT4TFKbmlpmTZtGp8PaWXD83g848eP37VrVyqVwrQ0asT0irdZBiDA27ZtkySJfK2RYGWNlEdeHo9nwYIF2OyNkRYcn2pVe46DNq3HzQjv0aMH6gJq4LjlysbGRiCf6rwKM4EuAFha6n/sscfq6+tpz0V5KHaRb6F1mjR1NTj5D7lg+0/mI3LnpSoJmUqpwvETj2T9S/GRAsZPFIhJUuyXoVuqvHC4gOou/RSTqlgZfkzwd/jw4c3NzfF43EACnG87TafTyJ3Wou+66y5n1Q6aDNRMluXRo0fnC4I18R1NgOkQFrfbTceIOEtP7F9aA7tKcbuo3+9fvnw5xmDWqHruufAxSF9ghfNCYTL3zjvvwF6OjHXtr7tlUMIBAwY8/fTTNFbOXYnLKSYTYMM1eejQoeDAiqLgiGCdAZ8NCXD37t2BCRPgvFo6ZjO3bdt21lln+Xw+7sy1WhZoJLgldMztdgc6L4/H43a7yWwnM4WsHBhzDYFAwO/3E3nGs9iDir+UI7HuzPQzWTfigOt6Oy8UUmTsFMfAIV1m2ZwYglYA+/9DDjmk5OdzMgHOq08rJrKjCTDtPaRmDkHsQ8yQxf5KlM3IK5c0xTKIstazYhxR1oqvFS4+K8pa8dE3YrLe7XZjErzkDuczmw8T4P9i0tHRkUqlYrHY7bffXldXJy7BOfFT57gyy7J84YUXwiklXGHBQOu/NVQBEhNgY/UWNq6jRo1qbGyE/2f9DW92I8DpdFpFgMXNq8ZiZVJqJVkBxh6KRCLxhz/8AYN+JsBi/YL0Yigj8k/sIKDBJT6Cfr8fAx3E9wgXreXiEewSUhFmkWCrykC3QJUpYThKFOmryHi9Xq/P51OZQoCoi+VBkVBmMd8Kl1GVkiTV1tZee+21pf2oMgG2DH9HE2Dqo7DXye12o6+o8LZs29dH7QQCAa/X6/f7MdGmP/SyrCGIGTEB/gKNdDqN4yI//vjjCRMmYMKJWp1t9axsCgao+/bt+9Zbb8FbbDQa1bdWFfW4bGQmwIarNBaRxowZs3r1akVR2tvbAXJWnWECbDj+JSHA6DrWrVt3zDHH4I3AoAx/u7JJkPBxu93BYLC+vr6urg5HAOq/o8fjqamp6dOnz2GHHXbEO5zxggAAIABJREFUEUeMHj167Nixl1xyyaWXXjp16tTLL7982rRpV1555TXXXDN9+vRf/epX11133TXXXPOLX/zipz/96dSpUy+99NKLL7547Nixo0ePPvLIIw8//PCDDjqoe/fuVVVVqtVjsRgguuByIk/OJMY8kS3ihmMdYU8uy/LRRx994MCBrD2hNYFMgK3BWVEURxNgTGTT5C+Gi+iyxAVJkrVWJilCjoJWOlrhOSZL0fJNx4z4YppUMJUgxhFlVTT6qepzli1bRg4pLVP4XDJiAvwFShgTp9PpRYsW1dXVybJcW1srflnFGmXZcARkWcb5UrfccgvqgnYM5qLHZROHCbDhqhUIBDAsPv/88+FpXEdbmAAbjn9JCDBmOq655hqY42K1ULUyafibOihBWimlb5zL5VKtqeJ1sOQiSVJVVdVhhx02YcKEH/3oRzfffPNf/vKXRx99dN26devXr9+0adP27dv37dsXDofRg4VCofb29o6OjkgkEovFEokEjnZH00smk/F4PBwOh0Kh1tbWlpYW7BALh8P79+/fsWPHtm3b3n333Q0bNixbtmzx4sXz5s2bPn36ueeeO2rUqAEDBjQ0NJCvOyqkz+fD8c6YvPb7/Vh/cFClWFBUt9uN7ywMIqqqql577TWd/tDsW0yAzUaY0nc0AUbTOOSQQ+rq6nDeYWETW2K/J8pGNT0xzVxkrXy1ntWKn2840s/3qdzjY+HX5XLV1dX169dv6dKl+/fvN/C4NdLqIgUmwF8C8LPPPrvwwgtxWgb8puRe5RyzGARcLheGL6NGjdq6davOLs0vVVjZ/WACXIwWZT4Lf78Y5Xs8ngsuuGDbtm06WsMEOBPDIkNKRYBfeOGFww8/XJIkv9/v8/kwb13ku5TT47Is+3w+TA+RrRNocDAY7N+//9ixY6dOnTpv3rwlS5bs3Llz9+7dra2t0WgUnTOoC6Yp0WtRs1L9pHD4P8v6iBiHZKSDU/Hi8XgsFotEIh0dHaFQ6KWXXlq0aNGsWbOmTJkyZsyYvn374hXq6upA8FBTmFeF9+9yqruC3wUu0EEegNjs2bMJcOsFJsCWYe5oAty9e/dTTz116dKlqzqvV1999Z///Ofbb7/9hsb1Zp6XRjJvaCWTb3y7paNVfq3wfMuPdF555ZXVq1c/++yz9lz+VRSFCfB/+59EIrFkyZKBAwdizCR+Rwv+3vCDOSKATR3wm3LHHXfAHN2Gewb+qy7mSEyAc1SYHKPRigfMKXv27Dljxgy4wspagXYjwKlUqlu3bnhZDFjJDCxHBEoerSQEuKWlZcqUKWTwiT2lJYfCPgVQraB6PJ76+vrevXufc84506dP//vf//7ee+/RDhRQVrG9JJPJSCSS1VE/KE2s84p/+aL+HC4nidDC1wM1PTGjrDLFhM+O5ubm7du3v/3226+99tpll1121llnHXnkkd27dydWbx/Y7VASWurHgv+ECRNK6JyGCXBWDTcj0NEEWJKks88+e8+ePUAmnU5DaakrUAlaAKqidfnTqHS6zCjHCPmWJ8f4FE2rGBRBJejHB+/FZ6K5uZk+KKpESviTCfB/wf/353nGjBn4KtTW1oIG2+GLVQllwBodFoEnTZqUSCTEkzz/W0nlLjEBNlzbq6qq3G63LMs4ALN3797333+/lh6JHbpWHCvDmQAXhvaGDRswlSmaPbMfLGpcZPncq1evCRMm3HLLLWvXrg2FQsRR6eQw9EgwYKbFWwQqihKPx8m8WWw7FEFVfYijCsRPcUk5lUolk0kURhWeSCSymtLBrBqO7nbt2vXGG2888MADU6dOPfLII6uqqujFWSBjK3jP7t69e2tra9YasSCQCbAFICMLpxPgc845p7m5Gf1SOp3O2gl0Caaqj6KfXT6YYwRKMEdBK1mtx7Xi2zA8lUphR0wymUyn06g7u5WzEgkw5ptBsfBFj8fj6XR606ZN3bt3F099yLonir+gJiHg9XpxPmF9ff1f/vIXNBXVgAyLBiU0kBY7pmIas5iOSlYUhc8BNknHKNnFixdjCrmtrQ2WmeFwuIBvqlh3JukDPNLDbw39pRexuSDL8gsvvEBn/wJhLXZUAICpVAo1SL580L2fdtppMHzFgjlmQGyOVTHFA6GFVTPZCHi9XnzC/H4/aZHP56uqqjr22GMvu+yyRYsWffrpp4C94DFlAbVm6iMiYU4mk9FotKOj4y9/+ctVV101ZswYwoHQxooozQjQ7jh4tEY0CqSnnCugLbhcLuhJfX09POSjUmirtvjlNa++0BWIvei8efMchC2pDSbXZFkeM2aMeXAVk7KjCbAsyyeffDI+2bQFoxg0VM9iuUXUQ8iqaBX7MxOZ8sCnEgkwWlE0GlVV4Zw5c+i8B3GTjIO6Y0cXFYMMfJgvvfRSccYICwI0bibB+v5I7AiKyV1MRyUzAbZAjUePHv3ss89iCQv29oXZ54h1Z5I+0JCdSI4F+BiVhdkEGB7jMcdMNPvll18eMGAAJgswykffQqNVo97OPumg24R7GDA6GADDlSN2flZVVR133HE33HDDY489duDAARw1B6XFsqptd2rl1bJAgIlZJRIJnAgdDoebmppWrlw5d+7cH/7wh4MHDxank/x+f3V1dVVVlb/zEmdMgB7NJtin0gsrCbUCcDa/3z9//nxaiSXDK2tmmamaqCNlApyXtucemQmwDlakfiToRK7AWwSLSnA6FBVHgMmICx/FWCyGjr6lpWX06NGSJJGZnGg7V9iXhp8qAAGs2xx66KFr1qwRWxc4MEIKWKkTkypGFtu/UemIaWJAwCvABWhOvo+ceuqp69atUxQF9KmwAZ9Yd2bog6IocEpPg3Uav+b7viWJbzYBRnvBInAsFotGo21tbVOmTAFKdCiOs0AroKZ8Pp/oHJX8frndbq/X+5WvfOXcc8/94x//uG7dOjKAEq2aC1P+YhTepGfRHsXXgQ+tcDgsLmnu3r177dq1S5YsOfPMM4cPHw5/H5g4UG0XBx9GjZTZpmJa1p4yZUqy8yL2i9oRYTSvvsioFXXHBNgkqJkA6wArfsfxTdGJXIG3VPjQT6dDUXEEmLYVQWhra8O091NPPYXPm8fjgUCGZAUMR/iRfBGgUyirq6sxWr3xxhsxRKOBCzyqpFIpJsD5wsvxVQjAJ9ZZZ5317rvvggMrioJJsbz6dPoSFPnVFNMRZUVR6uvr0SLQLzmLy5lNgGHOg3N0sKTZ2NjYt29fmPBgNpO8/qh0oCx/wo8gXs3lcg0ZMuSyyy578cUXwXtBNsS1X8wI09+8lN+GkantiGVD2wQTJhNfRNizZ8+qVatmzpw5YcIE8jZX3Xn5/X60NRwEVR7sF4eik0EELORHjhyJ3XoqAkxfXhFMY2WqGqo4JsDGIkypMQEmKDIFUr8iv+OZKZdHiIiPKDv97SqOAGNSk2y9sHQQCoXOPvtsnB8Id8Ti6SllOU6y4Uv5fD7MvmMn8P/8z/988MEH5GcF9o3xeNyCaWmdVm1U4xfTUclsAm2BclZXV4MdXXbZZdgGWdisilh3OmrT5S0xHVFmAqwPHcbo8Xg8EomgZ/jZz34mzhegV0dIGft0wHk/tbW1MFySZXnkyJGXX3755s2bP//8c6CEVT5si43FYuS/SsUJ9QG3/100HyontSZy6wV7b7w+jXc/+OCDRx55ZMqUKfCdBheYdXV10BmPx+Pz+Zw195S1F5Vl2eVy0So33q5Pnz67du0CYjCHASxMgLNiKAaSSuBrwnuARXAMlM3eA0y9BHUI1IGwUMYIVBwBRl3SgACj3jVr1lRXV5MzDHhHFM2hDWzJnJQWAt7OS5Kk6upqfJjvvvtu1Fc0GiV+YsFXWafBG9VRiumoZCbAWhpiYLgsy3A5HgwGb7rpJiwhFjC3Itadjtp0eUtMR5RBgLH6xCvAmTDSeAVnLWzbtm3YsGEACpOY1KvgdHcDVchWSVVVVZF6DB06dNq0aStXrhS9+8bj8XA4HIvFQHdp1zQgpXOJMhF2aAg1Iixud3R0xGIx0hZ6qebm5nA4jIafSCS2bdv24IMPXnHFFf379weeotqUx64obG8GcwMf9vv9b731FjCBFQwAKaA/JGBzFFAjVFnpdJpXgHOELt9ovAKsgxhpoE4cvlV+CFQiAcbHniweQ6HQT3/6U0mS8HnD/Ch23NF+YFuNdcq4MOC9cEUmSdJJJ520d+9emK6ReWo0GrXgw6zV1KmjzBxLaT2SNVxMRyUzAbZAw71eL3HggQMH3n333bt37xZNQ7PWWmagWHeZd3MPEdMRZUVRGhoaMBYnhmMBPkZlYbYJNAxDcGROIpG47bbbAoEA7Dz9fj9OgUY3TqteRr2ardJBz9m9e/fzzjvvySefJOoL4kernTg4F3bjRHpjsVhZHjtH3rCor8ZRSUADHxG0tVQqlUgkKFo8Hl+0aNH//u//wii6zCbEoSrYI0B///GPf2CKGabymDXIvfsqOCYT4IKhy/dBJsA6iKEf0InAt8oSgYojwJj/xscvHA6DbPTv358WCsiVCBYQbDXKKePC4Kvs6rwwOQ0a/M9//hPueYkAF8BSDGy6KnJScMpiOiqZCbAFel5VVQWrUfhYHj58+JIlSwqoTbHuCnicHhHTEWUiwFirIVdYFkBkSBYWEOBkMolRe0dHx7e+9S1a2hKnL2VZLvvDYEeOHDlnzpxPPvkEShWJRHC8H7a406QhDKFpQyyxvrI5BimzTZGrcAIBmMCpBFFfeJeIx+PYIbV79+7777//+OOPR0OgLcGGtIsSJkJ+0SFgWu3uu+/GcAiWFKLLScLTDIEJsBmoZk2TCXBWWDiwkhGoOAKsKApGS9FoFBPhN910Uwm/RgZmjRUPzOnW19dLklRbW2tg+iVJavz48dgG3NHRkU6n8Xku7xabSqW2bt1KLjppl1FJ8C/vTGEFjYHgV77ylVWrVqVSqVAohF2CMBIp7Q7JdDrdvXt31AKGqo5zztfY2EjDXHK+YGwTxiHAixcvpnOAylVvMWuD7Tl1dXUg+Q0NDT/+8Y+3bNmCrhKbXYnX5QW1OPkiynklUh6RsSL6ySefTJ8+HdNkdCCZu/OCjpXH8UiXXHIJao2aKu05MrU26fglZJdIJO666y5nNV7RMEeW5dGjR5uKWMGJMwEuGDp+sFwRqDgCjE1Q+JtMJj/66KOJEyc6q8PVL2337t1hAUiWTvrxbX53wIABOA8J4zmY6mGuulzbJBNgC3QSJtDgDz6fD4OYUaNG/etf/0qn09hzDgF0olTKxgS4S+Tj8XgsFmtra7vuuutEBz8WaJH1WUBRXS5XTU0NevgTTjjh73//++effw6g4AyMaEyX6KkiiKRXlFXRKuEnmRp99NFHCxYsGDduHOwv8Hl1u920JVi0NbBeJQzJ8bvf/S4mp1Dplh21wATYsqbEBNgyqDkjpyBQcQQYS4ihUAi7XB588MGamhpDPiGlTSQYDLpcLq/Xe/rpp2OiukePHhgtlbZgRebu9XqnTZsGszTanmTN5HSp2jAT4CJ1JvfHQSF8Ph8tpk2ePHnz5s3oHGAhAvvJUikDE2B95NPpNDz5v/7660cddZTjTMRz11XERJdO36wzzjhjzZo1tHqGmUFwGEVRynuiUF8xir8bjUYjkQimEkKh0MKFC7/xjW+gFmh7FE5IyrcSbRj/+OOPB+EHI7XSBBp26aTDvAJcvOpmTYEJcFZYOLCSEag4AhyLxVKpFD5se/bs+d73vidJEs7dseFnKfciwTDya1/72jPPPIMjnWAFnXsK9ozpcrmGDh26adMmsl0v++bKBNgCVZRl2dN50SQRTgaWJOlHP/rR9u3bFUUhe3tiwtbrHhNgfcxTqRSq6fbbb3foNum8tN3tdqNj93g8F1988fr168HQkskkPm2KopBAfhP0MeS7mQiAlaVSqba2Nky8tre3/+tf/5o4cSJGC/C1htOS8qpBe0YeNmyYavYkExMzQngF2AxUs6bJBDgrLBxYyQhUHAHG+ABH6SxdunTAgAGyLJcBAcZn9dJLLw2FQg888AA8dpTB9lHYNP75z3+mVlryo4CpJCYJTIAtGCO63W7yAUObBai9zJgxY9++fdhRSUM0k6pbP1kmwF3iA9cA3//+93GCGvnzt0CLrM8Crrzq6uquvfbaHTt20FkGhBKdbwQ3VxTOQl4I0FdGBeObb76J+WWaiSgPDjxo0CBMl4i79EWfYXmhl3tk6l15BTh30AqLyQS4MNz4qTJGoOIIMHxdJpPJ9vb2qVOnls0B9y6Xq1+/fg8//HAymdy8efPRRx8tHmBo/UDNqByxz2rSpEnbtm3DkSfRaLS0RwGb3R0wATZKefTToZ17NTU1wWAQh51gLqx///6zZ89GRdNWQLPrPWv6TICzwkKBGKOvWbNm2LBhkiTBNpg2Z+orgEPvNjQ0/PrXv961axftTo/FYti1Dg/PCMe6JQHFQr4IRCIRsiGPx+PYXK0oyhtvvHHuuedCebDzyKGKJBa7X79+IMDwHI5mJZLhfNHLMT4T4ByBKj4aE+DiMeQUygyBiiPAOAlQUZQ1a9YMHjy4PFgivmTf/e53P/74YxzwMGfOHFrOEr9zjpN9Pp/X6+3du/d9992H8ypL65XXgvbPBNgCLZVlWXTlSobQkiRhC/1hhx22ePFiGEDCytSCqs/MgglwJiZiCBaOZs2ahXOtsKpPUxsWKJLFWdTW1t5yyy07duyg03pou6ZoCx2NRgsjwKLjK1EWMa8cmc5PhvNF2obz2muvnXTSSVj7pf3YFmuCsdl1794dM32YXMZfC/o9JsCWtSYmwJZBzRk5BYGKI8B0wMm8efMw6vV4POLw19jvimWp+Xy+WbNmpdPpWCwWj8e3bdv276ES2XZaVgwzMqqurpYk6corr8RJSKV1SmRBw2YCbIYWqdLEAUi+zkuSJOwHhkCTYkcfffTq1atTqZQFA0EtvWICrIUMwkGAp0yZgvrF4WFl0J+r1JV+Tp06de3atXh3TOYCAToijvhwKpWiBUx9DMW7IukVZTFOJcg4fB42R2j+6AdoW/VTTz0Fp2tut7sMvrO1tbUgwFj7hVJZUNFMgC0AGVkwAbYMas7IKQhIVn7krMxLvwL27ds3dOhQSZLEg0BpkGFnwe12uzov2noky3IwGOzbt280GoX3WkVRDhw4cPXVV+NMYBwaSasi4JN2fkexbLIsd+/eXZblvn37vvDCC3g1/cp19F0MtrZt20Z1JwoiMiybgYAsyzU1NW63GwYUY8eOXb16NVZ+sCoSDocxRgyHwxaYCKZSqW7duuFNwescdw4wmi2wAoYA0Kh2umHDhu7du7vdbr/fj77ODMWwPs1gMAglJGHatGniN1SUjQKT09FHAGqMieb777//4IMPxqwZZl4y/2ZVmxIaZ2ll7fF49u/fryhKW1sbvkFkYqAPSJF3aXIBdvupVGru3LlZQbNnIOGJ8ZUsy2PGjCkSEzMeT6fTs2bNgn7i60YltyewqlK53e5x48ZhZz4mochIQewGScZIOPMvRcgqZCKfmQJCsj6uH5iZFIwZC05QPzv9u9gsk/k3s5AUQgmKKNFdlYDawV/aVWHsd18sRsFyxRFgVMnChQtBq4gWqtqbbX9SP6vqv6677jo0p3Q6jXdsbGwU2TJ5iHHW8ojH46HFut/+9rd0QGvBGm/zB5kA26Tp+f1+NJ/zzz9/69atcJ6HhRFsuaQdmKZqVBmsAJtKgJPJ5MKFCwOBANx6l81sEbYx+/3+YDAIYn/mmWeuW7eORiEqwVQl5MRVCOALu23btgULFsyePXvOnDmzNK7ZwvV74RKCvyRqJDNLePRL4pce7vyhlQLCxYfFZ3/729/CtAqvBu1SzL+YAJuP8f/l4HQCHAgETj75ZDAo/O3o6CAzDWswrORciCoT0dXvIqLRKNwtEWhkmkQhdhAqjgBHo9FwOHzaaaeRs1Bn2S+BvpLnaiwH9ezZ87333sPuX9oiG4vFTjzxRNhz4h1ra2vxuONoP15z1KhRb7zxBszS7NB4zCgDE+DSEmDMK3k7L5p5+fGPf9zc3KwoCjnCCYfDGCmaoQNimkyARTQy5Vgsdumll+L433I6Bgmk1+fzYbnmqKOOevrppzGQVVFf/YFIJmIcUjwCZFseCoWw3TrRecX/c8X+cyEcf2kQqSP8JwH1/6jGlUwmxSwgY+tyZngikRCzFiMcOHBAURQwCsSx5jvLBLh4bcwlBacTYEmSvvGNb4RCIXLig7cWdViUs3aSWBwSo5Gsbm/xOG5ppZMZHyGUoEoQ2x1kRMhMB+GZ8cWnVIkX8DPf9LV0TCtrqp1YLAbYo9GoBRZzWuXUCq84ApxOp5ctW9azZ08yIcY6T2mH3bnnjgG6y+WCu1owwx/+8Ic4qjSVSmGRCl/oRx55BEsicNRBvNdZnB9+iVwul9fr/cMf/kDnfGjptKPDmQDn3hbMiAnSi7+yLGO/wL+7iJkzZ4IDt7W1YWjY2tpqjab16NEDb4rZK8c1XlNXgFtaWrAVEz0h/jrLyEVLjXv27Il14IaGhttvvx36pjUgs0YVOReyASHzRdEShGqH1klIoFuFCVrIIzXKhYQcc6H4eAsMGzo6OrDIZsEcHxNgrZo1NtzpBNjj8ZxxxhnwAhMOhzG/pKOfWvqfL6pGpZNvvnaLTx2FStApJyyf0cDJLlUnfkluVRwBVhTlkksucXVeHo9HHDZpDUTsFi53Xi6XC0PhmpqaF154gWghvtCYKmtubqbRIY2b4f/Wbi+lVR5Q90AggCWRSZMmffzxx2hUJWkwZmfKBFhLE6wJx7wS+gfs7kNIdXX1/PnzUTvwFkMnhZqtEkyAdRDeuHFjQ0ODJEnihKBqe4g1mmN4Lr179/b5fB6P5/zzz//www9hhK8DBd+yAAF8XpFRIpHAlhxaEKYlehomYqWFfpKgtQKjNeDWWAD+wusHkhXT1EqHCkACngKjQP9Gjr4swBM5gm/DIRbvATYDdqcTYEmSvvOd72ROOmvpuRaGWvGpOagi5JuO6nH9n/CrR3HEvKg8KoEiFymoku3yp1g2UdZ6MJlMir0izp0t7YmSYrFJrjgCvGXLlkMOOYQGK1VVVTCfoxD7C7S+gRXdU045BatSWAQmMwMIt9xyC0h+IBCgB0mw/8vidBPycNO/f/+HH34Y30tS4nISmACXXCdpUgxzRh6PB+Tq0EMP/cc//iE6htWZgTZKJ9kEWh/Je++9FyY8mCArD+pL/hokSRo3btyrr75qjT2qPtR8lzYZoZcGIOTHmNgvQjKHhsWMWbXA18orM3eEiGVQxaGXQhwMJ7TyNSqcCbBRSOqn43QC3KdPn/POO2/Lli37Oq/9+/e3trbikMKObFdI44poXJlphDsvjWRCmfERopH8F8FIU/xL6YiBOrJ++pl3KX1jBZ0S4lY8Hm9tbe3o6Ni3b19TU5NtR+wVR4BnzJiBFVT4C/V6vWQYXPKRdy4FoH1uILHV1dUPPPAA+j6Y4+OrhpBkMvnuu+/C37XH43G73RjcO2uYGAgEcNQECMnkyZPhr1K/x3foXSbAubQCU+PA7FmW5aqqKuoc6uvrwUZeeOEFrJCk02mabDJP2ZgA62M7efJkKAPVFJm6mKokZicOfevRo8cf//hHICCuPepjwnfNQwCeXRKJhEgXReorMsyssn7Zsj6SY6BIaLUeQe6ZdxGOHcXg+UyAc2njNJRC/8NeoHMBrbA4Ho/nG9/4xpgxY4455pj/6byGDx/+NY3rSI3rCI1LTGaEcGkkc6QQ5UuiRvJfChYf0Mr3Sw8U8UNMX5TFMhQgU4m0nh02bNjQoUOPPvroY489dsKECS+++KINl38VRak4AnzkkUeC+pJ7YSwCF9YmrX/K5XKhz0WxDz744N27d8PaHk56MCgHGVY6r+985zswJKZjn6jXtr78BeRYW1uLVfru3btLkjR48GB4/MLbldlfJsAFaIiBj4jGES6Xi2iVJEnQw4kTJ27ZsgUOYyyY1+RjkPQb+LBhw1D7NK2JpWADVaJUSXk8nvHjx2/YsIG8r1kw4aKPNt8F1xUZL7ZCpIVLREll5UixRLIqyuKzuciUoGopWOtZMT7JqVQqEokgBXGexQJ94xVgrZoyNtzpK8CYEMRuF1q7KlXPXEC+9HnK8VnEz/yb4+OmRhNLpZURxk6YjK6vr3/22WeN1WejUpOMSshu6aBjDYVC2H6N6cy77rpLq8KcEg63KBiLwymUoijiR0tVEYlEYsWKFX369CH2W1dX5yACjKL6fD7autytW7eLLrpIURR4Wsfm51AoZM2MtQpew38yAbZtS4QhtCRJZ5111jvvvKMoyt69e1UKQD4qaXCpElTxu/zp9BVgWZaXL1+O18QIG+tLXb64KgKIBDo6nMKqKMrGjRttqy05Foz2p5B2YYoTMy9PPfUUplrolVWw8M8iEVA1T/pZZLKGP04FwwfC8PRLlaCqT0gkEvPnz8+x7dgkGs2ZwjrvuOOOKxWY+vnOnj0boyn0MPlSMpugzcVwEAI4wuDfHrxXrVplwWqBvv5nvVvOBJg8j2E39s6dO8877zwHaY9WUcl31+DBg0UPq1krWFGUpqamM844g459ov5aK31bhYPwYzhIzWnYsGHvv/8+TcaLZFgLBKeEMwG2lfqJhfH7/dDG3r17//SnP12/fj12ZsLaQrS50Fr2KWDwygSYWi715ziwVFGUp59+Wqwgh8ruzguFx7lHkE855ZTNmzejc9Of5SSIWMgXAZFYinK+6Zgd385lK+bdmQAXg15ezzIBdugHwrnFphE7E+C8mqoBkZPJJJYE4/F4R0eHoijPPPNMr169nKtMVPJgMAgX0FOnTt29e7fIA7MCl0gk7r33XuxsxF9abaA0bSvAiAIEmKzWXS7Xn/70JxhogVRgeklnJTxcwJcjAAAgAElEQVQrMjYMZAJsW1V0uVzETxoaGm644QY4n8PpmtAlWDOKFpLiyLUCCbAkScuXL8eLqwa7+ba+VCpFvu7R9m+88UbbakvuBcOZW7DroxGD2+1+8MEHgRte1gJ71HxrpAziq5on/bTbq1HBCuhD7PYuYnlUfYITV4BpmwyvAOfe6XHMSkCAPmdMgMVOzwo5nU7DV017ezumzy+//PIy0Dnyh9y3b9+lS5diDUrHugC3tm7dOnbsWByoK8sybQm2PyBkAo2iBoNBfG9OPPFELALHYjFacGMCbP8KdWgJybVSVVUVbCiOOuqoW265BSqXSCTQ0NLpNJw9iANWUc6373P6CrAkSY2NjcUTYCz/EgfG/OZ3vvMdh6oTFRvHm4u72mRZ9vl8X/3qV+noI8yqlBnzybchmBRfbJuibFJ2BSdr57IV/FKYKETPifkdJsDFgKn/LK8AU6/LgjUIMAHWb5Lm3sUhJVj+3bBhw8CBA62pdVNzoZ0bp59++meffYYBt/5xLLFY7N9flxkzZmCYJUmSg6ygUVSv1wsmTDuBa2pqHnroIbIPxHyHzkSAuapmXOoY5m7btk2sJgfVl6nKX8LEaZqfzBBkWe7Tp8/TTz+Nwwnb29vRDOEhVhywinK+msIEGIiB+mL/MOR9+/YNHz68hCphSNbo1rA/BTqGkOnTp8fj8WQyiWlcWDMxB863+XQZX2ybotzlgyWM4JRy5gJR2awAY2DmcrlGjx6dy4tbH4cJsCE9NieSOwJMgK1v5l/kCLtEjCHi8fjvf/97SZKc5fBZR8969ep1zz334O3A8HWAxgB9zZo1RxxxhEirdNK3zy0iHkSAach40UUX7dixgywD7elmXadest5iAmwf3VOVxOfzwWURTSRJkjRq1KjnnnsOSxmhUAh1SiYJ4lAVctZK1wksDwJMy+MQCpioIuNnYJtMJrds2dK7d29VHTnuJywLPB4PDaDRRb/++uuKomDuUpzm01EVvlUAApkttLB2WkDWBT8ilrngRGzyIBNgyyqCCbDjvg5OLzATYMtatzojuPXHJr3169d//etfJzfIjtYqLAaeeuqpW7duxQiJzkBSQ9D5O5VKhcPheDweCoWuu+468UBdZ+GAbc9ut5uWQwcPHrxkyRJ6a/1lcIpmc4EJsG3V0uv1BgIBqJ/b7Q4Ggzhx58wzz8QWF/I7wHuAxUpctmxZ8QSYTl4FE04kEi+99FIZnHjk9Xo9Hg9ehOxcxo4di+8XnTVN03w2774cVzyRTIqynV/EKeXMBUOnE2AySaMJel4BFjt/lisZASbAufSBpsTBkKu5uVlRlEceecTlcjnI85NOm8GKwTXXXAOjOKzuwkwuK44YOWEiYNGiRVjCog2NOhnZ55bP54PjfqK+tAR38803k0vYrK/vuEAmwPZRPLEkaDKyLPv9fox1oI3dunWTJGny5MmffvopJqSI7InjVJLzVcgyWAEmAkwewgpYAcZWf7jaxn6HxYsXixXkaBnahcPtgsHgrbfeqigKDi+IRCLg/Gz/nG/bySU+NUyVkMuzpYojFrVUZTAqXybARiHZZTq8Auzob4QTC88EuMtWaWIEeEjevXv3uHHjJEmCA2SnqBG5qoJ1nCRJGCS53e6+ffvS8m8u8MViMTDkvXv3XnjhhWCPsLgjc2KfzxcIBOin/VEC/Rg0aNC6devK76jMpqYmVAFt+bZ/jVAJaaMB3Nu6Oi+6W5aCLMtTpkzZvn27oigwxceBwKAutHxXGIdpaGgQJ4Ac1EhR142NjWC8xRBgDJTF43DPOuusMpjTpNr0eDwNDQ2SJPXr1++9997LpWM3Kg62C0E5RXKVi6xVhlyeFePYLR2xbMXIpXqvfPOF0Uqy8yqsm9LKsctwZAcDrlQqtWDBAmd9IzAUQUOWZZlXgJ1VfVxakxCgFiHL8ssvv4wepsvewOII5XwOMGbQn3766SFDhtApuCZVthnJwi6ODsmg9c9LLrnkwIEDUJRkMolNcTp6gw9MMpmMRCL33HNPfX09ddkej4c22UqSRKMxM17H8DRdLldDQ8Odd96JPXJEM3SgcMotRxNgbGIkvSK9NVwB7JAgOJgsy3379r3pppuwDbitrY2cNsFvE9xEF7DyqSgKCDDt3ndWI4UXaEMIMHgI3G6nUqlTTz2VtmTbQRMKKwP2dGCeC7p0/PHHY+rW1M5K1VvC1tpi5iO+ICZHMv+KcSpZzkSGppMMgSUcDkciEdpGhJkma9xqMAE2pAa7TIRXgAvrovmpwhBgAtxlkzQxAkai+/fvv/jii3HqDy3HF1adFj9FS3+0cI0VYJ/Pt3LlSpx+BJNL2EJrQUljGvjK+uCDD7AdGnQXuRBFcdaAEoCcfPLJO3fuTKVShX2ttWb3tfC0Jty5BBi9ns/nw/QN6shxnC33xo5N9XjBfv36zZ07F+0RM1PQFhzho6IcuSsSzVjRvFXuxbNDTKNWgIEYuHRra+uYMWPs8HZFlgH6Q/6fXS7XT37yEwuOc9u/fz/MEygvMi/X6hJNDddqDqZmakHioKnFZ2Q2PpQ+tIJ+WiAwAbYAZEVRmAAX2Vfz43khwATYmnadPRdsjn3llVcOP/xwMvrNq/5KGxnMQZIkEAm/3w92etJJJ2FDLwaC8c4rOwSdoeRGBechK4oyc+ZMnNhOa3Qej8fr9cLLVGnfOq/cUf6ampqFCxdiJzBNYOsAorqlNTRRRbP4p3MJsLvzIot9bJEtYwKMiST4x5IkafDgwU888QQ5wVKRisK0qL6+HgBWMgEWHWsrirJjx46hQ4fm1V3YNrLIgWtqau655x6atSxMYXJ5ClnE4/GPPvqora0t2nmlUqmOPK92jSvPZDo0kmkvVTr55qsVX/VeWtG6DFelQz+1HqQIKkEr/kcffYQZOnjySyaTiURCf249FzXLJQ4T4FxQKj4OE2DbfgLKsmBMgItvs0WlkEqlZs6cCRNiv99P65yO0DYiwCg29lV6vd6//vWviqJg2j4ej4uWllnBooOCYQKtKMr69esHDRoEigIOCerrLJZCflMlSTr77LMxKVDAIhsTYGObA+ntgAEDcPAYhRibkU1Sw7RUMBisqalBCzrhhBOeeeYZsnaGD3aYbFBg1qaqFcgEGNNb5C9HUZRNmzb169fPJjpQZDGwwRtd8aGHHvraa69paYKB4bFYrKWlZeHChRMmTDj++ONHjhx51FFHjRo1aozGdVyel0YyY7SS0Yqfb7hW+lrhWunnG18rndGdV2ZqWvEzYyIk3/j5pvPtb3978eLF7e3t+CBC0yyYiKGdgbwH2MDWnTUpJsBFdtT8eF4IMAHO2gytC1y/fv348eOxdw5neDpoLI5REXSI1mZHjBixd+9eIsCxWCydTsfjcf2Vz1jnpShKe3s7ThOZOnUqVNnbeUGmBeG8tLxUkUGAa2pqXC5X7969X3zxxcIUiwmwGTXYu3fvK664Asu/qn3mZmRX2jSDwSBmqbBbwePxHH/88e+++y7WTxKJBFmZFjBBoyhKXV0dfUsct1HfqD3A6LgIwHXr1tGMQ2lrv8jcXS4XOl78/frXv44evrDeLK+nUqnU3Llza2troV1kJ4V9Maq/+b6m6nH6qZWOR+OiB3MUtNLXCtdKNt/4RqWjla8GPB6t+FrhWuWUZfnOO+/EDF0kEonFYvF4XOd0ibw0TT8yrwDr42PUXSbAWo2Cw81AgAYt7ATLqCacRzrxePy2226rr6+XJAn2vW632+fzmVHTJqVJzAGrTP8eXv/mN7+h3b/kAwM0WAsa8esSjUbxhXv55Zd79eqFYoNJwkmYgxbJUdRAIABwfvazn+3fv9+aGWstqA0Md64JNOabDj744DVr1kyfPr2hoUGWZQdNPBXQlnv06IGnoIr/n70vD5CiONvv7rl2Zu9dTpEbBBXPiKCCqCAR45lPiah4RtGY/ESjwXwaFAGFEA0BloiJxnhr1CgSYFVEFBOPBDlcrgVZUJBjYdlrrr5+uk98v3JmZ3amp+fonpo/dmt6qqqrn3qr+n3qfestSOakSZPef/99iATRNgPyqWlaSUkJ6qc3ioFGZrGIKXuAMXGRmWjlypVEHbP4aKnfWpIkiA2O17rkkksyc65bc3NzIBB45JFHsB3G6/W62z6pPxGvwaIIzJ8/H/NVa2tr/CV1E9903AJsLphxauME2KID06LNJnWFE+A4ozJdPzU1NdGRP3QuCy11W0Kk3G43zALg7f379//Pf/5DoRoR1ApxsOKAiDcZNG/8BWEeMWIEYGEJsCVgoUZCdQM4xx9//ObNm4lpxAHEEj9ZlwCT50JjY+PevXsvu+wy6PfUazZLIMCex+PBUMWiFdIPPvjgwYMHEQUaep4BF2hOgDFgMXdhNlMUpbq6mg4Dt7pEud1uHHrncDiuuuoqHOqW7mkKSD722GNwLyosLDS2+hnLophsp+CwtOi/ydZjVnuSvW+C+al5CeanbNHI4ApliEjQjSISEdnoq8vlmj9/PgXwwzo7twATPnESGDik7vNjkOJgxX/KHwRoRHAC/N+3OetuatYLHmcY6rpOe+1w+tHq1avhkVhcXAyrlLXYL3wdnU5nQUEBDGi//OUvTQxK8c477+AWsF/BVG4hiMioiD3eBQUFU6dOhVDRuceapuEVnoPEmB0LEWld12tra+nYGzaR+7Mnjq0uLS3dsWOHpmm1tbW33HIL/AuwVCFJEmnbNjjHNVaPYChNmTIF4ehVVSVHaCRIStmf2p0VLb0HWBTFJUuW0CqAgSUAwgSjGOt3U6ZMcbvdxjhbrC7L1nV21l22bFlmWAfAnDt3Ls2fVvSuz1aX2fK+CxYsoAUmcjSj0ZfWBPsGnD9/voXgpcGLRU9RFIcPH55WrAxXzi3AFpIrGzQVQwMLcPwc4G+HLTvNGR7GEQXJtske6qCq6vXXXw/mQEZUOEJbRbAgPZIkwULbu3fvZ599NuLZU/m6Y8eOU089FVYUQCRJEpnKcx8ljCuE8sJKxznnnHPgwAE6foZWRoh4pAKX6WXZsRCRtjQBhiyVlJRs374dy1IvvfTSFVdcwXJgURR9Ph98PnNf0oy1ELvre/XqNX/+fMxRCMOOvibHP03TKDx7LBnjBBjIgDwj8t/kyZOx1GKsd3KnFNxY0B6Xy/XBBx+AhMQSBrOucwKcOzKQIy3hBNhAR3ACbAA0XiQfEOAEOPJlzSr6kb+l9h2mUU3TYP79/PPPYdKkTb/QlixkMUCDXS4XHuGKK67YuXNnaiB9r3QoFPrtb38LOyqCFVlrjzRGF+hWWVmZIAjFxcUvvfQS+YRTbDBOgDM526JfSkpKNm/eDOK3f//+VatWDRgwACJNiyxer5fM+JlsYWbu5XA44Pvdu3fv559/HoHrsCiDeOzEezFlfW9wfv8LJ8BsDG2scN18882kemamQ9N0FwpwKIpiRUXF559/nhnjGyfAaepQ61bLCbCBvqNZCKoItwAbwJAXsSUCGBrcAvx/2lw6CDCU7EAgoKoqQhfi9CPYNrFPhmiwhQgw5lNsDystLX3sscfIjfD/AE0ttWHDhgEDBgiCgMUCaw1CsAv8hTOkKIoXXnihLMt+vx9SQbaUHOTA7FiISFvaAgy3i7KyspqaGnj/wg785z//uV+/foIgVFZWYleCw+Gg/efWkr3EWwv/0uOPP/6tt94C5aAhSzLZ4XmbnACzUx8OQ7rqqqsS74VczkkEWJKkvn377t69m4L8k6ikI8EJcC5LRVbaxgmwAdg5ATYAGi+SDwhwAhz54mYV/cjfjH5HnbIsgwDrur59+/YTTjgBxwawjpcUb9MSwkfSIwjCGWecsWbNGtMVo3A4DEdx3IuCTlsCH6xlkAnR5XI5nc6SkpJPPvkEogSCAT0vgnsYlTUzy7FjISJtdQLscDg6d+68devWw4cPE/Kqqk6bNg2xxwvaPljisYSwGWgkFj49Hg/WaM4666wPPvhA1/VgMEjrMnLbp0OLHyfARICxsKVp2iWXXGKtvfGxREgURQwESZKGDBmC88xNjPUQa87iBDhWj+TtdU6ADXQ9J8AGQONF8gEBojA8CNZ/38Ksoh/rxWz4OoVX+fOf/wyVgsyDkDZYU60ieQ6HAwL0jXn2gQceaG5uNlcrAlyvvfZaz549gYnl9mTCvCaKIjoaTzF58mQ8WkNDAw4UIb5hWLTSUZAdCxFpqxNgSZK6du26c+fOYDCIRwOAe/fuveeee2D19fl8bK9ZZVQm3k6Hw4GA2FijcTgcl19++caNGyGTgUBA0zRFUcgOHEfGOAEmAoyxrGna2LFjbRMFGm8rp9M5dOhQRMBKRCriCEwiP3ECnPhYzpOcnAAb6GhOgA2AxovkAwKcAEe+iFlFP/K3lL9DaairqxszZgzECzFmoYBa7tBISZLguT1s2LCPPvpI1/XGxsaUQfq/CsJtn3379l1zzTV0TrK1hiX6l4CCRahfv37//ve/6SiRDkPs/h8imU2xYyEibWkCDFpbXl6+c+dOMv9Sd9TW1k6aNAkH27pcLtIerCV4ibQWHgq0BudwOHw+380337xv3z4IGnE5itYWSwA5AaajcQOBAOKHjRo1CgHwEumLHM8DUXG73WeccQacAmgxN5ZIpH6dE+Acl4rMN48TYAOY0ysMy1h8D7ABDHkRWyLACXDka5pV9CN/M/odW8JkWUZQmZUrV8LtWRRFWAjh+UxpC4kabGU/+clPcOTvvn37zDVmorZ58+aJoggyiUncEhBF7OumRxAEYd68eUAMDpNkPjIqYmkpx46FiLSlCTBiXPl8vtraWqxJwdRJKzg1NTVYorKcx0FS44JW3JxOJ2gwnKJnzpx54MAB7IuG83OHnh2cAIMAI2I2BssZZ5xhGwKMWdfj8Zx55pkdbgg3azLiBDip4ZwPmTkBNtDLnAAbAI0XyQcEOAE262Udrx6QHPi7BoPBK664IsIn1rqi5na7CwoK3n//fXp+HPUUwZfwlfIkmKDzV/bt2wdzCmJBWxcutNzhcAwePHjXrl2hUKi1tVVRlA4JRoKIZSYb5Nm65wBj1isvL//iiy+gZOOJVFWFx6+qqh9//DE4cElJCSkQ5KlhG9fWdoeS2+1etGgRZFLTNCxCxXd5JZRgKoRndbuV5+bF6upqVVWxUgmRwN+kBhTJEhKDBw8GGrn5yEm1CkNAkqSLL77Y2GSeFJLIDBjnzp2LpU/ypkmq5TyznRCoqqqCVJBzigG5SrYIpgWKbyLLclVVlbVQJdsvjjQbNmxYsiBkJj8/B9hacmX11rIE+L333suMkCd7FyHZAjmYn0jO2rVrjz/+eEEQbBBdFnzgggsuqKurgw2TVEBTCLCiKNhvJsvy//7v/yKIlD22ZVZWVr7yyit4p4JjmGs5T+sQsCsBZkFrbm5+7bXXzjnnHDhrsFKHI52JFVv9HdBu+4866qjnnnsOo480PxafiLSdCDCcew24+NLshwQnwBFCkuxXwMgJcLsjND8vcgJsrN85ATaGGy9lbwQ4AU72pWwwv9/vV1U1GAzOmjUL1JdVqS0qZHiQp59+GlZf4qvtsl+wpmTh0zQNpqd///vfJ5xwgiAIsANYFDG22VdeeeXevXu/4fbhcFhVVU6AWXDSmsasF20BDofDWOzHNk5ZlhctWoSg0HDZQEHbSGAskLEXY+TIkW+99RYN2/jyaXUCTE9K1h5OgFnxgORzCzCLCU9nHgFOgI1hzgmwMdx4KXsjgPcadn5xC3Cy7CyJ/Dj3taamZsSIEYiEZAPvOFEUTznllB07dtAWVtpR2S4HTgIvJmtLSwtOkPp//+//wQhs9TGJ8dajR4833nhD1/VQKKS0fZiHzumk/SzAYDuwOOEcIKR37ty5YMGCoqIibOZkqS+mTquLYqz2Q2EaPXr0qlWrAA4Ov4kll5YmwKIosgQY4k3MP9YjR1+HzNB+cm4BjoYoqSvcAhxreObtdU6AjXU9J8DGcOOl7I0AS4BXrlyZ1OspY5lt4gKt6/of//jHoqIil8tVUlJiAwL8jXfoQw89BDWF9uS0S31xMVmJgc6tKAqCh/3tb3/r27evPQZkYWGhJEm33347MIEROFl8spXf6gQYQ6+srIz2AIPjkZSCw9DFyZMnd+nSRRAEWn+RJMkGWxhiDSVRFAsLC91utyRJ11577datWzuUNE6AaRGQE+AOpSXBDJwAxxqheXudE2BjXc8JsDHceCl7I0AEWBAEEGADC98Jvs4MZ7MJAT548OAFF1wA829paSmmJEuLV8+ePT/77DP0K4y0iBkbiwMnKwHNzc0ogoDJu3fvnjhxoqURo8Z/c3KyIAhDhgzBeUhQ9ZLFJ1v5bUOAt2/fjoUbitwWDodxMjDswNgE++WXX1555ZXY8U5xoe2xgEUCySYwNcERWhCEW2+9dfv27fGFzdIEWBAE1gKMhQ/8jf/UEb9iFHMCHAGL4a+cALOjkqcFQeAE2JgYcAJsDDdeyt4IcAJs+O2cREFVVUOh0N///vdOnTrBlxLnHlldtm6//XbsbYYfL7gEgqm2y4GTgOy7rKFQSG37ICbt888/X1ZWZnXcYD90tn3uvvvuYDDICXAm+5QswBEEmA3kRsf/YD/wO++8c+WVV3q9XofDYWPqi14QRZHlwJ07d3700Ue/+uqr7wZlO/+tToDZKNCcAEcPRigKfA9wNDL8SiYR4ATYGNqcABvDjZeyNwIRBJgigLSj4mTvkh0swMFg8M4770QMJ1j/yMBiXQl75513dF1vbm5GfC9yGW2X/RpzLWhsbAQ5rK+v13V948aNxx57rHURQ8vBoEpLSyVJGjFiRGtrazgc9vv92Rtiyd3ZrhZgRHGD9La2tpJXP2Rv1apVxxxzDB1ghqnT6qIYq/2FhYXYqY41u/Ly8scffzyOlNiJAGPCMbAmhSLcAhxHTpL6CXjyKNCxBmkeXucE2FincwJsDDdeyt4IsAT43Xff5QQ4qRf0t5lZsgdDKGxHdGymLMuapq1Zs6akpMTd9rGi6uxwOJxOJ6ZRh8PhcrnGjh0b8exJY9dRARAt4iG6rh86dOjxxx8XBMHn87lcLrfbjTUFNMwqYxUBwAsKCpB45JFHdF33+/3kiAtgQqEQnUPTEVTf+z0z/WLdc4AFQRBFsbKycvPmzQAu/uqMoiiwA7/xxhsDBw4URRFhsbCGhU4URdHn81lFAuO3E9QXeXBupNPpdLlcixcvBlyHDx/WdR1HWGN+KykpQX4s7ljrHGBRFJctW4Z5m858ii8S3xtv331BKDtZlnGa9OjRo21zXjT5/48aNQo+Pt89dBr/Y0V13rx5GFnYdW97/4v4YzPPf12wYAFtWqEBm0YRbKsaUwG5tum6Pn/+fAt1BCmcRIOHDx+ebtCM1c/PAbaQXNmgqUSARVE0vAc43fp2TluAIx6erAfsFrJwODxt2jRSlKXvPlYRIJpAEQdIkqTKysq5c+dGPLuxKa/DUtCw4QKt6/qmTZsQCgtBenBMKzltWgVSbAXH3+uvv/7rr78GDjgvGo+M5RVWkDrEChnS3S9QCPKHAAPVcDgcCAT++te/du/eXRAEonyetg8Ezx4cmCXAEFGsf51yyilLly4FzQMHRnQ6TdMiLMDsjJH7Q9JEAoz9Gji87dxzz7UNAYbq7Ha7R4wYQYfeJTgdGc7GCXDuj50Mt5ATYAOA02zMCbAB9HgRGyPACbDht/N/C7JkAy9scoEje/qePXtOPPFEslLCqGIhqaIJlI7hPf3003ft2sU+e6o4tleeVhOwORPm0HA4PGnSJFihYQ2AdYLgtQSwWA0BuxgwYMBLL70EACAzUKNxhVwJ2kOo/Wvp7pd8I8B4XlgeZFmePn06iK4kSZA6r9cL85Tb7baWHLY7WNjxjgxYshME4Yc//OHnn3+Ogen3+2VZxspUaWkpSmFIRtfQ7o1y5KJZBJi1EYXD4XHjxtmDANO+d6fTOWzYsFAopGkarUi2PweZcZUT4BwZILnTDE6ADfQFzcZ4N4miyC3ABmDkReyHAIYGVvy5BdjIS5slG6Qio6JAIABN8emnn4ZmTBqz5bRkiIgkSXCEvv/++6Pdv43AF7cMFCDStHBerizLb7/99sCBA2H7hWpOU7wlhqgoirQD3OVyiaJ48803w8kWAgPnLjw+XYkL1fd+ZGXyez+Y9CXfCDA0fmx313W9vr5+8uTJbreb7cfi4mJ2OcYSchirke2OJjhZOJ3OCRMm1NbWQkSDwSCklBNgAIKhAT/qiy++GM72sXC2ynWn0wmRcDgcJ5xwAmLy07Rs0qTSTjWcAFtFQjLWTk6ADUBN8zknwAbQ40VsjACGBifA7bx9E7zEkg1oP2AyqqoirFFLS8uZZ54JGRJFEdtWyQBoFdmiDcCCIPTu3XvNmjUZIMDogmAwCCsooMbmwyuvvFIQBI/HA+sEjMBWARORwMEoYDk8+eST169fr+s6nSalaRqlExRFysbKJF00PRHhAk1vWUv0QlJ7gOF6gI2dSG/ZsuW2227Dk9JYpoQlEDDQSLJy/+xnP9uxYwetCOi6zgkwLVrhLRAOh3/yk58YADkHi9DsKknSgAEDEBPOwMJcslMQJ8A5KAzZbRInwAbwp1czJ8AG0ONFbIwAJ8DJvpQj80eTDSyQh8NhvL8/+OADUDX4u0KJJJXCErIliiLO7MGD3HDDDWCh0c8eiU5q30nHogTVt2jRooqKCjL/YlnBEmBSI2EwdLR9vonpNXPmTDxdhP8z2ZTo2TtMpLtf0ID8IcCappGpE24I4XB4x44dZ511FnoT4mfFjegkjYkkPB6Py+WCG8jDDz+MbcBY7+MEGARYURRM+4qiXHfddRjjiWCby3nItUEUxS5duuzcuROrnx1ORClm4AQ4l6UiK23jBNgA7JwAGwCNF8kHBDgBTvEdHRkFmgy/0Avr6+tvvPFGcuUzRg4AACAASURBVNZ1uVy0CGch8YICVFBQIAjCgAEDqqurEe863USLFhGok2jP4aZNm84//3ysKcCgajk8iTVhNeTEE0/88ssvofPBl17X9WAwmLMEeNu2bYS/5Vw9k7IAa5rW1NQEv1Y4I8D/88033xw9ejTO9KYlGHtwHowmuAaR/sT2cu/evZ955plDhw4hJBIPgoU5igiwruu33nqrnZwCsHTr9Xo///xzA5MSzeGJJzgBttBLLTNN5QTYAM40gZPyyfcAG4CRF7EfApwAJ/46bj8nSwIRHxVOkvB/XrduXWlpaWFhIagCqA5UZExGlhApNBhhb88+++xgMAh6zz57++ikfBUGN1atRJzkb8Ji3XfffRaNMYOuh1S4XC7sBxZFcfHixQcOHKDDtNhEUkBmoF90Xc8fAgxphxsCRbbDIsWLL7541FFHYYULY5mYsCWGdpxGEvulBCzAXq8XJ5n37t178eLFEDaKiY25Ij+PQUKsPtA2Xddvv/32goIC0j7jQG2JnxD4TRTFTz/9lFbokpqXks3MCbAlBCOTjeQE2ADaNAVxAmwAPV7ExghwApzsS7mD/M3Nzbqu43QQWZbvuusua3k7tyvroih27txZEITOnTs///zzxARiYcESsETSseqh6xGVYIlhw4YNp5xyiiAIxcXFrCmy3UewxMVRo0bt3r1b13U4l36jQzc0NBAIuZOA/QcEGMDSK9YSOKORFRUVW7ZsMXzWFFxedV3/05/+1K1bNwRIJ4ufw+GgqFEwnNpgHgButBNYEIRBgwZ98sknuq5jDMJJxFrsFw9VXV0NqaYFjuhtFx0OQBjD4R2gKMqyZcss55zS7viF3owu9nq9c+bMMQBOh+hFZwABnjt3LuQKgmfFqaZdVPlFAwgsXLgQUoElmMx4IkTMCeFw2FrnALPaEY4gGTZsWPRwy4Ur/BxgA4OCFzGMgCkEON0DJ6fPAWYfHmoBguXour5x40YKf2W4h3KkIFSQcePG1dTUkP8zLN7Rf7GLNfG/0TXgClsDmwevvf379//85z8HzfD5fBayqMfq0/79+y9ZskTXdb/fj2cMBAKZMbawYtxhGm3jBDgYDMqyvGfPnt/97ndHHnkk7MAejydCR5ckCbp7rH63ynXYM2HjRRBsQRCGDx++du3anj17frOPnfg/q3JZ4ulMIcCsaq6q6ooVKyzqohLRZehxCLbD4fjlL3/Z4RRhSgZOgCM6gn/lBNiYDGAIYylWkiROgI3ByEvZDAFOgE15U/+3EoS/am5uhilgwYIFxcXFEdqwFQWInHV/+9vfgvzAxG0mdobqWr58eZ8+fcgIbEVs2Ta7XK6f//znjY2NrPMz/G8NwZOuQpwAE7LY6dDQ0HDnnXeC/pWXl4Puejwe9rArtqMtmoYWhZUml8tVWFiIye2SSy6BmzS70YMlw7n/vKYQYIwLcpD517/+5fP5SPXMfRDitBDrHXDvv/jiizMZBItbgOP0S779xAmwsR4n8wC3ABsDkJeyJQKcAJMqa0ICXKW5uVlV1b17944dO9YeLnAVFRWCIBx33HGrVq3CPjdQfdYqy6blJD9sWTbNVhNmPoqiwAt6//7911xzDWJTW0vhjjWbHHfccTiPOxgMglwh6pIJ0mleFZwAE5aKosBEv3HjxmuvvRZ+zphVHQ4HySTiqMfqdAtdh/5EpA6no4EX4dkLCgoQKdpCDyUIgikEGFKB0aHr+oYNG7p27WotHGK1FhuAi4qK8CJATDgaBWlKcAtwrO7I2+ucABvrek6AjeHGS9kbAU6ATX53a5qGPWCvv/56SUmJbTb+SZJ01113NTU1YTsuVBOTsUusOjKzgBm+/PLL3bt3FwSByIZ1R6woioWFhffeey+esaGhgZTpxLDJUC60irtAY4UiEAhgOWbdunXjx4/Hmper7QOXM2wfwFRrXeEk9zmYeWm4Ycevy+UqKCjAzmdsh7bWk5pIgMk6WldXhwBp1oKi3dbClwEEuFOnTp9++mkG5hpOgNvti3y+yAmwsd4HAYafjiRJp556agbGr4Fb8D3AxvqXlzKGACfABgZpzCIgh7IsNzQ03HzzzYIgkA+kse7JnVL9+vV7/fXXcfwvfPyyyIHRAVho2LZtGyzttMaZO6Al2xL4GY4cORIbrVtaWvCMMQUuSz9wAgzgNU2DKwTcInRdf+edd0aOHImdnwgaZKdJgHa0iqJYXFwMxtvuuCsqKrIW4TeXAGNuPHTo0KmnnmotHGJNWVjJdbvdkiS53e5HH300A3GwOAGO1R15e50TYGNdzwmwMdx4KXsjwAmwmRwC59aqqrp8+fKBAwda0RLSrrh7vd4hQ4ZMnz792Wefffzxx5944omnn376ySeffCLG589JfmJU8wRbzZ+Yz1/bPk8++eSzzz77xz/+cezYsW63G3a2dttvlYvOtk9FRcXvf/97WZY1TTN2DrCZMt1eXZwAEyrkC4pES0vLm2++2a9fP4gc1A78JZOpVaQxup0Oh0OSJDwODMKUB17QbrcbTMlyD2sWAcbQADmUZRlTE6Fk0QS0BPQp/NsvvvhiWvqhsWB6ghNgiwpM+prNCbABbBEolGZsURS5BdgAjLyI/RDgBNjMt7aqqlCApk2bhm1y2DJnA7mRJAkMEwpufNduKclPLHwosk5EBvbukiRRjK6IbFb8CpAvu+wyOhAYEmWmmKZcFyfAgBCkV1GUlpYW1iHiscceQ1DowsJC2i5rA0sg/FmcTiforsPhcDqdeC46ogY/ka3YKmPQFAJMx6VQ5PZLLrkEs5NVcGi3naC+8H/2er2SJA0aNIiOakt5OolZASfA7XZHPl/kBNhA73MCbAA0XiQfELAGAYZrccz3pKk/sEfOxq+43ZyKotTV1R177LE4E8U2RuB8GAy58IwgwF27dn355Zc1TUs82jYrjWw6vgwb+xUEuLa2lj3thpheLsDYYRtEUaysrMQ5wMZAiF/q0UcfxSpQjx49wAZtsxuiQ2wtl0EUxWXLluFgZ5AudgRFp2N1PcZFKBSSZVlV1XA4/NRTT1kOjXYbTKMbNNjn861cuVLTNKwB0Wb46Ih9LHqxcIt1HYb0P/zhDxg7WGShlrTbTn7R3ghUVVWRewU226dpgThCbnEXLGypqrpw4UJr4Qy3HdoDHH0MUsTzxhqS7V5HWfan6Cvsr7HSmqY9/PDDaCTCSdhg1dhacpJvrTVMgFMZL7HkP9Z1wdhwilVd/OsJPhibLWIKrqqq6tSpE7gBf1vn24hK5XkpVjBCjiGceILbgCMEkr7Gl3Zjv0Lg7USAI4awMVioVDgc3rVr1z333INtwD6fz+l0cgKcytBIa1mzCDA8gBRFUVUV0eyXLl1qg60Z0BKcTic2AKMv7r77boSEwJlttCWYdYUgioLpiAZIgglOgNMq9lasnBNgY73GCbAx3HgpeyPACXDku5iYQxydmM3Dvto1TWtsbDzjjDNg/OHmX3sPnnQ8nSRJYEpDhgz58MMPdV0nd8pISf3+92iZZCXz+3lT/cYJcHwEwQHq6uquu+46mH9hN0uHwPA6U0fALAKsKAqZQLFutWHDBiyGpt7ILNaAZVyXy0X+7YIgDBgw4ODBg5qmgabSg1MCY4Sdl+KPmuhfOQHOYqfn5q05ATbWL5wAG8ONl7I3ApwAR752E3lhs3mQplqWLFni9XodbR+cT2tvAeJPZy4CoiiWl5fDfWDGjBmJR5qJlskIySQRTT3BCXCHGAYCAU3T1q1bd8EFF2AeYMmDuTLDa0sRAbMIsKZpOApe13V4Be/bt69///4pNi/rxaEl0H4HclT529/+BvMvvMdlWY5gv9wCnPW+s1kDOAE21qGcABvDjZeyNwKcAEeqsiyRiPztu+9sHjatKMoNN9wgCILP58NxoBR5z95ixJ/OFAQomheizowdO3b9+vXfCV0H/1k5ZNMdFDP0s/0IcITfpiFUIguhznfeeee0004TBKG0tNQUIeGVmI6AWQRY13UK2w4C3NzcPGrUKNMbnPkKoUDjdSaKIvy6L774Yhi6IeqhUAgHYrMjIZW5iFuAM9/ROX5HToCNdRAnwMZw46XsjQAnwOzL+tt0Ii9s5KHMattHUZS1a9fiBBToB3zXn70Hj+lPh3UThE+TJKm8vLyqqiraqBIpsm3fWbll0+1mTvGibQjw5s2bAQXFb08RGRSH4i7LMuyBb7zxxpAhQ0yXFl6hWQiYSIBlWVYUBQeY6boeCARuv/12s9qZxXrIfwEJrNB16tTps88+o0Ow292vkcpcxAlwFns8N2/NCbCxfuEE2BhuvJS9EeAEOFLjTfaFjaMvFEWRZfmOO+5ApEocEAItwd4CxJ/OXASwdOJwOCBIF1544Zdffhkpo+19Z+WWTbeXN9VrnAB3iCAoEDzYZVletGgRHQ5srsDw2lJHwCwCjO36CAFNiyAvvPBC6i3Mbg10qh0dbUCH4d19990QcnreCGeKVOYiToCz2+85eHdOgI11CifAxnDjpeyNACfAkapssi9sRAHB9qcjjjiCXMVg/qXNwPYWI/50ZiFAjrLl5eWiKPbs2fP999+PlNH2vrNyy6bby5vqNasTYBy0UFlZuXnzZmAFq12quHy/PMy/gUBAVdWmpqYZM2aYJSS8HnMRMIsAwwEYBBhjRNO0zz77zNzWZr42rOQiFBb+knNTjx491q9fTxbv6Ih9qcxFnABnvq9z/I6cABvrIE6AjeHGS9kbAWsQ4O8rltn/Bq/UAwcOsCdAzJkzx96ywp8uAwhIkgTrChTNkpKSiy66SNf1cDgcCASgXzY3NyPqTHZHwrZt2zIASJpuIYpip06dQIBNh5FV+tk0PEQ8Hk9BQYEkSR6Px+FwcD+RNHVxUtXiHGAyY5o7vmD8x4hGq2xwNpIgCIhZMGnSpHA4rGnaoUOHIsy/KY4sLCLMmzcPN4L3tdPpxAIW/xsLAWzVppNU6UyKpEZEbmauqqrCSxA6mLlbV2KJK7z8yNVfluWqqqrcxKfdVkHLx3kEkI3hw4fHetjsXp81axZaK0kSiXe7D5WDFzGrs65etHMkqdbiwRMpQhCxiTgF2WyUpvx0BQm6HivRYbZkK4x1o4jrHd6X8ieSE/p2586dX3/99ewKf6y7C7F+yOJ1vJtlWQ6FQpqmffnllxdeeCHhzhMcAcMIQFH2eDx4E3Tv3n3Tpk309kWgHVDiLMq/ruucAMfCnyW9bLq2tvbKK68UBAEGNK/XC0d3w6LCC5qFQFoJ8OWXX07ho5Cwx6oHZqqBAwcuXrwYETGwNhdrXCR7PRgMKory+9//HsERMFjsAZ1ZcttuPQ6Hg11tgci1m9NyF3OEAC9YsMBC0HECnJnOkiSpZ8+e06dPv++++2bPnv3QQw99w+enTZv2YIzPAzE+0777RPz+3eX//qdaI65HlKKvEdnoa6wMdD1WIrqGiJyUAYmIXw1/pWojaqDrSBA+Edno6+zZs6dNmzZ79uwZM2ZMmzZty5YtqqoirGOyr6q05s9FAow3vd/vh6Pjyy+/XFFRkZlhxu9iVwSwZo+nczgctHw4Y8aM5uZmrENj5aXdeDNpHYTRlXMCHI0JrrCkl03rur569eof/ehHLpcLhiysPtpVni30XGklwE888QRcEEHenE5nBD+xEFBsU0VRdLvdkiSNGzcO/lCBQMBEBUKWZU3T/vCHP1B4fBzF5OSfuAi4XC7iPDD/IigJ23cWTWeLAMM3hDxEOAGO9e5L8bqlLcAOh+O888776quvmpubVVUFO2hqakKU3Oi/4Rgfpe0jx/0gT6ycqDi6gmTzx2jgfy+bVVt0O3El1t1j3ZetB3k6zNnY2BgKhRRF2bt3L9ZwUxTgdBTPOQKsaVpLS4uqqsFgEJ107bXXWvSNwpudOwiQ0xqa5HQ6wZROPvnkTz/9FEFl8Q6Gz2E6BlvidXICHAsrlvSy6UOHDmmatnr16mHDhlEYIc6Bc2EAppUA19TUYG9/QUEBSCOdqZsLz264DaIoFhcXu1wut9v96KOPYgu0iUZg7MyfO3cufAuxfMAtwIb7ywYFs0uAKcodJ8Cx3n0pXrc0ARYE4eKLL6ZjO8hWweoAiaRjYQgKHV0Dm5/9lb0eKx0rP3s9VtqsOhOph21DrPyJ4BNRlvbsQK+GOTMiT9a/5hwBxlIBHLR0Xf/oo4969OhBa642eM3wR8giAggBDXEid+jHHnsMG84xGk3UMg0Pb06Ak4WusbERMfNeeeWV/v37I0KePYyBWRwvptw6rQS4oaHhuOOOEwQBBBhLHjbodxwILIqiJEn9+/d/+eWXzd07jfE1b948n88niqLP53O5XKDcLv6JjYCH+cDdQJIkeywcZJcAcwtwsq+8ZPNbnQCPGzeuubk5GAy2tn0QHDeWJTPW9VjWy+j8rM2TTSMneyVWncgTnZ+9Hn1fXIlVZ7K1se1k08buy5Zia4tOBwKBYDAIQ30gEKBQjskKbbrz5yIBxiZMLEvce++9giDQIa6mKGS8kjxEgIyBbrcbPpOkJU+YMGHnzp14Aeu6jqNH0j3w4tfPCXB8fNr9tampCdfnzp3brVu3PBTy3HzktBJgv99/4403iqIIv/fcRMBAqygWtM/nkyRp5MiR27Zta1fsU7k4d+5cvlXeQO+wRbBIwV6xaDpbBBiWIk6AUxnIiZS1NAF2Op3nnXdehBWRNV1GpKOdonEFQEVkjvjKghnxE/bKIT5cxE+xao5lO43VwvjtTLa2iEbS11h3j/UUVJBs7x3mRAbSq3PTCzrnCDA8Yfx+v67ra9euPemkkyiwjUXfK7zZuYCA2+2mdXqy/YIJ9+rV67nnnqOBSgkM4Kz85QQ4WdgVRfH7/Zidm5ubf/3rX/fq1Qv9mwvil89tSCsBlmX52WefLSwsFEUxYmHL0ph7vV5sMXW5XIWFhZIk3XvvvZs3b052XMTK39raKsvyvHnzysrKCgoKSkpKnE4nIqjT0cQ8EY2AIAgwD8Pw6/V66bViaXkTBCErBJjUYqLBVVVVFvL4o6Zi8hFFkUeBTsdAEEXx7LPPjiDAiqLEInKJX4etlfKzTI/S9CslIkrRdRShr5SIdZ0ydJhI9o4dVphghoj7EiYdPhGGNsa1qqqKopAHe6y3Uuav5xwBhgrb0NCg6/rjjz/OVdh0zCb5WSeMKqQowyaMi1OmTMGqHoYrVmEyPxrpjpwAExQJJlpaWhDNe//+/djRPXHiRD575MJITysB1nV9w4YNnTp1wgZgURRtY9Ls3LkzBbh2Op2lpaVPPfVUgsOhw2zYVPzSSy8NHTp0+PDh55577qhRo8aMGTOaf+IiMGrUqHPbPmd/9zn55JN79eqVCwMtxTbkCAFeuHAhscoUnygDxampnACnFW2n03nOOedg1gqFQiYGamEZXYfTJmVAKfqagUTm74iHMoYPlDFivIFAIBcMS9HdlHMEmA6hOXjw4IgRIwRBsMfbJa2zA6/cMAKwrhQVFX344Ye6rsONNsLNI3rYpPsKS4DpFWv4GTNZEKfDVVZWbt26FShhTSHdiGGaxgsSf7/66qv/+Z//If8Rh8OBnRQ4JTiTmOT5vaqrq2kZmBImyoPf77/66qspzHtlZSXtbrAf8i+//PLOnTuxuE7qRTAYZM9TJVcIE6NGm9hflq4Kahy2yYTDYTieDBo0yAaStnDhQnb9NzMvQZJbCLPlzgGmkHt4TYuieOqpp+amhFvaBVoQhDFjxkBIMAYzc051bnYlb5VZCOQcAdY0DVGIXnzxxd69ewuCQKe22uAdwx8hNxHwer2/+93v4BPS2tqamXd/nDFsaQIsCELmCXBLSwsiMei67vf78Y5cv379ueeei016xcXFcF/EkkduyqEtW5VuAqwoyrRp0xDNGNGwbAkjHqpXr14vvfRSKBTCQQnYKxQdHyvU9okzw/CfjCEAtRuumLIsq6p6+PDhI4880gYixwmwsU7EchsnwMbQS7wUJ8DGpixeKg4COUeAcQprc3PzhAkTCts+giAUFRUlPk54To5AsgiIojh06NCNGzfqun7w4ME4AyYzP3ECnArOsizTZqG33npr6NChoL7wfscJWMlKCM9vGIF0E2Bd199++204CiEWtI0twIIgHHfcca+88goW6VpbW7FdCGQMsTcxdsg+nMpQ4mWjEVAUBT4mra2t4XC4ubn5hBNOMDw6cqcgJ8DG+oITYGO4JVuKE+DouYhfSRGBnCPA8Np67733evToQfGfbbOtK9kxz/OnGwFJkuC1+43dcv78+eQFneK4SrE4J8DJAghXOjIC41wr2MdeeOGFgQMHYh0NG79tE7cm3aPDlPrTSoDhtFlfXz9u3DhBEEpKSuA0ZErLc7ASl8slimK/fv2efPJJClVAdmAKKYThwzlwstNIIvkjrOsHDx48+uijc1BUkm0SJ8DJIob8nAAbwy3ZUpwAJzI78TxJIZBzBBjv7ClTptDkws9ASnam4PkTRwCxK7DCcskll+zfvx+O0EmNItMzW5cAA3nWBTozwQ/gEQoCAGJAwRtUVV24cGH//v0FQXA6nYWFhYmLB8+ZOgJpJcA4DVLX9QceeID2e9t4gQMzlcvl6t69+69//ev6+nqEfAuFQuT1QJgQQzZ9gsrbCml/dTgcRrquro7vATYsD3wPsGHoki3I9wAnixjPb3sEco4A67q+ZcuW4cOHIwDmN9H5EQwzdT2M18ARiEYAujIOB+7Wrdvf/va3XBjzVifAFRUVCIKlaVpmCDAFzwMf8Pv9sA0iOnQ4HH7ggQdAHrxer7XiikULrbWupJUAa5oGf9S33nqrT58+rEOHtVBKvLVFRUVutxseDRMnTly/fj3cphAcFfuBOfVN0zQOYYODCW6xfft27gJtGG1OgA1Dl2xBToCTRYzntz0COUeANU2bOXMma6XhFuDEdSOeM1kEXC4XlGY4Mk2YMIHvAU4Ww+j8mSfA4XA4GAwGAgHsjVQUBQlN02AZq62tvfXWW7t27Up2wuhm8yvpQCCtBBjHLei6vn///quvvloURRubf6l3nE6nKIpOp9Pn85133nkrVqzATmA2GpaJJ4XYXg1K6gFx+iicTT7//PMFCxZUVFRQ11g3wV2gjfUdd4E2hluypbgLdFLTFM+cCAI5R4D9fv/ZZ58NZ0WXy0UnlyQ7Wnh+jkAiCEBjdjgcbrfb5XINGDBg8+bNGTNaxhqiNrAAb9myBTpiZsDENkhZlunoFzp4XVGUxsZGXdd37dp12WWXISBWIrLB85iCQLoJsKZp6P3f/va3djoHuF3w3W43FG6K5eZ0Ort37z5jxozt27cjhAF8H9iNwbHmGX49WQQoysDevXvnzp3bp0+fsrKydnvKchc5ATbWZZwAG8Mt2VKcACc7WfH8HSIg0E65iKNf2OtsusMa42Rg69E0Ddt9g8EgVGRorosXL8aBJYj8zM2/yU4TPH9SCNDbi3yhb7/9dsgwAquSiQlub6wMxxF1wz9hGNbW1tIBg2wiqUfLVmZRFEtKSnbs2EFTCiUMw9JuwUT6AvshydFuw4YN4MAOh8Pj8WAHuNPppES2QLPrfUVRXLJkCQ0icLN2e9PYRfj6wsi/Z8+eH/zgB9g7g2hniPsNbB0Oh72Nw6NHj37++ecPHz4MJAOBAE5LwujTNC0UCuFVS/4R6Bea6LBixQ4rShvrHZSiSuLMA2weNp3KfSPKqqqKJ0X9+JWgoJsiG4CClhLR7C1btsyePfukk06CXMEab4Pxu2DBAowmKGYRTx0BZipfCWpK4HApzNLz5s2zEJi0mwZvEFEUhw8fngo4CZYl6CISsYprmvbwww8j3ieOTKeWWwXt0aNHgyPgJWLuq4SFMRaGuXA9k+1k78WmWRzY62yazZNKOh11su3JGgFWVRWuRJj7aOa98sor4ZIKZQWnO4KlWGWg8nZaCwGp7UMhx0877bS6ujoKoEqehMFgkN7TGJbsQDIrDbWDE+BE8ExwcsSbkpjw8uXLzzjjDNAkR9vH9d2HR5s3feSmmwBjvMAuFwqFpk6dSj2LlSPiJ5ZT+JLtC1EU+/bt+7Of/ezdd99tbW3FCMKsRelAIAAviXA43K4GyY4pNp3IeIyVJ5F62DxsOladyV5naS3xfKpEURTsoCbWFwgEWHxCodC+fft27Nhx9913jxw5EuvyTqcTmok99JNsEWDy2+cEmASywwQ7Rth0rIKcAMdCBtcTwTB+DZn5NZPtZO/FptknZa+zaTZPKul01Mm2J2sEGA8GmqGqKmLVfPbZZzD8YjmNnBXtvXKfrKLD85uIgCiKkiRB3nCGSmFh4cKFC2mQwBSgqiqsTOkekJwAE/IdJhLsCyxb6LpOAWz+/ve/9+nTB/qr1+uFOPl8Ppp2TBSwPK8q3QQYZEbXdXj8rl+/Htu8ATsswJIkkcOwXbvD5/OB4ft8vpNPPvmuu+5auXIl3qrRYe0pXjRFzGIXo9lhRekOB2OcDFQJ0cvozGweNh2dM5UrqFlRFFmWYfv1+/3frJtQw6CKHDhwgHZSyLL8xRdfPP3001dcccWgQYPgnhYhRTSHRFy31tesEGD0JuGvadr8+fMttFZFTeUW4HRLO7cA08od5rFUZsJEyrLzMJtmy7LX2TSbJ5V0Oupk25M1AoxG4DWDg/W+WcW/9957KfizJEkFBQWYXzgBTvfkkrf1Q7SwhI93mMPhOOOMM6AjEmUilTHdA5ITYHZ6ip9OpC9gxqFVDOrQuXPnDh48GGZ/nK0KZ5O8HQhpevB0E2DqWYxQRVEuv/xyeonQEd9Op9Pj8djDUtduTzkcjsLCQqJnbrf79NNPv/XWW2tqanbv3g2UYOekEYHho7R9aKCxY4pNUwYDiUTqYfOwaQO3i18EZkbWugvn8EAgQF4/+HX//v1vvvnmHXfcMXz48PLycoLd7XZ7vV74qRW0fegnSyc4ATbQ0544RwAAIABJREFUfZwAGwDNWBFOgDkBjj+3G/g1mwQYXkl0fsm2bdsGDx6MWESw/YKckKORsWHDS3EE4iCAvYKCIJD1r6CgwO12L1++HJKJNZrm5ma+BzgOjOxPObUHmAhSU1MTFhfgHSrL8gMPPIDwrUVFRWC/JAzs4/B0KghkhgC3trbSeUgvvvhiUVER+InD4SDSSwM8lcfJ8bKSJLlcLlaMjz/++GuuuebFF1/88ssv6WwkTdNkWSazG+kNLPOMSFMeAwm2qljF2TxsOlb+ZK/DxE01U/HW1lZEIcGBbU1NTXV1devWrbvvvvvGjx/fv39/BAjweDwAlsQJrwwcIpDjUpFg8zgBThAoNhsnwCwaaU1zAswJMM3bZiWyRoDxDqYe1XX9iSeewPghQxy+skcipXWA8crzEwE4sLlcLpyuiS3BV155JZwqQX1xvg72A0drUWaNRgwHXdf5HuBEIKWOiFbl2eIw7NCmR7/fDyawZ8+eyZMno9PxNx84UobHeLoJMLoeUb4xPPfu3TtmzBhWMUWarmQYgczczuVyIbYN+XtTaDdJknr06PHDH/7w3nvv/cc//kEGYYwRig9HX9lhRWl2QCWbpkrijFM2D5tO9l7x8yOoFU0FeHZFUVpaWrZt27Z48eIpU6acdtpppaWlbK8RsAUFBYgaQNgimz3mDU6A2U5PME2zCmSAB8FKEDcD2TgBJrqEGTL+XJf6r+w8zKbZmtnrbJrNk0o6HXWy7ckmASZfLF3Xt2/fPmbMGIwKClWHr9w10cBkwYskjgA87SVJohhIbre7a9eu7733nq7rIEvYMMaOxjjKHDvAkk2jWk6AE8GN7Y44+elwYKi/sH0dOnRI1/VNmzZdffXViDuQuMDwnIkjkG4CDL8MGqQQg+eff760tBS6KXb4Y6s/a75L/BEskRPEDHZvvEDxt0uXLrRD1eVyHX300ddcc820adO++uqrQ4cO0U5XhIP2+/3smGLTccZXhz8lUg+bh013WHmCGZqbm+m8CRQB7/3kk0+eeeaZm2666ZhjjsEqGEy75eXlRUVFsKWT2BDbgUjgzC0qZQk5idPIrBBgvO+gCvIgWAkKcwQRSmS88CBY8bFNBMP4NWTm10y2k70Xm2aflL3Optk8qaTTUSfbnqwRYGoEQlAsX75cEAR4n+J9g8ismK/pDRRn+uY/cQQMI0BL+F6vl5ZyH3zwwaamJgRPgobNo0AngnBOuUBj0y9C3aiqCmswehM/ffLJJ6NHj8bB4xEKbiIPy/PERyDdBJgCKAaDQaJzwWBw0KBBsOPRNmDaGBy/wZb+lXX5Zh/c5XLR6h4IntvtPvHEEydPnvz666/X1dUBunaX+aCC0PvaQCIRJYbNw6YN3C5OkXA4vGvXrrfeeuvBBx8cO3Zsz549WcdmGM8x/2MpAYHEoZawR2ohJ00X9ohRki0CDN6LTldVlR+DFEeA6Sd2jLBpyhCR4AQ4ApCIr4lgGFEkK18z2U72XmyafXD2Optm86SSTkedbHsE9kuG07Rra/fu3ZdffjnWUy2tf/DG2wYBSZIGDhxYU1MDExPCzKbJ6hs97rZt20ZIkppFV3I5AbW7srJy8+bNeK6MgRYNY5wr2PIHPvzxxx/jYCQKdQN7GigTnaOTy7Dnctuqq6th4aFwxPgap3dS/2nx4sU9evQQBIHsnzyWRISQgONJklRZWXn22WdPmzbt9ddf371798GDBylWHGxNEQt/iSgliK2FHo9VPH4v46BE8lKmSkiK4heH886+ffvWrl27YsWK2bNn33LLLaeddlplZWUEDvwrEKiqqkLEBKwPZmbeRv9SIBhZlquqqqzVI7RiDjeTYcOGdSiZWckwa9Ys6BKsn4iFoL7ssstgkAiFQsFgkOKSphVMdq5LJJ1sY2LVSdMdMiRbreH8sdpjoEJFUfAeaW1tVRQlEAhgejFQVfqKZJMAB4NBTLWrVq068cQTYYSx0IDkTbU3AkVFRYsWLSIv6PQNwuiaOQGOxsT0K5qmtbS0aJrW2Nj4pz/96ZRTTiEnFBJsbP+jrzxhAIGsEOAtW7ZceOGFsHaSfwclDDyFzYqQyzT7XE6ns6ioqF+/fuedd96UKVOef/75devWQemMRYdwnhCpa2CtBhSdlpYWv98f4aVMN2XVMtyCZgP6Cdc/++yzJUuWzJkz57rrrhs5cmTfvn2Li4tFUSwqKmLttDCJ891VbO9zAsyikXiaE+DEsTKc0+fzjR8//uuvv6aBT8s0NAMkkqDiaUrEakOyt6N6EixI+SMSsYpHZOvwa6x64l8PhUKKolCvGXgvxK8/9V+zSYCbmpqwSHDfffdhnd5axi7Dg5kXzH0EoC1deOGF+/fvVxQFyhn5WKY+8OLXwAlwfHxS/xVGyEDbR9f1lpaWBQsWHHnkkaBMsPo6HA4EpefEKZUBmxUCrOv6okWLjjjiCEEQ3G43HIBZCpTKE9mprCiKYIMIo0VeDx6Pp7CwsLy8vHv37r169brxxhsnT5788MMPP/fcc6tXr66rq8Mhw/A8j9ZsQqFQuO0DhkznDNPIJdPuN8cfthuSGoc2Yd9+c3NzfX39V199tW3btpqamnXr1r366qtPPfXUrFmzbrvttgsuuOD444/v2rWrz+fzer041Qzey862D41f2Oi4mtGuAHMC3C4sHV7kBLhDiEzJMHDgwPvvv//hts+sWbMefPDB6dOn42v034difGbF+ETXYO6VGLeNeTnZu8d43IeSrSfZ/LEe4KGHvr31/fff/9BDD02dOrW2tjZxzx09g5+sEWBFUXAeyebNm0866SS8d/leX1NmCl6JWQiUlpa+9tprcNCiuOUZGJ6cAKcbZHKgCgQCWEvetWvX7NmzyUmMXGf5pJTiaMoWAd66deuECRPQfThKgIhQik9kg+IUFSyCDRINZp8RuCFMYElJSefOnXv06NG7d+++ffuee+65F1100cSJEydPnjxz5sw//vGPzz777CuvvPJO22fFihXvvvvuypUr32v7rFq1auXKle++++6KFSvefvvtt956a/ny5cuWLVu6dOmTTz75+OOPz58/f86cOQ888MDdd99922233XTTTT/84Q/POeec008//aSTTho0aFCvXr26dOlSXl5Oe3ShOUQ8BfbrsjuivW0fj8dDOxqwj5d9zDxPcwJsTAA4ATaGW1KlMMCPOOKIwsJCj8eDbfkUlR3+LKn8xUpZ9F+cCZL431htiK4ZV2LlZ6+zd0+2nmTzs/dl08nW43K5fD6f0+ksKyvr2rXrsmXLohdJ063jJVJ/1ggwOTItWrQIL92ioqKI11hSI4Rn5giYi0BJSYkgCNdff30wGCRnvEQGVep5OAFOHcP4NdAh5LquNzU1wba/d+/en/70p926dRMEwePxgDtx1pTisMoKAYZ98oUXXsBOYPZo3BQfx07FoVrhtQvSKDIfUESPx0OLQeyzE4WO4KKsugYVyul04pA5+FPgdR+xrlRQUOBp+7i/+yA8FUhstGKAg4hoGzNlcLvdRHHRWqfTyQYAw0U8LJcKtkM5AWbRSDzNCXDiWBnOiY0M0S48zHT1vWSsG30vE/Ml2fxM0ZSSHd43VoYUr8dqdLLVJlKPJElLly7NpAEpvu7H/po1Agw46urqxo0bh92/xcXFyaLP83ME0oSAKIogQn379v3ggw8oSio7eNKX5gQ4fdhSza1tH13XVVWFN4qu61988cV1110HnQbqOxTxNIlZPlSbFQLc0NCg6/pXX3117bXXIrZZBOPKB+TjPKPb7WYBgR4TJz/LcpEN50sRQUUNDocjIuI0WWhBjD0eD2gwMVjU3GGIMuxHKCgo8Hq9Pp+PbSpRcaLBFM+Zmk17GSgPWwNPC4LACbAxMeAE2BhuSZVyu90Y5i6Xq7i4uKioqKCgwOl0frdcFvkfh8hE/8UqW/Tf6Jy4Ep0z/pXIdhj9Hn0X1BSrnclej9WuZOuJbieuFBQUFBYWkom+uroax6mQ9pUjiawRYBxJ8tRTT5WVlWGbFvs+Tmps8MwcgXQgQMznrrvuQiSYjA1aToAzAHU4HIadEIegkk9KdXX1uHHjoNbwSSn1kZUVAhwOhxGZadWqVeeddx7WWHlvRvSmKIput9vr9RYUFAAc8FiQW3LSA58ERyUCGYszo2z0jWLlR076FWoued/R7SIqpOOLQHEpGxUk6htREF/xRLY5wrfdZ0z2IifAySKG/JwAG8Mt2VLsGMeyGi2uYfZg/8aqnPVPYdOx8rN1Zj7NthDpWO1M9nqsZ0m2nugWUjsxkyOoCghwBpS6ZG+RTQKsadott9yCyKs4sxE7tZLtA56fI2A6AvD6w+rM8OHD9+zZg2guyQ4wY/k5ATaGW+KlmpubYftFdH64uKuqClP/q6++evTRR8PohBncdAHLnwqzQoB1Xa+vr0eosylTpoCVcQJMUgfthHRKXE8w5jmrPKEgXaH62QT9yt4OF0l/ovyUmWqmBGtzpvxQgqmeiFvgOi1mgdKzedh68jzNCbAxAeAE2BhuyZZCzHascMFmVlBQQNNFigmaQFJMxGoGLcxFJGLlj+b28RsWq55YpWLlj3U92XrQudh74vP5li9fTgeeJa6kZSBnJggwMQdZlqGRhEIhTdPWrl0Lt2dsyOHaSbIzAs+fPgTIgIAdZVOnTsWRmHRiISQZR+mYPlBZApy+Z0xTzZIklZWV1dbWgmGaDg5VyMbup4upJ/x+v67r1dXVgwcPFgQBq3JwwcIeJIfDASdMqD5pgtEe1YqiuGzZMkgCDZkM7KjHLWDhP3jw4IQJE7Cvm3aRUaxgNlSSPTDnT8ERMIBAVggwvVURiVBV1YULFxpofBaLWIIAa5r28MMPg95gnYsvA2VRZvLh1hAwiNzKlStppKeuoZlYQyYIMB14QHHA4G04bdo0OnQEhxZwDpwPA8MqzwhdGQP4kksu2b59OwYeDjeDjyVOCTZdoecEOJE5Lh0EGHpYOBw+fPjwwoULu3TpIggC/FPgL0qBc8hr1CrynJV2ZpcAozdlWV68ePGQIUOAAJa04OIhSRJR4qzgw2/KEcgRBDgBNtYRnAAbw42XsjcCnAB/q8QSN4DVl0KBbd++/eijjwYBxgzSYRgMe4sLf7pcQ4Bih4qi+M1hmE8++SRYGbRqTdNoQYcSidC2RPJwApwISukgwNgPHAwGcTjwvffe6/V6MZVjx6DL5YIvlsvl4gt2HY7Z7BJg9Kau64FA4Ne//jV6ENZ7OikHK1wdPgjPwBGwNwKcABvrX06AjeHGS9kbAU6Av1Viye05HA7DfRSJ+fPn0+Y66CJ8Jd7e48FyT0cCCaPfxIkTW1paFEUBAWZlm1Z5EqFtieThBDgRlNJEgDFBgQPv2bMHcQoEQaAw9UVFRVB6OAHucFBniwDD3RqrGEivWbPmxz/+MRyhMaJpOxmN9A4fh2fgCNgVAU6AjfUsJ8DGcOOl7I0AJ8DfKrFq24dW4qFcHjp0aOTIkYIgYDFekiQej9Heg8FyTwc/SToJUxCEwYMHf/jhhzg/VpZlWIBNt/2C+HECnC0CDN6raVogEMDZSJs2bbriiiuwWkdR+rj5N8ERnS0CrGka3jWyLLe2tmLR6t133+3bty+7lkGRKhN8HJ6NI2BXBDgBNtaznAAbw42XsjcCnAB/T4nFMjz+/uMf/8CiOw4DRIAZBHazt0zwp7MKArARIfYdpNTj8dx9990w9obbPiTfZG6iKykmOAFOBMA0WYBbW1uDwaCqqoFAAHb+zz//fNSoURBdOoOUmw0TGcvZIsC6rtPRZZRQVXXBggVFRUV412CM835MpB95HtsjwAmwsS7mBNgYbryUvRHgBPh7SiyZghsaGi677DJEvYIiAhVEFEVoJPYWC/50lkAAo5doMBKDBg3aunUrxJocoen82O+Je2pfOAFOBL80EeD6+noErod5HzbhJUuWjBgxQhAEr9eLzeF872giAzmLBBgdp+s6jrbC39bW1ltuucXhcDidTuzlxgacRJ6F5+EI2BgBToCNdS4nwMZw46XsjQAnwN8qscQT4DKqadqWLVskSaIYqrQAT+6F9hYL/nRWQcDhcCBUrMfjcbvdMP0999xz9fX15NIPX+hE2FpSeTgBTgSudBBguD0jel8oFIJtv7GxUdf1J554omfPnuDAmNyh+lhFnrPSzmwRYPg/h8NhdCheQzDp19TUDB8+HCuwGOB84TUrssFvmlMIcAJsrDs4ATaGGy9lbwQ4Af6vEoul96amJlVVw+Hwz372M0Bj7+7nT2dLBIYOHYrzkGj3b0NDQyJsLfE8qqpu3bqVDIxWHCzl5eXbt28HCVFV1fQgYYmDaVZOTGJPPPFE9+7dsYkU3IlOl6XjZKnjbCn/yT6Uw+Gorq6m4wBARLMoD2jA22+/3a9fP/gf0cIrlmLJMiwIAifGyXY3z29dBBYuXIj1vkwOUtwREwLOy5w3b561MLQEAdZ1fdasWdAlJEnCS8qKqoW1ZCOfWwvpgqTl7znAWIAPBAJwSPvss8/OOuusfBYL/uyWRqCysvKll16CQu/3+1VV9fv9ZrEs1MMJsLl4mlVbOBzesWPHzJkzwYFdLlf0yW0OhwOOtZYWchMb73A4li9fTgSY1kTM6pRk6wmHw4qiHDhwoKqqqmvXrnjSaKLrdDp5XEYTxYBXlfsIcAJsrI84ATaGGy9lbwQ4Af5WOTl8+LCu642NjbCYzZgxo1OnTvbueP509kbghhtu+PrrrzVNa2lpgf4N82Cyunis/JwAx0Imu9dB3nbv3n3bbbeB5ZaUlCBBHvKCINCeDnuPggSfTpKkZcuW4TgAHINH6az0pqIoWLHau3fv7bffjoBYJSUlsIp4vV7aGMz7McEu5tnsgQAnwMb6kRNgY7jxUvZGgBPgbzUcGH6hc+zatWvYsGH88Ex7y73tn27QoEFvvvkmZBukiMLtmKLTcwJsCozmVsJu9t6wYcPEiRNdLhfr9kyh7EVRRJQs2w+ERB6Q9gBjARRLRbR9wNw+SqQ2WIAVRQmHw5s2bbr66qvZ4IsRAbF4PybSxTyPPRDgBNhYP3ICbAw3XsreCHAC/F+FJBgMYlfJM888U1hYKEkSpgx7dz9/OrsigPOQQHrr6+tN1+Y5AU6EyWQ4TygU0jSNVjo+/PDD888/H/ZeR9sHQZVAmfj8xo79pUuXIgIiBWQ2fcgkLgw0bFHko48+wpYcj8dDveZ0OtGP3AjM9iNP2xsBToCN9S8nwMZw46XsjQAnwP9VSwKBgKIo9fX1V1xxBQ5WJVXD3hLAn85+CEAnHjZs2Jo1a3Rdb25uNtf/GQ6iPAhW4pQmYzkRQ1jTNJj9q6urhw0bBt4LT1pBEPgG4OghH02ATT83O3EZUBSFDuQDGV6yZMmJJ57IBoWm8O/cWSm6N/kVuyLACbCxnuUE2BhuvJS9EeAE+Fu1RJblcDisquobb7zRp08fCkBn777nT2dXBDwejyRJhYWFM2bMgNqN9Z3EVfAOc3ILcIcQZSUDCLCiKIcOHYIx89VXX+3bty9EHWTJ4XCwLrV2HQWJP5coikuXLqVjw7B2kMUo0IqiIC6j3++nPfzPPPNMt27d8FB4bSMsFo+DlXhH85xWR4ATYGM9yAmwMdx4KXsjwAnwt2qqLMtY758yZQrfUmVvic+Tp4OV7/zzzz9w4IAsy01NTeYq9JwAZ4Xfxr8pbV6F+244HAYfrqqqOvLII3E4MKyIeTIKEnxM2gOMt0DWCXBzczMWL/Biwt6cb/r0/vvvBwfGS4rbfhPsX57NNghwAmysKzkBNoYbL2VvBKxBgDXmE18FjP8r/MqoMlVVlbYPuMGGDRt69uxJaqLlOl4UxdLSUpgF6PxP9ikMn6tGBSMSbOWJpCOK09dYZSlDRMKs/NHhcJ1OJ6CTJIk8Rd1uN7ziY903N687HI6ioqKqqioK8xZ/dCT767Zt2zB9CIJAidyEIrpVoih27tx5y5Yt5q4LJIthZvK3trZOmzatoKDA6XQWFhYiLJbP54uGJW+vVFdXg/2S73EWXaDjSMVvfvObioqKiG4SRZF2AoMVRwTKisjPv3IELIpAVVUVVvcyeQ4wzv6l+PCyLFdVVVkLQKsQ4Icffhi6BLlhWk61sJZg5HlrIV3gF++99x4dhRjnFZz5nwSirKlrq4h0oigKWxX2Wc2bN6+8vNzhcCB0qoUkA0qPJElwh6OvFcynMoUPU833kslW2SnJT2eTPtG3Rcu7dOly5JFHdunSpVu3bv379x88eDAMLORVSO4A7S4o5KyESJJE4X9/+tOf7tu3Lx3HutiAAG/evBnzADsbZH6Cy8Adt2zZcs8990iSRMGToBLlrAxnuGFZIcB4ryXe+6qq7t+/f+7cuf369RMEwe12I14jsGIX6WjiyjCM/HYcgbQiwAmwMXg5ATaGGy9lbwTylACrqkoqr6ZpgUDg0KFDI0aMoK1xsKNape/RWprjwNaGDBmy//ufA9996pP8NMT4JFlNzOwHM/uhduzevXvfvn27du3asWPHnj176uvrP/300zlz5pAYwGhmxbhBxNiPOuoonIeEXYWJa9sd5rQ6Ae7UqVOeEGBYS2pqahDhz+Vyedo+VpnfMtDOLBJgehN1OOKwULt3797p06f36tWLYMFbvLCwsLi4GBfJIEx5eIIjYAMEOAE21omkHIqi+M2x58OGDetwtslKhlmzZmE24xZgYx3NSyWFQH4RYJb3wiaG8Fe6rr/yyius+TQpELOemUy+giB4PB647N5///14XtZ+nqzNAZNgdA3G6jFrSjWlPXTqCT2jrustLS3vv/8+bOl4VZAqCZCz3tcJNgAEGNGwbr31VtoOalYX6LpuMwKcOA8xEcPMVAVv3mAwuGbNmjFjxgiC4HA4yMM/QYmyd7bsEuDEZQ/bg1tbWxcuXDhw4EB0JU1NpObC1G/vLuNPl4cIcAJsrNNpZuAE2BiAvJQtEbAGAWbVRJb8sNcTSbNHO6qqKssy+UJfccUVZOiD/ximDKv0OrzYaQNznz59NmzYkAgmieRhMWfTiZTN5TxY/oD2SYsjTU1NZ5xxBno/+q8l5AEu0IIgVFZWCoJw1FFH1dTUmN4RVifAlZWVmzZtQu/TLi/TUcqRCsPhsKIooVBoxYoVQ4cOdTgc1nJySfe4swQBlmW5paUF9vwDBw7MmjVr0KBBmPOdTidZTsj7I92g8fo5AhlGgBNgY4BbkQAbe1JeiiOQOAL5RYBJGdU0DewXVz766KNu3bo5HI6SkhIYUQVBsJaCCEMlLfxPnDiRdjvTqZKI7xLLLMwy24g04RaRiMhm+Cs1LMFErBvFKo780b/i4BMEfZVlubW1FYLxl7/8pbS0VBAEBApC0KDEB1XWc9LaTUlJCdJ/+MMfErcyRfRyrK92IsCIhxfrSa1+XVEUv99PZ0G//PLLQ4YMybqU5lQDsk6AExmeoL66ruOMq8bGxieffPKEE04AkhTVDLZ9vNpzCmTeGI5AighwAmwMQE6AjeHGS9kbgXwkwLD2EB1SFOXWW2+FF5nX60WCKIRVup8IsCAIvXr1wrbPdrmuAW0esbKj/yZbVSziGut6svV3mD/iRlgECQaD8BGFg4Cmafv27TvzzDNpKUSSJMvJAyIzi6IId4aRI0fu2LGjQ3ySymB1AlxRUUEWYHsTYCz0UJTj1tbWmTNnIpCSVea3dLczFwhwhxxYVVVsAz58+DAmq+bm5mefffYHP/gB8GFf59wOnG6Z4fVnHgFOgI1hzgmwMdx4KXsjwL4xczcKNKuXsxyGvZ5ImqgvMquq2tra2tDQ0KdPH2wAplNwKJqIVbqfjYM1atQoGHxiaVQshomkY2GbSFk2Dy06RCTYPGw61n0jitPXWPnpOlu5pmnQJuEMT1jh4h133AFDCrbRYq+dVYQBrYUMFxYWut1up9OJ4U1QpJ6wAQHeuHEj+h0ykDomuVkDFsJUVQ0EAnjevXv3zpgxw0LynO6mZoUAt7tASRNRtCwpigJ3FRzvXF9fj8nqk08+GTZsGLbwIHhMuuHi9XMEsoIAJ8DGYLcKAZ49ezY4CcU1MPa8vBRHIBEErEeAo9WCxK9AXaivr8eRblA1pk6dmghSuZwHvQgXuIqKimeffZbOrEscHJ6TEFBVdevWrQMHDnQ6nS6XC39zWQCi20Z7wrEy4vP5Ro8eTXG/MBBoAzw9eFKJbdu20X0hgfQ1xxN4uVZWVtbW1tKaSFLPbo/M1113HVZ5EO0ci4AU9S3HO9HE5omiuGzZMjoqDCQzDhE1q/dJ9lK/16effnrdddcVFRWBBtMxSNSbHo/H5/NZ0ZPFxI7mVVkdgQULFmAjADwgMnZYN+sjJsvyggULLIQkvZ2JBg8fPtysSczEejRNwznAOMacdBgLQc2bai0EWAK8cuXKHD0H2MQxBuVGUZRgMKhpWl1d3TnnnGOtPmu3tUTShg4d+vHHH8Pp0UTc8q2qhoaGq666ihyJKaxUu+Dn2kVEekSrnE4nXnvdu3dfvXq1ruuyLIMA06ZQY53LCbAx3HKnVE1NzdVXXw1p8Xq9LpeL9pHmmkintT1WJ8AwCG/YsOG2227r3LmzIAgulwv7/x1tH5oELOfJktZ+55VbDgFOgA10GSfABkDjRfIBgbwjwIcPH9Z1PRQK+f1+XddfeOEFrJpbvbOxuu92u3/zm980NjbmjpJt3Za89tpr3bp1E0XRipYxrKEilhuZg26//fZwOCzLMqgvaLDhRXROgK0r29Tyf/3rX/ZYAUxlArc6AaberKurmz59et++faODOOJoN0xlqWDFy3IEsogAJ8AGwOcE2ABovEg+IJB3BLixsRGOoMFgsLW1deLEiTboZjrVc+DAgZ988gns+Km71ZFelW8JOFkdPHjw0ksvRSgs4pNWkRbwdth+ceaNKIqDBg1as2b2GzX4AAAgAElEQVQN3OMRAIyNhZ5sL3MCnCxiuZYfwYRXrFgxbNgwxEtzt32sIuRmtdMGBJiOR9qzZ89f/vKX0aNHAxyHw0HrX06nMz8t/GbJCa8n6whwAmygCzgBNgAaL5IPCOQdASb/T13X33///e7du9tgWxS5vN5www3BYFCWZfD8XFO4LdSe5uZmXdex1QfwWi4qA3vWKzHhWbNmYa8jeUFzCzC2YlpIOM1q6qFDhxBX6a9//evAgQMFQchPC6HVCTCiAMptH6x+Ll++/Oqrr8aUBXdo2gycD2oNf0a7IsAJsIGe5QTYAGi8SD4gkF8EGIpCKBRCBOC77rpLEITCwkIb9LQkSd26dfv73/+OTZ6w7ZilKOdhPQ0NDbqub9q06dRTT3U4HPQKsYSoEFd3tn1Yf8hzzjlnx44dqqrCCxpb4o31L7cAG8Mtp0q1traiPQsWLOjatWt+xh2xOgEOhUI47J0OCg4EAtu3b588efLgwYMRyKC4uBirYAh7Zol5jDeSIxCBACfAEYAk8pW0F8wAoijyIFiJ4Mbz2B6B/CLAoVCIzgL5+OOPjzvuOEEQbHBeoiiKLpdrwoQJX3/9NQgwSH5OqdrWagwOjFFV9dFHHy0uLqZXiFVmBDL5ut1uh8NBlr3Kyso///nPgUAAhl/D5l9d1zkBtpZIR7c2GAwGAgFw4H379t15550IoWQVITernVYnwE1NTdjw4vf76aQrmIKff/75kSNHkvmXDgY3CzpeD0cgkwhwAmwAbdJeOAE2gB4vYmME8osAQ91vamrSdb2qqkqSJBwSY/UOhrPrvHnzlLYPNFqy7UQrvvxKIghATj766KOysjJ2K50lpMXn85EdmEK/4spNN92EMGkIHmuYA3MCnIgU5XIeuMHrug5/h6+//vqqq66CkmQJITerkVYnwFj0bG1txdkwoVCoqamJxvXbb7/9ox/9yOfz0U4Zs3Dj9XAEMowAJ8AGAOcE2ABovEg+IJBfBFjTtAMHDui6vnPnzmOOOcbpdJaWllqrm8mBDTY9h8MhtX2OOeaY5ubmcDgMvSccDvMgWIa5BzD0t32+OVDqvvvug6cAu6tWEARJkqwVVAanobjd7sWLF+u63tzcjE0BBoDCUcnkMUuvWAuNpoqKii1btsBQRmzBABSWLgLKpOs6ouJv27bt4osvRieS1wAosQ08ZeIIZ3V1NWRA0zRZlu2xLVzTNOx0OHz48O9///ujjz4aL4vKykqyCQMTrAVjr4fL5fJ4PFgsowEeBzr+E0cgYwgsXLgQ4xTe/plRcjRNw02xY0iW5aqqqow9sik3ouGMDRGnnnpqbr62Zs2aBV1CkiRMPlZULUzpMl5JBhBgCfB7770HbTDXhoZgYoMwhb344ovsCTcZANqsW5DJGj0HAvxN5Q888ACCG8H5WVVV2g9mInp5VRWRwxdeeOGII47Am8PtdiPAMjrC6XSyhlazejlN9cAE5HQ677nnHr/fryiK4aOAOQG2wVjw+/2yLEO3a2lpARleu3btyJEjsb6D9UFRFO0RKCHOsKquroYyjTMCcvNFaEDkAoEAnXm2evXqSZMmlZSUAIfCwsJu3brRKYBY72DVTYogEAc3/hNHIJMIcAJsDG1OgI3hxkvZG4H8IsDw+dy9e/f48eOdTif7srdEN9MWDiRIQenWrdvmzZuhHsEL2jYKnAGdz5Qi5B2qadrOnTvHjx8PCQHyrrYPrtCShCVECO7Qxx577L///W9d1w37yXMCbIqY5UIlWCmTZRnTo67rb7755tChQ+H1AF4kSRIk3ypCnlQ7RVF86623IghwLnRNim0IhUIRy6B1dXUvvvjiKaeccsQRR+D153a7u3TpUlZWhgU+j8eDqAGwwGAdJCkweWaOQPoQ4ATYGLacABvDjZeyNwL5RYBxts2SJUt69OhBZ35YyIIHHZQccQsLC9F/N910k67rpL+SW2OK+lPeFtc0raWlBY8Pl4FFixbB25mkhRZQLLSMAvkBpZk5cya2DhqTFk6AbTA6YPttbW0lmqSqKibJZ5555qijjhIEoaSkBM7PZCq03xsRBJg6FLDQV+smaGhjVzC+appWU1Nzzz339OrVC/zW4/FEeESzceOttcvDfsLJn4hFgBNgFo3E05wAJ44Vz5k/COQXAca+x//93//FZkjsp6Wtbrnf6+gtR9uHDnAqLS1dvXq1ruswWqqqirM9baPGZUUBpd0+WFZYs2bNKaecAn0R7xIrRlBDIBy4s44YMeLLL7+E27wBhG1JgLHzM/qvAXwsUURRFDo8lhoMyQ+FQnPnzu3evbsgCB6Px1qu/snO5HYlwN/EL8C7gDoXhyDoun7w4MFly5Zde+21lZWVgMvtdvt8PvJnoc01tOSXLKo8P0fAdAQ4ATYGKSfAxnDjpeyNQN4R4JUrV55++unEZNgTYqzS02RyhLIybtw4cnVTVbW1tRXb2DITH4JUK/slEPoC4cT8fv/06dOBPFZP4EtMjoKWEJ6CggJJkrxer9Pp9Pl8zzzzjOFVEk6A7SHwZPsNh8N+vx+TBuKfHzp0aOrUqTAAFhcXW0LCjTXSxi7QiqJgQYe2xiDgGfr9yy+/fOyxx8aOHdupUydaXfX5fFgatrffuzFR4aWyiwAnwMbw5wTYGG68lL0RyC8CrCjKr371K1jA4A5KZMZa3UwHWpSXl7/44ou6rsNuEw6HyQ5sDwU9K08BlRFIwkqm63pNTU2fPn2wUw7CAwXRQhYShO+SJAleDz/+8Y937NhhbKGEE+CsSKa5N1UUBUGSsA5CwU4RBlnX9S+++GLSpElFRUUWnScTn9VtGQSLVjdg55dlORwOwxEabwpMdFu2bJk2bdqQIUMo0Dd5RVEicSR5To5A+hDgBNgYtpwAG8ONl7I3AvlFgIPB4Pnnnw+nPtDg6L1PudzfOMRCEAScVCEIwuDBgxHOF/s5QYPJz81cdTl/aoPfIDZDBoPB1tZWMIRLL720vLxcFEXY3i1EfUmqYcqDR+sRRxyxevVqToCJ+EU7P+OKXSWfCBLFQsMEAtdZOP9//vnnmDOtKO0k9h0mbHkMEjY4UCBofMVUBsswBFtV1aampl27dt14441HHnkkomOgu8kjukMAeQaOQAYQ4ATYGMicABvDjZeyNwL2JMDs2R5Q6WDNe+mll1iPPlrwtlAfezweQRBKS0vhfEvvg4zp6CxJSPam0XQi+kqydWYy/6efftq1a1eHw1FYWIid2GVlZRhClhAhGK4hQohvdOmllwJAHAML5Rh/iQtFIwzOXFtbywaJtRxBqqiooNjp1pLD6B6JvpLKOMUKmqZpkIF169aNHTsW625YMSQRsk2EpGXLloH2YyXR8N746I6IcyWVPopTbSo/ffDBB5MmTQINRiisgoICxIXGFOdyuXw+H1mG6SQCbAnBDGOJydAGjcSZfHgQURRxjDOCg9Bs7HK5aBVDkqRrrrkGfYcTziibVdBYsGABlu3gyIBXVSoCn2BZvPJwa1VVFy5caBXE4LOG1mJ4iqI4fPjwBB88w9n4OcAWkisbNJUlwCtXrszN03OSPgeYjFo0YWma5vf7f/zjH2M6wCvB6/XitWGVjoTe6fF4sEdryJAhOLs5k5NUKkpbNM2IvpLJZ0n2Xl999dV5550HvRDvEpfLZSGdD+oOzL8YAkOGDNm6dSvhEAgEMHbinw/MCTAhlrOJFMcpniscDkPFfPXVV0844QTW/x/n5bArIFaZRdttJyfAuq4fPnwYax8ff/zx1KlThw0bRgscbre7qKiooKAAGoPD4cA7CGCyNJi4cbs484vmIgBfMHSK0+ksKCiAkoBVWuqj3r17jxkz5o033li/fv3pp5/udDrJA85CC7iCIHACbEB+qIs5ATaAHi9iYwQwNMS2j30IMGlvSMC69c9//hOTPi2IwpphoUVQ+K8WFxfjEaZMmVJfX59hFTxFxZrWJtBsaxFgXdfnzZuHuKnkPkAJS0wTJPxQbb/Ra3/3u9/ROjq5TmDIxBItToBjIZM711Mfp6FQSNM0+M7Isvzcc8/h9DgIPDYCWGj1J/7w5ASYRBe2NUVR/vOf/9x3332nnXaax+NBUGiXywWKhX4vLS2FEdLpdFprM1F8YbDKry6XC7uiIoK0ezweaDWiKBYWFg4dOnTWrFnr16+Hd8OYMWPIKuh2uy2k/3ACbEwyOQE2hhsvZXsE7EmAodBjD5uiKKFQqKWl5c4772R3b3o8Hnp4q3QztA0s8R555JE4/YgUl8wkUles2XZajgCvW7cOCoTP58PJqNYiwOS8Sha8YcOG7d+/X1VV1rVM0zR8ZTuL0pwAExQ5m0hlnKqqqmlaY2Mjng5BoXVdnzt3bteuXVkfS9scDswJMKJDh0Ih2h6sKEpjY+PXX3/9yCOPXH755V26dIHBv6ioqLCwEEtpLH2SJMnlcpG2bZW3qp3a6fF4SkpK8EROp7NPnz6/+MUvPv74Y3IYbmlpueiii+gUDMt1FrcAGxBX6mVuATaAHi9iYwSIA4qiaB8LsCzLFLwXU39NTU2/fv3cbjcWqh0OB17VllsBhdu2IAhXX3314cOHad9axhTxVBTraLobfSVjD2LgRlhJmTFjBhlArHUMEpy36XUIhwiPx4NA4gCEmDAnwAYkJHeKpDJOyQaIx1EUBVGyNE2bPHkyfFxJeEicLP2a5AQY5kEcIx8KhYLBIMQA26J27tz5yiuvTJo0aeDAgehoLKV5vd7S0lK4RuNsApYSW1okLNF4vIAkSfJ4PEVFRVBv3G539+7dJ0yYsHTpUvjyhMNh7GoJh8O33HKL2+0mr3Vr9RcnwAbEkqZoToANoMeL2BgBexJgte1DyqiiKBS0gKYAdKrlzreE52plZeULL7yAI2rjEBVCwMREKop1NN2NvmJiU02vCjRg1apVxx13nCAIBQUF5FFsoTkCRwEjaA3G/4UXXojFlJaWFk3TQqEQOUW3iyG3ALcLS05dTHGcgvxQfGxZluFQs2vXrvHjx2MlBcJvxSEQPVo5AYb0qqoabvuACTc3N+/bt48EOxAIrF27ds6cOaNGjSouLia3ZzpfLRpYfiV9CDidTji1UUdIktSjR4/rr7/+6aef3rNnD2K5hUKhQCDQ0tKC4xKnTJmCxQs4lFlrzzYnwAbEiRNgA6DxIvmAgD0JMMXyQhTT2tras846C92JPTO06kkeoZbobCz0CoJw0UUX1dXVsT6rpKOkO5GiYm3pPcBgBfX19b/61a+w9E5RRiwhPxSyiGLbwGhTWloKAoADn+iw0FiyxAlwLGRy53oq41TXdZwBput6IBCg1RCskvzzn/8cP368z+fDYiL+WkX+Y7WTE2C8NMF7qccpGrYsy8FgEAM/FArV1tauXLny/PPPP/bYY+ELgHCSDofDHgsiseQkB687HA632+3xeAYMGPCLX/ziH//4R0NDA15VoVCosbGRjvHD7DRnzpyysjIcBpmDjxO/SZwAx8en3V85AW4XFn6RI2BnAqwoCixay5cvZ/etseYLhP+yihyQejF79myK00uOaplRvlNRrFGWbWf0FfbXnE2/8cYbFRUVgiAQk7SKCKHBWAZCYBu0/J577gHnkWUZy0asEhzREZwARwCSg19TGaewFNEMAzswAqRhY/CaNWuOOeYYrKfYg/BwAgwCDLHBJnCwXxiEMeTxF9KO+WHjxo2PPPLIWWedRb5UpG1bZUq0bjsRnEwQhC5dutx0003//Oc/WWUA0U9kWUZAB3/bR9O0hQsXYjs3Vm+tNX45ATYgrjQkyf+RH4NkAEZexH4I2JYAw+FHVdWDBw+ef/75uTnLg35H/40lZ5i/Bg4cuGnTJhhnclDztneTFEUJh8P19fU4UgtxOGP1V7LXoyUhYws0PXv2/Pjjj3Vdp4ETx7Ue3rDr16+H8QdECA517T5CsjhkJn9lZeXGjRtx+ouu68T37C3AKT4dgkLrur506dLhw4cLglBUVAQvStgA4ZZJvgZJdWW7wkPaW1JVJZXZ6XQuX76ckMECEP7SRZ6Ig0Bzc/PatWvnzp171llnYR4gHyv2HFpIBXxnyGJM/QtvFJyvThfZIkn1aS5nliQJj0koAQ16atrZiwy4jrOLyGcNeY477rjf/OY369atQ+/AgB+np0Kh0LvvvlteXi4IAsUTyWWs2LZJkjRv3jxMQViLoWML4jyyKT9hSQjvxHA4PH/+fLZhEWmz5jGz6mGlCE0988wzTYHF9EqmT59eVFSEDeqSJOWm3h7R3fyrpRGgYBbvvPMOu8JrumwbrjDpc4ApNJSmacuXL+/Tp48gCLRPxrq9hUe45557ENkCoUpys88Md3YuFwyFQhRTZP78+dgFR1qLdeUKytCcOXOCwWA4HGbj38TpjpqaGgp+gx3FFkJAkqTOnTtv2bJF13Vs7eaEJ05f00+IL6jr+sGDB5988klwYCzMkTbv9XqttbFQFMXq6mqYQBVFaWpqos3P9OA8EY1AS0uL3+9nV8oOHjy4bdu2O+6449JLL+3Xrx9p3g6Hw+PxRJzWg8N4RFHEaerREymCVjocDvwElmiD9zge3OVy4QFp4Ph8PlwhKMABevToUVZWRg9eVlY2dOjQ8ePHV1dXb9myBSt3CF4YEf0kuss0TfvPf/6Dk/x8Pp+n7ROLaMW6Hmuej5XfxOuPPfYYFB4IXsaUnwgCvHDhQlqJiIVG7lzHEPN6vcQnTzvtNNZZIFpOsnVl6tSpkHMMCpxVEUt+YiEcK3+2rpvVzmTrSTZ/vuGD9xF0FafTuWLFimyJffz7Jk2AQ6GQ3PZpbGy89957adhnq4Np43FEItn2wN6yatUq2CGJ58eHj/+aDgTWrVv3gx/8AFNMsv0YIQb0Ndl6ks1PN4pIYICMGTOmtrYWngXx346tra0Ih4PgN6QKJNuebOXHy7W0tHT9+vWKosQ/9DgdwmPROqFuEgduaWmZM+f/t3etIVZVX3zGxzgjWippmpOPYCqRSiQaSAj9EAV96GGB0JcSJKIg6lsfAsMiQpAJH4VoGYXWJykhgzSzFDOzB+ooijo6jfmYGV8zc2fuzNz5h8v/4ufZd527971n33PunHU/6Drr/PZvrf3b+9w56zz2XXnHHXfQbboJEyZw3UszKqrxDUxX3oyKv6qqih6BxvNprOsqdLzKkzY9YRv4xujo6Ni9e/eHH374/PPPNzQ04Ivi1dXVdXV148ePr6urw7cwaBbRaz68RnHgC1Y6passf6DXtJAVHzujR4+m0pSuC3DXamtrGxoaFi9evGrVql9//bWjo4Ou3NHy3d3d3YEhMEefrvG1tbXRLQEcFI6ScGPNmjXUTSr7c7lcGb69eVEMDt3U1MTPJvDXERuu30vcMGC48oTjaWTpCZ1FixaZ0yMJnuXLl9MS5fR8Pj0VkvA5qelVtAJ8+Z5+Bokeb0zCscA5OBfA9D2Vy+X27du3YMGCqqoqfkOpooeqqqpq8eLFmUyGf6aV1uxlpdTwqgA9Hkw/i9rX1/f+++9PmDCBy7/KnVp07nX77bdv2LCBBOQrLCF6njhxgm5i4H3gihCBrjFPmjTp8OHDdBVJq52QgeZd/Lfh2rVrdDJ95MiRd999l34Ku66ubsKECXQOF+2rAb4nVXV19bZt27LZ7NWrV3t7e2kyYDHMCqiBCuBRwy8PDwwM8MJpuVyuu7u7ubl569atn3zyyZw5c6ZOnVpXV8f3POnJLDpxpweD8S4xe/iRSN8zoTz82EeMSH9N+PYv/2rd7NmzH3/88eXLl+/YsYMX5abFGrq7u69fv86vb9BaZThGaLe3t/f19V2+fHnu3Ln0zE7gAXVMJsSWCq2QJnl3FcHT1NSUyWSy2Sz/ODlOQuxs5DZ9P5DCVADn7VQCnXQcVVVV1dTUUGH5yCOP0IqGkatUCuF/z9288847NP9ra2v5T4kkaRHzJy9VVDx5yfk5FzOKhJf8JgN5osL75nHl993f0aNH0zIKI0aMqKmpoQKYv0tLmcnRtnUugOlhtr6+vhUrVpDoU6ZM4SMqcJktxk1pgKWURo4cuWXLFl6uk1YtKsMV0GiHs3LZ6Ip7T08Pnf3/+OOP9fX1IVeCpXGU/K7zQeIpwk9l/LPPPtvS0kITLPzEor+//++//+ZzNXrEMcb8nbpMadfX19M7wLTosR5HBQ9M+t21oaGh3t5euhg0NDR08eLFV199lZbVoS9bumxPNbDruOSdQk4kRYCrqqq+/fZb6n5/fz/9CSx4P62gXMMekM1m6dFQevV0YGCA1Qv0vaurq7Oz89q1awcOHFi7du3SpUsbGxunTJlCd3t4MSc+Q6JB5E06iaT3ZivxviV2hO2ampqxNz701jT76fCpra29//77lyxZ8vbbb+/bt+/kyZN8v5euTtKrsLxcGa1iYHP2lslkHnvssVIei+NUA0begzfEKR2qUpMRI0Y0NTXR1MpkMvRzfWW4UEV/7vlmw+DgYFNTEw1T3i6E5J8XLzmj4uEarKamhg6fp556KnCEJmGzt7f3vffeo8uplCetcC7pEJh+vCnhJb+r/hKP5OfEAoaEl/yB5rwZFV7iiUsf17gsSMCQ+sWnr7Sc7XfffVeGL5MiDrRiCuBMJnP27NkXX3yRrnvxaj0BaSpr84knnmhra+vt7cXSN2S13iK01iY2CtBauGfOnHn55ZfpanplTSQzW7owPGfOnO3bt/f19YV/EfT393d2du7fv3/WrFmV+GxFdXX1mDFjGhoadu7ceeXKlYGBgfD+2kyJlGB6b3yosyzajh07nnvuufHjx48ZM4Z/HsmcY4n1zJgxY/Pmzf+9LxN+0SclQ2zfTa5+A3+DeGJQPWx+n/T39587d2737t0bNmz44IMP5s6dO2vWrIkTJ/ICWqNGjcKykIoNPF9J7FyySYzKfuwO3YIYOXLkbbfdNn/+/FdeeWXTpk2HDh3iRy14UHDhj56eHnrbK5vN9vX1UZ3GSNOgB4YvXbq0dOnShx56aMaMGdOmTZs8eXJ9TJ/pwkdKZ968eevWrWtvb8/lcnTxxeyjDw9fC6O3Py5cuLBy5cqpU6fajHUSMPhCQXV19dixY5988kl6+smHXEVznj17dt26dY2Njffee+/s2bPvuuuuKVOmTJo0SZoPUfmFaTg9Kv5K54lLH99xp02bVl9fP3369Pvuu+/hhx/etm3b+fPn+cp+0dM48obOBfDAwABdkz5w4MBvv/3W1tbW2tr677//nonp0yJ8zgofKc19+/bR7Rd6CpqEDpx8kFP/9aFAb28v/fXltXBbWlp27dp1xvEjTIcWYTqcdaQX4VLcCzc+hw4d+v3333lFqPCbCTTrfvrpp6NHjx47duzcuXPnz5/3nb/YMccdra2tp0+f/uuvv4b+/+nr6+Nn6v7v0//zKJDNZnt6eqjCGRwc7OnpoWPhxIkTBw8ePHbsWGtr6z///HPy5MmWlpYzjh9p/kjz1pFehO/fv5+XlqW3SwYHB/l57yH9CApwoUtrL9E6THR9tvvGhy8oZLPZ7u5uWmOP/2BRGUM6X7x48ZdfflmzZs2yZcseffTRO++8c9SoUXhnmF+U5Xdlk1BalJjDyJEjx40bd/fdd8+fP3/RokX/nf1v3769ra2N9Oa6K5vNZjIZKnfpokNgkTY64aGfrQp5koVfbDl37tylS5e6urroNIkWTLH/l4c7YNgzFIdsbW1lTXI3PtwjYYZG4+YHHDj65cuX9+7dK30vSd9jZ4RPVDwC/ZnTp0//dzfoxI3P8ePHm5ubjxw5Eo00UbMMDg6eOnXqwoULeOlHmi2B6cebEj4q/4Dwkfg5sYAh4SV/oDlvRoWXeHz7uSMBwzVuoDlvSjz8hdnZ2Xn8+PGo53JkfM4FMD+yQmfzg4OD58+fpwc76XuzQv+lBYroQUQ6DU3gixyRDXsiiS5fvkxndVeuXKFTDT4jqdBJRWex/FZ5NpsNf5GMjiOaeHRYUalcQd2n85j29vb+/v6uri4aUD5ZT+S8S0RSJBE9CkjDzcUM5cfn5XTKWEFTglYSomOh4J20RAxGApKg35jlP6ycEc8KOgWh8w862yAM+cmmScJtc7nc9evXW1tbjx49+tVXX61atWrZsmULFiyor68fO3YsvjxcYvEZY/PJkyc/8MADL7zwwvLly7/++us///yzs7MT1aD3qHke8rJzhKFHzUlPUpKvRLCMknH16tXBwUG8y8EXc6Umpl86rk2kD08mk+nu7uY55iOEycnhSHxJgWT6+ZoI9+LKlSvhF7hNBcrg6ejo4Cj8p4QvOvAuNiS1GZAQI6o8XXlc8XHJFVWerjw4tegrkX7XIC4dpLjOBbBEpP5kKuA6cZPZC81KFRjeCuhxOrzH17V30rU/V56C+Gw229HRcfjw4W3btq1fv/6NN95YsmRJY2NjfX39+PHj+WFpWtKJi2R6cJp/mBorXtqFHnpPkt46M98ZI/+oUaNoAWd+epmQAR5aX4peKpk4ceKDDz749NNPv/nmm6tXr/7mm2/27NnT3t5+/fp1unzAl4oKiqAAVaA4BfR7uzjdtJUqkAQFtABOwih4zEG/oD2Kq9SqQEQK6HEakZDDhMacD9F2jB/Q5TtX9MgGR6EfbT558uTPP/+8devWt9566/XXX3/ppZeeeeaZhQsXzps3r6GhYebMmdOnT586deqkSZPGjRuHj1XX1tbSD41KyzJzVUw/zkSF7ogRI+rq6iZOnDht2rSZM2fec889jY2NCxcuXLx48WuvvbZixYr169dv3bp1586dXV1dmUyG7t9mb3zongOtY0y9oDtd9rdwue9qqAKWCpjHKXksmytMFVAFYlRAC+AYxS9HaP2CLofKGkMVKE0BPU5L02+4tQ7MBx/dy+Vy/NAp89MreLw5NDSUzWbxsV56u7i7u/vq1audnZ3Nzc2HDh36448/9u/fv2fPnlh53ZMAAA2+SURBVF27dv3www/ff//9559//tlnn23cuHH9+vUff/zx2rVrV69e/dFHH23YsGHjxo2ffvrppk2bvvjiiy+//HLz5s1btmzZsWPHrl279u7de/Dgwebm5lOnTrW1tfHbVZwPl+u0QhX78xqsYd696lQFSleA51jAKJ1ZGVQBVcC3AloA+1Y4Zv7A9zJvxpyWhlcFVAFQgA/MgAEQNVOkAE4DH93mR6ypBqa1CXhdj2w2G1hVi5Zk4zeTQ1LiNwwRQ93hFY/M12t7enoymQwFxaXjqSDnu7iUNr2jyxLRm9L8+i6/OM2t2MCU1FYFSleAJ2HAKJ1ZGVQBVcC3AloA+1ZY+VUBVUAVUAVUAQcF8HzaoZk1lGtCKkrztuNbxLxkFMHIT78PRKUs35hlAK8OSqsoc73NAKqTuSQOJEB7cSUVKmupMuelAbke5uZMyx3MW5AzXg1VQBVQBVSBdCqgBXA6x117rQqoAqqAKpBQBbgA9p0flaBUx/JvHPb399OLtVzZZm58+A4tVp6cKpWa1NYmbW7IZTBXy+zpu/GhX2cIcJq1bgBAm/QLUnl3qVMVUAVUAVUgtQpoAZzaodeOqwKqgCqgCiRRASoO/WWWzWa5uOUopofuu5p+Lj65LRpY2VIpyzeE+Y6xafA9W6QK2PTjtFSc0wpYgdwCJOF5Bsh1UxVQBVQBVSA9CmgBnJ6x1p6qAqqAKqAKqAI3FaC7o4E3e7l85WKSfskcX82lt3DpBV0qbnEvN7QXmu79YkNOA18D5usCgbqXy2y8h0w1NnLa56NIVUAVUAVUgeGtwM0CmP/Y8BVT9KDtKge2ZTvw10viZHyEf8OQE20pB8mPbdGW8L79mAPavuNK/JgD2hLetx9zQNsmriveldOeH5F0emcTyxWDUUppWwqPa1wJjzmgLeF9+zEHtH3HTRs/aot22nSQ+ouaoC3hffsxB7R9x/XNzy8/Y6cSeD7jWweJPyALb0p49ZMCLFTAUH2K00eP0/CZE5hmBTfD2ZKzN08BTDWw1MPiUjfZbHiwlQ3eBoOcaNu0RQy2RRsx5bQxB7TLmQPGwhzQRkw5bcwBbZscXPGunPb8iKTj1CaWKwajlNK2FB7XuBIec0Bbwvv2Yw5o+46bNn7UFu206SD1FzVBW8L79mMOaPuO65sf+0J2tBFNfh9Ros0Z2So9f+xLOW3VLVxtV31MfDi/616TnzyuPHHhpfwlf1x5usbNXwBLvSrlymWA0yZRbGKDt8EgJ9o2bRGDbdFGTDltzAHtcuaAsTAHtBFTThtzQNsmB1e8K6c9PyLJtonlisEopbQthcc1roTHHNCW8L79mAPavuOmjR+1RTttOkj9RU3QlvC+/ZgD2r7j+ubHvpRy+iTlGeDnTQmfND8nHDCSlmfS8gnIxZtJyzOufFiQgCHlYwmTmhf0B/h5s2DDhAA4YUsjIWkXTKN8BTD+Op/lXwLUumBPLAHIibZlc4ZhW7QZUGYDc0C7zGlwOMwBbQaU2cAc0LZJwxXvymnPj0iybWK5YjBKKW1L4XGNK+ExB7QlvG8/5oC277hp40dt0U6bDlJ/URO0JbxvP+aAtu+4vvl99wX50fbdr6j4MWe0o+IfrjyoFdrDtb+u/UJN0JZ4bDBSWxs/8qNt0zYJGMzZxk5CzjY5VFFnTKjUSRNp70FOm1aueFfOUvixLdo2OaQBg5qgXYl995E/cqIt6UMYaW+0fpt8oo3ojw37gra/iMqsCqgCrgrgsYm2K0/S8MOpL0nTNs354LxCO82aYN9RE7QRg7YNBvFqkwKoG9qVok9ZC2C8CWwjkA9BkRNtm3wQg23RRkyabdQE7UrUxEf+yIm2pA9hpL3R+m3yiTaiPzbsC9r+IiqzKqAKuCqAxybarjxJw3NfkpaY5lPRCvC8ChgV3akIkw/IwptSiIIAqWHK/axbwKgUWcpdAHMNbCMQamqDt8EgJ9o2bRGDbdFGTJpt1ATtStTER/7IibakD2GkvdH6bfKJNqI/NuwL2v4iKrMqoAq4KoDHJtquPEnDU1+SlpXmU+kK4DGCdqX3K6r8URO0JX7CSHvVLymA2qIt4ZPmj6EAtpfAh6DIibZ9VoTEtmi78gxXPGqCdiX210f+yIm2pA9hpL3R+m3yiTaiPzbsC9r+IiqzKqAKuCqAxybarjyKVwXSoAAeI2inoe82fURN0LZpqxh7BVBbtO0Z4kXeXAQr3iQ0uiqgCqgCqoAqoAqoAqqAKqAKqAKqgCrgWwEtgH0rrPyqgCqgCqgCqoAqoAqoAqqAKqAKqAKJUEAL4EQMgyahCqgCqoAqoAqoAqqAKqAKqAKqgCrgWwEtgH0rrPyqgCqgCqgCqoAqoAqoAqqAKqAKqAKJUEAL4EQMgyahCqgCqoAqoAqoAqqAKqAKqAKqgCrgWwEtgH0rrPyqgCqgCqgCqoAqoAqoAqqAKqAKqAKJUEAL4EQMgyahCqgCqoAqoAqoAqqAKqAKqAKqgCrgWwEtgH0rrPyqgCqgCqgCqoAqoAqoAqqAKqAKqAKJUCDRBXBcP6wcV9xEzAhNwlBA54MhyS2OuPSJK+4tndeNxCiA8wHtxCSoiaROAZ2H5pCrJqYmSfCkeVzS3Hdp7qVBEy2A84x+GgY+T7fVJSig80EQ5qY7Ln3iihuuhu6NSwGcD2jHlY/GVQV0HppzQDUxNUmCJ83jkua+S3MvDZpoAZxn9NMw8Hm6rS5BAZ0PgjA33XHpE1fccDV0b1wK4HxAO658NK4qoPPQnAOqialJEjxpHpc0912ae2nQRAvgPKOfhoHP0211CQrofBCEuemOS5+44oaroXvjUgDnA9px5aNxVQGdh+YcUE1MTZLgSfO4pLnv0txLgyZaAOcZ/TQMfJ5uq0tQQOeDIMxNd1z6xBU3XA3dG5cCOB/QjisfjasK6Dw054BqYmqSBE+axyXNfZfmXho00QI4z+inYeDzdFtdggI6HwRhbrrj0ieuuOFq6N64FMD5gHZc+WhcVUDnoTkHVBNTkyR40jwuae67NPfSoIkWwHlGPw0Dn6fb6hIU0PkgCHPTHZc+ccUNV0P3xqUAzge048pH46oCOg/NOaCamJokwZPmcUlz36W5lwZNtADOM/ppGPg83VaXoIDOB0GYm+649IkrbrgaujcuBXA+oB1XPhpXFdB5aM4B1cTUJAmeNI9Lmvsuzb00aKIFsDT6Bfy5XK4AwsPuCIPi5EbbQ9ZKqQqkS4EIj9PKEk6/SaIar9ROoagEtOFJrch6nFpODxbKBq8YVSBaBXj6RftNFS1btF22YQvkX4pKWgDbCJ4Hw6Ln2efBFXk4JgwYHnJXSlUgLQrw0ZSWDt/aT+5+4E/UrSjdKqwAK1kYqgh3BVIuL3dfj9OQuaMqhYiTtF00WEnLqsR8Ip+BTFhiYnE1z5s/O4v4NhMLYCS1sX0ognElfsSgLeGj8mMssonZ9ONe1+gmm8RgIsPjuuKluK5+17iueCmfqHgkfskfV1wpH8nvmmdUeFceKX/JL/FLfokn3G+ySXgTSR4JH5e/uDyxVXGZIwPaEhti0HbFY1u0JR7ffsyBbIpo+nGvmVVUeFceM5Nwj29+ST0pK9d8XPHxxsVspUwkxbCtaUtsJpI8UeElnlL8mLMrD7ZFW+JBDNqueGyLtsTj6kdOtF15IsRjGmSHkJvggk1C2Ox3FRcXW4XHQiTa1Ao9ZEtsJrI4vCuPlI9N/hgrnMfcqwWwqYmVB0W3sa1IASRxAuQW0zf+lmAlbMSVp2vcErp4S9O44t6ShMWGa55R4V15LLpyC0Til/y3NLbYcOVxxVuk4AVSXJ7Yqri0kAFtiQ0xaLvisS3aEo9vP+ZgY0v5SG1d8a48Er/kTxq/az6u+Kh0KC4utpIyIT8ibWyJTWobFV7iKcWPObvyYFu0JR7EoO2Kx7ZoSzyufuRE25UnKjznMHjjw5sSPwMChoSPyh8Ix5vh/AwreG8TkTa2FFdq64p35XHlRzzGQr+NrQWwjUp5MCi6jZ2HItQlcUqNXPESj2+/a56ueCn/qHgkfskfV1wpH8nvmmdUeFceKX/JL/FLfolH8rvyuOKluL79rnkSHrMyPbhXsouLa7Zy5TcZistfiuvql/KR/BJ/VHhXHikfyZ80ftd8XPFR6eAal/AY3fSYe6Uoph/bom0ii4uLnL5tzNk1FrZFW+JBDNqueGyLtsTj6kdOtF15osJzDsOsAKZ+oUqmx9zLahQ0sC3aUkPEoC3hJT+2tbFteBBjw4kYLYBRDWcbpQ+3XalNtnAGE0+e8Fbl3+uapyte6lFUPBK/5I8rrpSP5HfNMyq8K4+Uv+SX+CW/xCP5TR4JSX4TT57wVuXf65qn2QvTY9OL4uKaraRYJjLcI/GUxx+eG+6V8kEM2q54bIu2xOPqR060XXkkPHKSLSHJb+LDW7nipeiuPMXhMXpx/SourtkKM0HbRIbniW2jsjEHV05si7bEgxi0XfHYFm2Jx9WPnGi78kSIxzTIDiE3wQWbhLDZ73KNa2ZlejC6xG/6sZVpm/io4obzmJmQx8zHRCLG3BvuEQvg8Gbl2VtKx8qTIUfhVNlTohE5YYn5aHNVQBUwFdDjlDQhHVAf04N71XZSQKeZk1wmWAUkTcyj0vSY6qXTw3Om4AOo6dQnUb0eZtPY7I7psdGf57ANOIEYm/wZU8Rx+j/STOvnf+BIzgAAAABJRU5ErkJggg==;" vertex="1" parent="1">
          <mxGeometry x="380" y="290" width="82.32" height="20" as="geometry" />
        </mxCell>
        <mxCell id="2HamQk87lNA_e7r32Q2T-16" style="edgeStyle=entityRelationEdgeStyle;rounded=0;orthogonalLoop=1;jettySize=auto;html=1;exitX=1;exitY=0.5;exitDx=0;exitDy=0;dashed=1;fillColor=#d5e8d4;strokeColor=#82b366;" edge="1" parent="1" source="2HamQk87lNA_e7r32Q2T-2" target="2HamQk87lNA_e7r32Q2T-8">
          <mxGeometry relative="1" as="geometry" />
        </mxCell>
        <mxCell id="2HamQk87lNA_e7r32Q2T-19" style="edgeStyle=entityRelationEdgeStyle;rounded=0;orthogonalLoop=1;jettySize=auto;html=1;exitX=1;exitY=0.5;exitDx=0;exitDy=0;dashed=1;fillColor=#d5e8d4;strokeColor=#82b366;" edge="1" parent="1" source="2HamQk87lNA_e7r32Q2T-2" target="2HamQk87lNA_e7r32Q2T-11">
          <mxGeometry relative="1" as="geometry" />
        </mxCell>
        <mxCell id="2HamQk87lNA_e7r32Q2T-21" style="edgeStyle=entityRelationEdgeStyle;rounded=0;orthogonalLoop=1;jettySize=auto;html=1;exitX=0.972;exitY=0.5;exitDx=0;exitDy=0;dashed=1;fillColor=#d5e8d4;strokeColor=#82b366;exitPerimeter=0;" edge="1" parent="1" source="2HamQk87lNA_e7r32Q2T-2" target="2HamQk87lNA_e7r32Q2T-9">
          <mxGeometry relative="1" as="geometry" />
        </mxCell>
        <mxCell id="2HamQk87lNA_e7r32Q2T-2" value="vm2&#xa;192.168.50.12&#xa;L7 balance :443 ssl&#xa;L4 balance :80&#xa;:9090 console light" style="shape=image;verticalLabelPosition=bottom;labelBackgroundColor=#CCFFCC;verticalAlign=top;aspect=fixed;imageAspect=0;image=data:image/png,iVBORw0KGgoAAAANSUhEUgAABQAAAAE3CAIAAAB6tnumAAAgAElEQVR4Aex9ebwUxdV29+xzd/ZFEYxIgKC+iiASFIMSY4waXELia8QlkphI4oIm8aeSoAZiElRANEajookKRlFcuIALSBTUgJ8oIFwVFUTWu8y9s8/0l/c+5qTsme47S3dP98zpP+49U11dVf3Uqep6qk6dkhQLr3Tnleq8LMyWs2IEGIE8EEA7xd88HuOojIBtEGAdtk1VVHRBrNRDK/Oq6ErN8+WdUi8oZ2WOz62sIzPyEtMU5TxVteKiS1a+MVVMKpWyMl/OixFgBHJHgNppOp3O/SmOyQjYBwHWYfvURSWXxEo9tDKvSq7TfN/dKfVC5azA8Tm9uwVjHjPyEtMU5Xx1tdLiaxJgEURRLgYgo9Ippgz8LCNQTgiIbUqUi3lHo9Ippgz8LCNQDAJ202GxPKJczDvys/ZHwMq6tjIv+yNvnxI6pV6cUk4zatbKdzcjLzFNUTYDq3JKkwlwOdUmv0vFISB2dqJcDBBGpVNMGfhZRqAYBOymw2J5RLmYd+Rn7Y+AlXVtZV72R94+JXRKvTilnGbUrJXvbkZeYpqibAZW5ZQmE+Byqk1+l4pDQOzsRDlfIIp5Nt+8OD4jYDYCdtNnsTyibDYOnH5pETC7rs1Ov7ToOTd3J9aLE8tslIaY/e5mp28UDpWWDhPgSqtxft+yQkDsWEU535cs5tl88+L4jIDZCNhNn8XyiLLZOHD6pUXA7Lo2O/3Soufc3J1YL04ss1EaYva7m52+UThUWjqaBNgoILjijUKS02EEzEOA26l52HLK1iPA+mw95pxjJgJm66HZ6We+EYfkgoBT6sUp5cwF82LimI2D2ekX8+6V/CwT4EqufX53RuALBLiDZlUoJwRYn8upNp37LmbrodnpOxf50pbcKfXilHKaXZtm42B2+mbjU67pm06AyxW4Yt6LG0Mx6PGzjIBzERDbvig7943sWfJUKiXCS7I9S2t9qQgQlWB9STjHSkZApX70s5Ix4XdnBOyGADVMlWC3cuZbHibA+SJmQHxRhwxIjpNgBBgBhyAgtn1RdkjxHVNMEVvIjim6JQXNxIdRsgR4zuRLCLAefgkO/sEI2BKBcm2nTIBLoG6iMpUge86SEWAESoSA2PZFuUTFKdtsRWzT6XTZvmehL6bCh34Wmh4/xwgUggApnkooJC1+hhFgBMxBQNU86ac5uVmXKhNg67CmnEh7eGRGmLDACFQCAmLbF+VKeHcr35Gx1UdbxEeU9Z/iu4yAsQiIuifKxubCqTECjEAxCIhtU5SLSdMOzzIBtqgWyklpLIKMs2EEGAFGoCAEuL8tCDZ+iBFgBBgBRoARqAgEmABbVM08ILMIaM6GEWAEKh4B6m8rHgkGgBFgBBgBRoARYATUCDABViNi0m8akLHZs0kIc7KMACPACAAB9LeMBiPACDACjAAjwAgwApkIMAHOxMSUECbApsDKiTICjAAjwAgwAowAI8AIMAKMACOQMwJMgHOGiiMyAowAI8AIMAKMACPACDACjAAjwAg4GQEmwE6uPS47I8AIMAKMACPACDACjAAjwAgwAoxAzggwAc4ZKo7ICDACjAAjwAgwAowAI8AIMAKMACPgZASYADu59rjsjAAjwAgwAowAI8AIMAKMACPACDACOSPABDhnqDgiI8AIMAKMACPACDACjAAjwAgwAoyAkxFgAuzk2uOyMwKMACPACDACjAAjwAgwAowAI8AI5IwAE+CcoeKIjAAjwAgwAowAI8AIMAKMACPACDACTkaACbCTa4/LzggwAowAI8AIMAKMACPACDACjAAjkDMCtibAaeHK+Y3KJKLw6ukyeSV+DUag7BDgdmrPKuV6sWe9lKpUpdKHUuVbKpzzzTf15Yvgyjcdjs8IFIMAKV46zePtLEB+uZmmCK4sUQ0NooxMqhcmwIZWl3GJmV3xxpWUU2IEKhcBbqf2rHuuF3vWS6lKVSp9KFW+pcI533xpYC0CZdJgN9+ycfzKQUBUv8p569zftFTt1Ox6YQKcuw5YGtPsirf0ZTgzRqBMEeB2as+K5XqxZ72UqlSl0odS5VsqnPPNl/HJFzGObwYCrIf6qJYKH7PzZQKsX+8lu2t2xZfsxThjRqCMEOB2as/K5HqxZ72UqlSl0odS5VsqnDlfRsCJCHA7tWetmV0vTIDtWe+K2RVv09fmYjECjkKA26k9q4vrxZ71UqpSlUofSpVvqXDmfBkBJyLA7dSetWZ2vTABtme9MwG2ab1wsRgBEQGzO2gxL5ZzR4DrJXesKiFmqfShVPlWQp3yOzICRiHA7dQoJI1Nx+x6YQJsbH0ZlprZFW9YQTkhRqCCEeB2as/K53qxZ72UqlSl0odS5VsqnPPNl/DJ90GOzwgYiADpITtgy4oq4ZP1rnmBlK9J9cIE2Ly6Kyplsyu+qMLxw4wAI9CJALdTeyoC14s966VUpSqVPpQq31LhnG++Ij4mjXHzLRLHr0AERD2swNfv8pVFfKxsp2K+XRaygAi2JsAFvA8/wggwAowAI8AIMAI6CCQSiVTq/45zRBwaZ0Sj0Xg8TrcQjp8k05EYqVSKHkdg8j+XVtaZieAJnfjirVQqlUgk4vG4onyxS4juplKpZDJJb4RwZEdxWGAEGAFGoPwQQEeX+bf83tTYN2ICbCyenBojwAgwAowAI+AwBPS5ImgqEeMu341IcjKZhCymLw7UcJcIrYpIZz6LrP9DtL+UOCVLxcsMoVssMAKMACPACFQyAkyAK7n2+d0ZAUaAEWAEKg4BEEv6SwunWF+Nx+OJRALcVYSG+CQ9GO28YrEYHsFTyWRSfCoXGXlRMegRrOsmOi8xC4qgKhIRaYTT4xSfBUaAEWAEGAFGQFEUJsCsBowAI8AIMAKMQCUiQFQWjBEQEKskRCgamUPjFsIpPjFY4p/0oJg+JUtCOp1GzEQiEYvFIpFIR0dHe3s7pUwxKV/KS7ylFV+MwzIjwAgwAowAI8AEmHWAEWAEGAFGgBGoIASSySSoJpZViaZmQoBFVDFcJLcUjt254K7hcBjhREchKIpCGamEaDQai8WwM5nSRHwV0QVVpu2+6XQ6mUzG43GsRWMFGGWmd4xGo2KaLDMCjAAjUE4IqHpa+llO72jGuzABNgNVTpMRYAQYAUaAEbA1AipuidVdUFO6lUql4BYrEons27fvww8/3LBhw6pVq55//vklS5bcfPPNM2fOnDFjxg033PCrX/1q+vTpV1111ZVXXnlu53VOxvXDL18X/ue69dZbZ8+ePWfOnAULFjz44IOPP/74kiVLnn322e3bt3/66ad79uxpbW2NxWJiqbIiS365st7lQEaAEWAEyg8BYrwqofze1Ng3YgJsLJ6cGiPACDACjAAjYGsEaB0Vm28TiUQ4HA6FQnv37m1qalq1atVDDz30m9/85uKLLz711FPHjBlTX19fV1dXU1NTVVXl9/u9Xq/b7Xa5XP7OCz9lWZb+c7k6L7nzQpgo/yeW+r8sy2632+/3V1dX19fXd+vWTZZln8/X0NAwYMCA4cOHjx49evz48aeccsp11103Y8aM22+/feHChcuWLVu/fv2nn37a3NwMro51YKwM01qxreuDC8cIMAKMQKEIqHgv/Sw0vUp5jglwpdQ0vycjwAgwAowAI6AoSjKZ3Ldv39tvv/3EE0/ceuutF1544QknnDBs2LCamppAIODxeMBgXS4XaG2O9FWW5Uzqq6a5nb+RIP66XC6fz+f1el0ulxhZZNSSJCFxT+eFaHjc4/FUV1f37NnzoIMOOuGEE84888zLL7981qxZf/vb31599dUPPvhg//79XOmMACPACDACjICIgKUEmKYlyJBJLEphspimKBeWGp4qJh1sN2ptbaV9UBDENM2Qtd5XtdWKfhpVBkVRcCpjLBbDm7a3t2sVpshwscxFJkXOQotPx9gU0ul0c3OzoiiffvqpoihQp0QioZULVahKMCq+iLkoa6WvKEpbWxvutra2YvkFtovi4yTrpNPlLUrEwP6ky0wtjgCioigKYUhakbUkIiainDUytQIxJuR842emgBB0Dh0dHdFoVEeNtbLLK1yrDHklYpPI6XQaDpnJphebXVE88plMh+ii+cdiMUCNaLFYDEI8Hm9padm6detTTz11ww03TJ48eciQIf3796+uriaSSYJIQZ0o04vIsuz3++vr63v37j127Ngf/OAHs2bNWrp06caNG/fs2QNtDIVChBK2HMfj8VgsBjxJGaiHIeRJ2ShOJBKB+2vcEtsshVDkShYIOggALZVKUUUAZNUXTVUjKgBVadJPVbQuf2bNlNpg5uO0vZwMDVpbW9HpZUYuYQj22Hd0dFCfX1hhCFiVoJWaKlqXP7XSybde8o2vlW+XBc4xglHpG5WOUfjopEPfJjCCSCSi04603svscCbAWRAWdTrL7a6CqJo/+OCDBQsWzJo16/e///2DJl/3a1x/1biMKs7cuXPnzJnz9ttvi6gUcAyG+LiWXGS9qJJFaqrAkv9MpVKhUCiRSCxcuPD5559funTpy51XY4mu5RqXVnGWLl363HPP/etf/4IOYCiQSCTEuhPlYgA3Kp1iymDBs8/851qxYsWyzuu5557Twl+jupabHV8r34ceeujzzz8HSnQmDfWQxqIn6oMoG5uLNanF43EiXSDDaFBtbW3EE1CSRCLR3t6uGl7EYrE9e/Y0NTU9/vjjM2fO/Pa3vz1gwACv1ytJksvlcrvd1dXVPp8PXFFctnUi4xXLTAvLCMTaclVVlRjH4/H06tVrxIgRJ5xwwqJFixobG9evX//JJ5+0tLQQdaHJGrgKA72BAsN6PBaLYU4HP0WtiEQieFxUQqpNMWZlyipYxN4gkUhs3Ljxvvvu0+qvtMK1+h+t+EaFr1ixYuXKlc8999yzzz67pPNavXq1Pau1qanpySeffOqpp5588smlS5c+33nli0O+OGvF1wrPtzxmx9cqZ77hWuW0Wzpa5cw3HGOVJ598cvHixY8//vjevXvFZm6fBsIEOEtdiB10lttdBbW1teFrd8cddwwcOLB3797du3cXP8BWyjQgUAlGlaFfv359+/a95pprsG4ZiUQw890VSIXcL7JeCsmyFM+EQqGNGzcedNBBNTU1MPzDX1UN4qdWPWaNTGsjmU9pxS8gvLq6+thjj/3b3/6GLg9Hg4p1J8rFAGxUOsWUwexnP/roo6FDh7rdblmWPR4PqqOqqqqAeinJI4cffvjSpUthGwJSZx4TEPVBlM2uI5PSj8fj4XBYZLY0sZhIJPbu3btnzx4sQCE8Go1+/PHHL7/88t133z1t2rSJEycOGzasrq7O7/ejvYPoqtp+ObFf8TXFvg5tx+PxuN1uen2v1wti7Pf7BwwYcMIJJ1x22WVz585duXLle++919raqhqxYRU9EolAgYn3ptNpLBpj3RgrbFCJjo6OMtBDw9VbxATOw+GvW1GUlpaWe+6556tf/SpVk0owuxNTZUc/tfIlu/1gMOjz+Twez4QJE7Zs2WI4aEUm2NTUdMMNN/Tp08fr9fp8vkAggJJrvZfdwqkiVIJWOVXRuvyplY5R4VoFMCr9fNPJtzxa8XXCfT6fy+UKBoODBg169tln29raaHqxSGU28HEmwFnAFDvoLLd1g9LpdDgcTqVSn3322cSJE0k/8lVQp8THC44YMeKNN95QFAVrfboIFX6zmHopPFfLn4zH4++//z5pjsvl8nq9TtEHjDu9Xu+pp5766quvKorS0dERDofFuhPlYtA1Kp1iymDBs/369aOFO9IKp+iDJEn/NrvFAhoxByJyxqIn6oMoG5tLqVKDN+adO3eGQiEYnsEoev/+/e+///6CBQuuv/76M844Y9CgQR6PB3oCn1JQFXQjPp8PJNDdedEWX9Kr8hBoH7LqdTwej6/zIias2nXsdrvr6up69eo1adKkn//853/+859XrVr1ySefiJausJQOhUJwTC3qA+qFtF1l+SLGrGQ5s21iEgHbqf70pz/pTPjard8jBcMcpSRJJ598sj0r93e/+x1mfNAtoOR2w5PLUx4ISJLk8/mgYz6fb/ny5eLMoH0aiOMJsBlQZnbQuedC24cWL17cs2dPWZarq6v9fr/Zak0dsUowO9/q6mqPxxMMBmfPng27L9r8nDtoOcYspl5yzKLk0WKd14cffihJEryher1eGtGqKhe8CKM91d/MmAhRRaOfRsX3dl6gweecc867774LjztmAFsJ+pBOp+vq6mDJ6fF4/H6/2+22oT6QIqkEr9f74osvih8/2hpkuEqI+iDKhmdkQYJk5xyLxQ4cOAD/xpRvJBLZvn37ihUrbr311tNPP/2www4T2y8cKQc7L/QeoLsi6aXvgvigig2Kt5wl09vR+jZ8VovLwngjkAEVK5YkCa2srq5uyJAh3/rWt6688sp777132bJlO3bsIAsvrF5GIpGWlpZwOCzucsfpyrTfEtpI1Vfhgtg24bU7nU7DdkxRlD//+c8WfNe09FnVfdFPrfhutxuTSphbkSRp/PjxKtsBm1T3jBkzwEngcE6SJJ3viNb7EiAqId/4qsfpZ77pGBU/33SowDkKRqVvVDpaxdZKXytcJx0YRKAHxhjAJg1BLAYTYBGNL2Sxg85yWzcI9G/Pnj0XXnghbK6CwWAJZzTFoY8oi0OEYmQcgCFJ0kknnfTRRx9hEdiCFR7dSnD2zXQ63dTUhO8TfaKKqSMrn8XYBUvWfr//Jz/5yWeffWZSfRTTTk0qkuHJJpPJbt260WQqehIs3FlZrQXnJUlSY2MjTBzxl02gc1ESeMCKxWLUl6ZSqebm5k2bNi1atOiKK6447rjjevToQeMSj8cD40acS0T9RlbiRzwQ+4FFdaIEHSrQq4nlFwPBbOHmWowD2eVygcnU1tYCQ2i+JEnBYLBXr15nnnnmtddeu3jx4m3bthFnI5UWmU8sFiObfybAos6L/Tb2S8NuLt553X333SUcL+Xb0aGoUB74Jx8/fjwphvjWJZdnzpwJp3fwBYAvdb7v6/T4mU0eIWa/V6nyNeq98i0/2gWZLjY2NtKekZI3BLEATIBFNL6QxQ46y23dIHwLV6xYcdhhh2FeGd9RrZkSo8K1FFQr3MB88YK9e/f+61//aqqVf5H1QsMU3Qq0xc0tW7ag4txut9frDQQCWh2ZVv2WKn4wGMTgEtZWPXr0mDVrlkkcuBh9sEU151CItra2hoYGv9+PM1fJhLVU9aulb1rhsiy/8soreFGsmImrwTkAkEcUUR9EOY8k7BcVi2Pbtm17/PHHZ8yYMXDgwG7duhG/lWUZe1mxP5xqAeHUb4DoYoCOv+LSKEgyPetoQcuoG5PRIhOmuSTMHdBMrvj6dD4Tmhsxh/r6+hEjRvzgBz+YP3/+xo0bRbcXovcssoWGNtpPuUpTIp22GY/HFyxYIFaBSjaq3zMqHaymoj3CCnrcuHFkvlEafLPlGo/Hf/Ob3+CjTH0F8RMtNDLDVdVBPzNjIoQi5Cjkm06+8bWKYVQ6WukbFW52OY1KH20hGAy6XK5AILBy5cpsWln6MCbAWepAp4POEvvLQfDYOXPmTGg8PpnwZmRUG7BVOrDxxmDi7LPP3rVrVzKZpB1TX8am2F9F1osjCDAmj7du3QrDAQCrGreJCpBvh5VvfDGvHGV413C5XHV1dZIkHXTQQffcc0+xdZ/t+WL0IVt6Ng3r3bs3kCfak2NF2CTaypUr4QgtlUqhDZo0QBT1QZRtWq+6xQKPamlpWbZs2c9//vOjjz5a9REBg6WeAe0aG31pgCtJUiavI+qbqR6UWuYtp4SI/RsmeRGSWX7goArHTAG+2rSDWowDzkAhXq+3T58+w4cPnzVr1quvvkrW0bTc4XQ91FXSAm+KmGB+h3oGEGCxElUyIW+SoMqOfupnh2iIM27cuAJxMfmxW2+9tba2Fub9jmvpVBEqQateVNHop1b8SgsnQFRCvjioHqefSAeWa4FAYMWKFdTGTVbz/JK3lADnVzRFETvKfJ81O340GoUPEgzpaGNbKpX65JNP+vTpAwsT8jiSr2I5JT5sxrB5rLq6esmSJUBePMSSDMNMXR82u8YtSz+VSm3duhVdCQiwU5SByonCYzQJm8Onn35aJD/wbWvSRIllNWVBRul0mnzIo5XRMhShbWfB5XKtWLECQKE/hw8hC6CzYRZw9kNHHGGFEOuH8BiM5fH29vb169fffPPNRx55JGY9yFbZznVdyWVzuVy1tbXHHXfcb3/727Vr19JZ6DD7J9+QGDPQKjGcZkFR4eTMhkprdpEwPICpfyKRmD9/vrMUCWM8+uQdd9xxZiNWWPqzZ88G7y2nLQ/OUpWKKi2UDe0CVmA2XIJiAlxYZ/J/TyUSCcxqEMFDJ37PPffQATaqefryawDoTDHX7na7r7vuOrj8xTAXE+EAyjzTx8Kr0JZPlgEBJvNCUozRo0f/4x//gJ9P8F4aBdqyEuxSKKcTYFmWRQKMrpI6TLugbH454BUpmUzik0FzAa2trTQtGIlENmzYcMcdd1xyySWBQAAfC3Ed0qEmAOX31ct8I1pSc7vdPXv2HD9+/M0337xixYr29naMCmAYBR+Z4tQ5Pot0RLb5mmi7HJgAW1MlTIAzmy2HmIeAMwiwuMoqyma3STEvURbz1QoX45gti2UQZUVR6EhAGs/FYrHW1tZx48aJ7jSdtWJTWHvAAoUkScOHD1+/fj0AIbjE1WCz60srfSpMjoJWOhaElwcBJuNtWso++eST161bR06h4/G4gc5CtKrV7PrKN98C4jt6BViSpOXLl2Pql9a7qMPMvXbyxS33lI2NqVVOkQBD8+E0GJjs3r3737ukZsyYceKJJzY0NKAThnf9qqoq5r2FfZUsfopOG0a+YMLnnnvuvHnzmpqaoGaJRKKjo6O1tZV8m4EYk1GAsdpo/9TIVhyAxOPxefPmWVxxRWbHK8BFAsiPlyUChhBgre+pUT2bZHYGWgXNJV8xjlY6ZoeLZRBlRVGwkIWxHbz5K4ryzDPPYJsQeRYp7+ELtJxeWZKk2bNnYz4bYzvgAw5cQhMIse5ykc3WK530y4YAi906Rgnnnnvue++9Bw5MJ4XoQJH7La06zT2FwmLmm28B8Z1OgBsbG8lShlbD8kU7X9zyTd+o+PrlBNuJRqPEfz788MOHH3747LPP7t+/fyAQEGdOVc2HDhoVw1m2CQK0Yg9b6Lq6Op/PB0rcp0+fE0888de//vWLL77Y0tICTcNSsKh1iUQiFAqJIZUgMwG2rJZ5BdgmfUWFFIMJsF7T1h8o4Ekxjl5aZt4TyyDKZLcGS06cfpROpydPngw3A2T8CaFclR4uf+Gxqb6+XpKkE044YdeuXbTmg6FeKpWKxWJMgHNR1bIkwNAQr9d76aWX4rgsY0d7YtsU5VwALyaOmJcoa6UpxhFlnfhOJ8DLli1jAgzqS2ekJ5PJt95667777hsxYsTBBx8MZyH4Ung8HuygwbHP6GC1nBuX62fFce+FaoLTfkz2wQSG7L98Pt+QIUOmTJny2GOPffDBB/gUwgVUOBwuwCZCq8dwVjgTYMvqiwmw43oVRxeYCbBe0xYHf6IsPqMVLsYxWxbLIMo0hQ+Ppvj79ttvNzQ0kHtJbN8i82BHa7NW4fF2+MyDAAcCgYULF9IXHTMFcI5tdmXppC/WXS6yTlJm3ypLAhwIBOCCMhAIzJgxQzQCNARPrTo1JHGdRPLNt4D45USA0S1Q56ADrOpWvripHrfsp1Y5acc7Nvreeeed3/zmN/GxoK7V6/XCXCgr6cUp7hSZBbshgPVeYr84/8Pn8+EEJpTW5XINHDjwxBNPXLJkyfvvvw+1TCaTbW1t7e3tJnlHt0z5C8sIvQEGVOwEqzAMc3mKCbDdeozyLo8zCHAuLadUccTBRKnKoJ8vbH3hzDMWi/3iF7+QJAmDGNoZgtn9MtZ1soImY+9TTjll3759gI4+6jQE1IeU75YfAcY2YLfbjbYwZMiQe++9d//+/VzXXSLgdCdYkiSJJtAFE+AugbJ5hEQi0dLSsmHDhjvvvHPixIl0plGw8wLjFY8vIjnzZKMy/pQ499UCgQC++KgvWvjFOrDP5wsGgxSImCeddNJdd9313nvvkTN8mlW3uTIbWzwyFsPWmLvuustZakAjPax8sBdoZ1Ufl9YkBAwhwMZ2NZmpsRfoTExyDYl1XnBsqyjK3r17+/bti0NQJUny+/1QLDrQ1SQ9K22yWOWWJIl8t/j9flmWN2/e3NHRAV/ZALRi/Xzkqk//iVceBBikl/66XK5gMBgIBKAnAwYMWLRo0X/emP9rIlA2BJi83VamN/hdu3bdcccdRx11FLprrBbSNwKBsKYR3T6TMREO1aONpqXt8zn3TARgvi5aquOAQFQcbe1G5eJkOHDjY4455rbbbtu2bRum+zU7gvK9kUmAMXTOBNmeIUyA7VkvXKrSIuAMAmz/VVbb9vzY0NXR0YGJ29tuu001oCmt/pU29x/84Af4sEWj0VQqhXMRCzB9tG3tm1qwpqYmGgSQUNoKLT53Gh1i+WvEiBGrV6+mRQ8sgySTyXg8TlYDpoLslMR79OgB8DGMJjuL4mvEmhQaGxtpx6M42HUK/lrlTKfTsViMnEHg1WANFI/HMf2nKMr27dsfeeSRQYMGYQsAPEQA+bJp2tYoUrnmIsvyiBEj/vCHP3z66ac0T0Qu03FMNCkhttMjmo4XfaeM62gPMNpRIpFw3AowumUa7o8ePZoqy1YCm0CXawdiz/eiFiHL8ssvv2zPie8veYG2VXO1eWGwnhnpvBRF+fjjj7/73e/ygIaa4ogRIzZs2IADD8n9FQ0WbV65JS9e+RFgTJNDPcgU8Jhjjnn99dfpRDGcF82zJCr1U+0BZgKswqckP2niBiP4ZDIZi8Xg3pn2euzatevRRx8988wzA6YPB88AACAASURBVIFAdXU1vg4wkcWgWWwU1HOyUAkIYGOwv/PC+3br1u2oo45asGABvpuKoqRSqdbWVjgLxDETULNMD9KZTYAJsGVaxATYMqg5IwchwAQ4s1sunxAsUrW0tGDl6uGHH+7Vq5eDtNPsov7b1uvmm2/GpxpY4eNdPhpg5puUHwGGvsFEwuVyVVdXI+Scc87ZuHEjHSoG8sAcmJSrPEygy28FGF79YrEYMWEwFiz8plKpV1999Uc/+tFBBx0k9rSwgMWIGRaw4l2WKxABv98vWrb7/f5TTjll4cKFO3bsoPni5uZmtCB0C3TKoBhIPQYEJsCW6RITYMug5owchAATYFWfXFY/YYkE++e2trbvf//72O3jIAU1u6ijRo366KOPAFSi8xIHi2WlDUa/TPkRYGwGrq6uplUvl8uF7eIXXHDBJ598AgsZbCtgE2hSKCbABIXdBOrNQIaJjbz55ps33njjqFGjyBtiQ0MDdoSS8pvd93L6NkeAfIVgHgRHXlVVVWEU0a1bt0mTJi1btgzT67T8K84M6k8oMwG2TAGYAFsGNWfkIAScQYDFUYVTOk2xzCWUafr/xRdfPOSQQ8hvp4N01Lyi4gP/yCOPYJiYSCTI12UJq8wpWZcfAaZVL3GeiE52mT59ejgcxv5J1hNRS5kAi2jYUI7H4+FwGOy3ra3t/vvvP+2006Dt5AYJJIf2wKMJuN1usVGY1xVzyjZEALYAmWOGfv36obR+v/9rX/va9ddf/+6770LtsedctH+mORf9dmHncR3vAdavOwPv8h5gG/YDZVwkJsAGNl7bJYX5V3yTrrrqKrfbXd7envNtqEBj8uTJn332Geatsbhnu4q0ZYHKjwCLBp9VnRfWhLHo0aNHjzvuuAN6ouPZxZZ1ZW6hmACbi28RqcdisUgkQotyb7755k033YSz0CVJ8vl82OsuyzJtekcvCt/OGB/k269y/DJDAEzY23nBZKCqqopOyWpoaDjnnHMefvhhkevCV0LumssE2FSd4RVgU+HlxB2KABPg3Lto58VMJBLYorN27VocboGhvEOV1fBi42TL/v37L168mBaByWjQefVtbYnLjwDj3JesS16YKxk4cODixYsPHDiQ7Lysxdu+uaVSqW7duqF5Aj0VmzK85RqeYLl6gaaZmp07d8LZFaDzeDw+nw/rvZjrwewPZnzEdWDDoeYEnYJAdXW1z+fLnATBSemSJJGvu6qqqm7dus2fP//VV1/FYQo4XDD3fpIJsKlawQTYVHg5cYciwATYvsPK4kuGtV9FUebPn4/zLaqrq+mj5VCVNbbYGLhfffXVqVQKdq28CJyj4pUfAUbTwL5fqBkcYqGXRAsaMmTISy+9pDr2I0fEyjUaE2B71iz1/x9++OHVV1+N062rq6vBb8m2H/M+dJwvCaDEfGyesV8cJ6bmdru9Xi/s4bFFnAaOCKeXmjx58qpVq/AlFReEu2wgTIAJQzMEJsBmoMppOh0B6sdsfQxSl71nCSPYoeNGGXAoHx3BB0xisVhzc/OYMWMkScJQhqZvna67xZdflmUsiR966KEvvviioigtLS0l1CVnZd3U1ERVgH6EfpafAG6Mv2PHjl27di05hU6n07CzIMFZ9Vh8aZ1uAi3L8gsvvAAPyYqiUG0Wj4x+CkZ9O5LJJIx94JgNXsppm/rixYtHjhwJWuvqvMqvefIb2QEBsKzDDz987ty5mEfG8UhoBeFwGJoZi8UOHDig3zTsdhebCMhMbP78+XYAPMcy0NeZJi/GjBljN4ThYHLWrFkwQnG73RByfEeOxggUgIBIgF955RWbngNsw7ZKRTJqEEMJFiBQGcB+aeYVI7mFCxf2798fO77wiSpAUcryEa/Xi+mAmpqa2bNn4+QGgFZALVTaI5VDgL1eLzpK+IPxeDzf//73169fD7KE5haJRCrWLzQT4MLaPvXb1GMXlk4qlaJzfZPJ5N69e3Gq+f79+2fNmjVo0CBJksT13rLszPmlSo4AbXzo37//tGnTNm3apChKR0dHa2sruU6gKWZnWVoxAS6sa8rrqXQ6zQS45K24ogrABDivFpolslGDmCxJ5xlEJaHn8I355je/CSM3SZJ4D7CqeZP3l3Hjxr3zzju0/kMYsqCFQOUQYKyeYfkX52F6PJ4LLrhg//79AIdOBo5Go0WSGS207RzOBLiw2qEeu0idicfjyWSSNnHAPv+tt96aMmVKnz59YPtDhj88B6r6BPBPAxHAUUmYcDnjjDMaGxvRNMgNG3S1sPZSwqeYAFsAPhNgA1siJ5ULAkyAi23XRg1iii1HtudTqdSbb76JrV8YANEwKBflqJA4dXV1kiRVV1ffddddWATOhiWHqRGoHAKMhlBdXY2zYaAwPp/v5ptv3rdvn6Iora2tQKe5ublIMqNG2Qm/mQAXVktGfTvIbx+W11KpVGNj44QJE2Dx6PV6SXWrqqrwya+Qvp1f00oEaDQZDAYxzzJq1Kj77ruP5gfJhLi9vb2wJlOqp5gAW4A8E2ArWyvnRad+wNieTaALaeNGDWIKyTuHZ6699lqsAGD9SvTcyA0A32lydHT++ed/+umnFUhgctCjLFEqhwBjMAef4eg0QS3q6urmzZvX3t6O3b+wRCVj1CyQlWkQE+DCKtbAb0drayv2buzcufPWW28dNWoUHeRLjFf0bsWdPyNgOALwlYVka2tr8WGtqamZM2dOU1MTrKugpdi1XlirKclTTIAtgJ0JsOFNkhPUR4Dm7GRZZgJcSBs3cBBTSPYaz6BUH3744fDhwyVJCgQCsixj+Zc26uhrRiXcDQQC8GyJZjBo0KDHHnuMCbCGTqmDK4cAk5281+vFqA476iVJGjhw4F//+ldA09HRUZkm9EyA1W0jt99GfTs6OjowQN+yZctNN90Ez/bU22Pihmx/iA9XQg/P72gxAj6fD+YG2G8FuWfPntOmTXv//ffRLJw4RcgEOLcurahYTIAtbq2cHRPgolosnIbROKbYtAp9HgWgp9PpNDxCz5o1C3SX/tIqFqs+EPD7/XAPg1W+H/7wh2TOSniykBWByiHAkiThHGBZloPBIJZ/JUmqr6+XJGn06NHPP/98OByOx+OJRKICJ1CYAGdtIF0G0oejSJ2B5fM777xz3nnn4bAuortk+IO5G3KFxf0/I2A4AviGksMRmJ5BIRsaGqZOnfrWW2/F4/FYLOY4T5NMgLvszYqPwATY8CbJCeojwAS42GZr1CCmmHJkJcDJZPK4446DxSYNg9gJltge3G53TU2NLMtut7uurk6W5REjRtBEdTE1UgnPVhQBdrlcZDoBYwp0nWhQp5xyysaNGxVFcdzxHoYoKhPgwmA08NuxevXqSZMm4YBf7HMh2xaPx+Pz+Yic8Aqw+Alg2UAEyFLG5XLV1dVB5aqrq2GSIEnSOeec89Zbb+G8sUgkUlirKclTTIAtgJ0JsIGNkZPKBQEmwBa0a9OzwKEXkUgE3TT+Llq0KBcN4DhoAzU1NZIk1dbWTp8+XVGUSCQCj77pdBprwo6btDZP7bBgtW3bNuwzhAphuFNR6oQFYbzyGWec8f/+3/9TFGXPnj0wDCFLv0QiUfYnJGH+iPSBmJhT9KGxsRFnyJEbPPIsZV47yjdlOuMdZ/zSvt9Vq1YdffTRsFOowGboFB2r5HKiQ3C5XBMmTFizZo2iKHQeErQaB1nbcwsJTOqobIlE4q677nJWbdIJwHAEcNxxx+Xb+VgTf/bs2RiPQWH4KGBnqZnjSptJgK3R87xykfKKXZmRU6lUPB5Pp9MYan/++ecXXnih49TR4gJjkQTmgjh4XZKkI444YufOnYqi0AgYwNLPylQw8a2ZAJOier1emFf06dNn2rRp4MDJzgtUSqTBIoZlJpcTARanEW1VTYlEAutm+/fvRxtsbm5++OGHjzjiCCgkLfPC7wNpKQuMQGkRoL1XDQ0N3/ve91566SVFURKJhHh2VzQapd7SVu2OCbBl1cEEuLTttNJyZwJsWdM2MaN0Oh0Oh3EUJA4YeOmll3r16lVp2pzv+2Ja1O/3Y+BI/o0eeughDIJp1Rdr7CZWoaOSZgJMmgZzaHDghoaG66+/XmUFjd34NIRyVD3nUVinE+Dly5dDq6mm0APkAYH5UWkOrrm5WVGU/fv3L1iwAG4OZVmurq7Gggn1Y6SlLDACJURAtfPc5XKdffbZr732GvSZtgTT/I75LSm/HKhPwHiAV4Dzgy+f2EyAS9hOKzBrJsD5tE67xk0kEqFQCFtrYrFYNBq94YYbKlCb831laL/H4/F6vdjkif3A3/72t7dv364oSigUwrAYNod2rX+ry8UEGJoWCAQgVFdXYw5l2LBhN9xwAwZ2MMqgVml1JVmbn6MJsCzLIgEmJmwthF3nlkwmMdEJC9Jbb7310EMPhbtd9GCSJLndbjhsy7cz5PiMgEkIkAuSQCAAv9A1NTUTJ07ctGkTlD4UCmG+CbYzXbcEa2MwAbYMbybAJrVBTjYrAiIBfvnlly3T87wycrwJtOjsRJTzQkE/ssjQ1q9ff8wxx2Stbw5UIUCbTGjvXDAYrK2tXbJkiaIoHR0d6XQ6mUzCClqrCsQ6FWWt+Frh4rOirBW/VOFMgKFF5GvX6/ViYCfLcp8+fZ599lms0YVCIRj12dO0T0t/RN0TZa34iqIwAdYBx8Bb2DkZiUTuvffewYMHw9SZ+i4SMJGn6uv4JyNQWgR8Ph/ZW7lcrmnTpoEDJxIJGsAY2FWKfZco59semQDrIyZiK8r6T2W9ywS4tC200nInAixJEggwBrdZldOoQLGNiLJW+kyAtZD5b3g8Hsf2sGQyeccdd2BVs9K0uYD3DQaDaANutxsT1RhEXn311fv27SP/HDBk/S/cX5ZEJRblL8fq+pf4rCh3/aS1MZgAk6ZhGzl8rdPxSMcee+xTTz2FOiH3V2S/am1dFZKbqHuirJOWowmwJEniCrBt9wDjoOl9+/b97ne/GzRoEJSQtC4YDMKTnyRJ5LGcFJUFRqBUCIgemFAG6Gd1dfWsWbP27dsHMxkYGBu49UDsu0RZpx/LeosJcFZYKFDEVpQpQu4CE+BSNdLKzJcJcO5ts/CYYqcgyoWn+OUn4W4HiwPvvffeySefjCP4KlOn83prv99PBJjMCGVZPuKII5YvXw7Hj6gyHQIj1qkof7mWuv4lPivKXT9pbQwmwKRjOPmDSIi385Ik6fTTT3/55ZcxbwIObODAzuzaFnVPlHXydToBFr1A25YAK4oSDofvu+++IUOGgOUGAgFx1ReyLMu8DZhaKAslRyBzOoY6zJEjRy5YsAD2MtFo1NhOUuy7RFmnH8t6iwlwVlgoUMRWlClC7gIT4JK31ooqgIoAU0vPXWMLiCm2EVHWSopXgLWQ+SIcVkMgwE888QS2JtI3pqIUOq+Xhf0zOAxaApzvY/j4xz/+EduAcaqNzrdZVGJR7qLaMm6Lz4pyRsQSBzABhprR3rbq6moyh5Ykqb6+XpKkyZMnNzU1gbRYYFdjoE6IuifKOlmUEwHGVJfOhJcODmbfmj179iGHHAL1o+0bsiyTKno8HurW8uoMOTIjYB4CNNCEfiIjnA88bty41157DXPNOh/ZAlqW2HeJcr5J0bCYnWBlhU7EVpSzRtYPZAJsXhvklDMRoH5JkqSXXnqJWrq+lhZ5V2wjoqyVrJRLJK2H8w3PN6984+dbnlzip1Kp3bt3g62deOKJHo+nqqqKVgYya51D9BEAAR4yZMjWrVuTySRsy3EacC7VUfI4ZuskE2B9/ZEkCYTk/PPPhze1SCQC0KBL2F6OlWHyNG6s2og6IMrG5kKp1dfX0xQSDMK7hMhWEbACLE51GTsWJ6DEuhBlioDjYZLJZDqdhs0zTotRFOWBBx4A+62urqZzZWwFIxeGEcgLgYaGBkmSjj/++A0bNuDoQRxmQa0vHA6jn6RNwmJLMU9WtU303lhpSKVSCxYsyOs1Sx5ZtEJ3uVx8DnDJa4QLYAcEiADLslzwHmBVX2F4p8QEuGtIMbBeuXIlnYqBqrWDkjm0DHV1dQ888ICiKJFIxEDPHF3XZdExzG6QTID1VZpWg3v27HnjjTdi6oQmUCKRCG0MjkajALPoOlcnIOqAKKvjGfSbCXCOQIp1Icqqx2kqOhQKYS36iSeegNcrWKyQBrK1M0HBgrMQ8Pv9IGbdunW74oordu3apSgK+sZEIkGdJPxQWmyRoWqbTIBVHZRJP3kF2FlN2OmlZQKsbsiqjk99O+N3vvEzEjAgAJ+KPXv2/OxnP4NZkSRJvAJccOMkh1iTJk3avXt3R0cHHGIZUFWWJGG2TjIB1lct0QfvQQcddPvtt+N0bhrS0WoGLXQYrheiDoiy4RkhQSbAOQIr1oUoi49DPaAtWBBbvXr1uHHjYFlA1uaYZ+GJTv3GyHdtiwDYL/726NHjvvvuw7ELaAsiB6aeU2wmpsqqtskE2FS0KXEmwLZtrWVZMCbA1PS+EFQdn/p2xu9842ckYEAADgF+5ZVXvva1r7ndblQqE+BiWizQ69Wr15NPPqkoCgiMAVVlSRJm6yQT4C5Vy+Vyud3uqqoqSZIOPfTQv//976h5MiWIxWLmsV+Y8opqQLJJCsgEOEdgqSJUgvh4e3t7Op0Oh8PQlk2bNp155pnwa0jdu9vtxslbXaoiR2AE7IwAbdcaNWoUrBDp0MFoNIomgB0BYhsxWxabJ7pT7E2Aw2o2gTYJfybAdm6q5Vc2JsDqhqzq+NS3M37nGz8jAQMCMJKePXs2hkRer5d8opSfylrwRmC/mJmeMmUKpp9N2qtpQPVnJGG2TjIB1lfCYDCIxTrs1ZQkafTo0U8//TQM/EiR4CPaJNM+UQdEOUNZjAlgApwjjmJdiLLq8UQigVa2efPmq666Ct9p6tVBg+Gxjyc69Rsj37UzAlVVVZ7OC+YMl1xyyfbt2+PxOHgvjJ/RNCxeBFa1TV4BVnVQJv1kAmzn1lp+ZWMCrG7Iqo5PfTvjd77xMxIwJuDdd9897bTToKAej4eOmy8/lbXgjXA2Um1trSRJgwYN+uc//+msRWCzdZIJsL4Ser1eWp2DR2hZlseMGbN27VrQXTKBNm9lQ9QBUTamu8lIhQlwBiTZA8S6EGVVbLi/+vdS2E033YSOyNd5SZIUDAZJu4gS6ysk32UEbIgAndfldrvr6uokSaqtrZ05cybaAoz/0+k0kWFVGzH1p6ptMgE2FW1KnAmwDdtpGReJCTA1vS8EVcenvp3xO9/4GQkYEJBOp2+//fY+ffrATA5eUnhloMh2C+8yfr//l7/8JTEWA2rL/CTM1kkmwF2qVq9evRAHq8FojOeee+66desURYlGo+QO2iR1EHVAlE3KjglwjsCKdSHK4uPJZDIcDre2tv7tb38bOnSoJEmBQIAOPRKdbJO7tS4VkiMwAjZEgEwbgsEgjm8cPHjw22+/DUtjdJLkQl9sI2bLqrbJBNhswJE+E2AbNtIyLhITYHW7VnV86tsZv/ONn5GAAQGJROKiiy6CRRzOFShjlbXg1bxer8vlwuqK2+0eOXLkxx9/jE+gAbVlfhJm6yQTYH0lhObAjkCSJKgTzFavvfbaHTt24NBLbAMmi2hj9ULUAVE2NhdKjQkwQaEviHUhyuJT4XA4nU6//fbbo0aNwpIvTaNgX4bX6w0EAmwCrd8M+a7NEYAC+/1+r9eLovbo0UOSpOuvvx5ON8gOItl5iW3EbFnVNpkAmw040mcCbPM2W2bFcwYBtqbt2T8X2AKlUinMidIRtW+88QYsiMitIiZTy0xZLXsdeIEmX75VVVVz5swR1QMfZpzmKoZXiIzRQFNTE9UI+hH6yYIOAjfeeCNIbygUgpBOp7HWkUgkaGXYJGJskoqSa2KsdWNoqwOCrW65XK5ly5Zh0Qnr8+T2xiS4kCz6czr4V8z0s88+mzhxIln0SJKEvt1WuHFhGAEzEOjWrdvrr79O7ZHORjK1MeonDjcraLDxeHz+/PlmvLhJadLXGX0I9uPov2+p7jIBNkkHONmsCBhCgM1uLJLZGTglfVqEpI4Y85TTp0+XZRmOZ6lGecCUVeNzDIT9s9vtxtrLWWedBboCWkIzEcDfKfpjVDmZAOeoRZnR6uvrBw8ePHv27P3796M6YrGYuM8tlUolk0n4ATaqvixIhwlwASCnUql0Oh2NRrEzPN55YTbkxhtvrKuro5k4Puw3sylxSBkjcN11133yySdwghUOh9ErFtDEjHqECbBRSOqnwwS4jBu1DV+N6JIsy3BBTyRLX1GtvMsE+L9oYzMqumMsFr3//vuHHHIILC1lWaa1XzIrsqHa2b9IXq8XK8A4yaZHjx7PPfccrQ5h0QZk2CQvvv+tcvtJTIALU2C/34/5lP79+z/44IOoWHg3TafT8Xictpo7a/lXUZRyIsBUI2a3PCLAyAiVnk6nH3300X79+sH4GZrm9/t5QrOwRsdPORGBwYMHP/roo1j7xSmPpR2YVhQBFs2/Rdns/lBRFCbATmytzi0zE2ALGrVhWYjGz5DRZcAtCkZI5CCUnWAV3CyxhxMzCGghbrf7e9/7HioyGo3ic4iBMmTD6tgJCTEBLky14M4XDXPMmDHPP/88GcHC/DUWiyEkkUgQGXaCRjieAL/wwguKomAyyzICLNY+efpZv379scceK0kSuX1G987+rgprdPyU4xCA94SLLrooFAph7RdNsoQ9IRNgayYgmAA7rrU6usBMgPU6VXH2S5T1njHzHj4GODoFg6ddu3aNHDnS5XL5fD5YQWMFmEdLxTRLUF9gCFR9Pl+PHj1U3inpnAYz6/z/0hZ1T5TNzlcrfSbAhWmX2+12uVx+vx+zVCeddBJO2IpEIkR3o52XHba9Zda+qHuiXAYrwCIBppXYTAT0Q0RMRFnrKZo7SyQS4XBYUZTNmzdfdNFFYLwwFuC138LaGj/lXARgdXX44YevXLkSbScUChlIwMS2Kcpa7ZR2I2PQVfZ7gEVMRFkHH6NuMQF2brN1YsmZAOu1XLHxi7LeM+bfo2GToiiLFy+Gvxks/3q9Xgi8Z6zI1giuQlaIrs7rl7/8JQbH5KkIWmF2nYu6J8pm56uVPhPggrULHqExw+J2uy+44IJ33nkHAyyMrlKplLgwqFUFJQkXdU+Uy4MAY8MhdjfQkDcvnEVMRFknkVgsFo/HaWA9d+5cmneDjtFUJj7VBSseP8gIOAUBd+fl9/t/8YtfYGYwGo0auCtEbJuirNNOeQXYwAkIHZyZADulkZZHOZkA6zRG2628oazUEzU3N0+aNAmKCN6L5UpJkmDEWx46WpK3AJ4wREQjcblcX/3qVzdv3owzbGi4TNWhp0nF3RM/0qJcXKqFP80EuDCdhFKhbYLY1NfX/+QnP9m5cycqAya4yWRSdAddeD0Z/aSoe6JcNgQYRJRmIvLFT8RElHXSicVi5ETglVdeGT9+PLw5QMFEPw7cpRfW6PgpJyKAReARI0asXbsW1NfAaUGxbYqyTjutKAKsg4PZt5gAO7G1OrfMTID1WrTYOYqy3jNm3oOnHIyPE4nE+++/X1VVhSqkhQKPxwMHTs5VypKXXARTkiQcuQm7xOeff76lpQUMEN4pzazwL9IWdU+ULcg6axZMgAtTUVmW0Tb9fr+4z3zGjBk4HJgMoUUrj6xVUJJAUfdEuQwI8PPPP09r75YRYDjBQlXu3bv3V7/6lSRJMI+XZdnj8aBvr6mpKUzf+ClGwKEINDQ0wPxq3rx5OHTQwC5R7LtEWadTZQKsA46Bt5gAO7TBOrTYTIANbLymJ4XT4TFKbmlpmTZtGp8PaWXD83g848eP37VrVyqVwrQ0asT0irdZBiDA27ZtkySJfK2RYGWNlEdeHo9nwYIF2OyNkRYcn2pVe46DNq3HzQjv0aMH6gJq4LjlysbGRiCf6rwKM4EuAFha6n/sscfq6+tpz0V5KHaRb6F1mjR1NTj5D7lg+0/mI3LnpSoJmUqpwvETj2T9S/GRAsZPFIhJUuyXoVuqvHC4gOou/RSTqlgZfkzwd/jw4c3NzfF43EACnG87TafTyJ3Wou+66y5n1Q6aDNRMluXRo0fnC4I18R1NgOkQFrfbTceIOEtP7F9aA7tKcbuo3+9fvnw5xmDWqHruufAxSF9ghfNCYTL3zjvvwF6OjHXtr7tlUMIBAwY8/fTTNFbOXYnLKSYTYMM1eejQoeDAiqLgiGCdAZ8NCXD37t2BCRPgvFo6ZjO3bdt21lln+Xw+7sy1WhZoJLgldMztdgc6L4/H43a7yWwnM4WsHBhzDYFAwO/3E3nGs9iDir+UI7HuzPQzWTfigOt6Oy8UUmTsFMfAIV1m2ZwYglYA+/9DDjmk5OdzMgHOq08rJrKjCTDtPaRmDkHsQ8yQxf5KlM3IK5c0xTKIstazYhxR1oqvFS4+K8pa8dE3YrLe7XZjErzkDuczmw8T4P9i0tHRkUqlYrHY7bffXldXJy7BOfFT57gyy7J84YUXwiklXGHBQOu/NVQBEhNgY/UWNq6jRo1qbGyE/2f9DW92I8DpdFpFgMXNq8ZiZVJqJVkBxh6KRCLxhz/8AYN+JsBi/YL0Yigj8k/sIKDBJT6Cfr8fAx3E9wgXreXiEewSUhFmkWCrykC3QJUpYThKFOmryHi9Xq/P51OZQoCoi+VBkVBmMd8Kl1GVkiTV1tZee+21pf2oMgG2DH9HE2Dqo7DXye12o6+o8LZs29dH7QQCAa/X6/f7MdGmP/SyrCGIGTEB/gKNdDqN4yI//vjjCRMmYMKJWp1t9axsCgao+/bt+9Zbb8FbbDQa1bdWFfW4bGQmwIarNBaRxowZs3r1akVR2tvbAXJWnWECbDj+JSHA6DrWrVt3zDHH4I3AoAx/u7JJkPBxu93BYLC+vr6urg5HAOq/o8fjqamp6dOnz2GHHXbEO5zxggAAIABJREFUEUeMHj167Nixl1xyyaWXXjp16tTLL7982rRpV1555TXXXDN9+vRf/epX11133TXXXPOLX/zipz/96dSpUy+99NKLL7547Nixo0ePPvLIIw8//PCDDjqoe/fuVVVVqtVjsRgguuByIk/OJMY8kS3ihmMdYU8uy/LRRx994MCBrD2hNYFMgK3BWVEURxNgTGTT5C+Gi+iyxAVJkrVWJilCjoJWOlrhOSZL0fJNx4z4YppUMJUgxhFlVTT6qepzli1bRg4pLVP4XDJiAvwFShgTp9PpRYsW1dXVybJcW1srflnFGmXZcARkWcb5UrfccgvqgnYM5qLHZROHCbDhqhUIBDAsPv/88+FpXEdbmAAbjn9JCDBmOq655hqY42K1ULUyafibOihBWimlb5zL5VKtqeJ1sOQiSVJVVdVhhx02YcKEH/3oRzfffPNf/vKXRx99dN26devXr9+0adP27dv37dsXDofRg4VCofb29o6OjkgkEovFEokEjnZH00smk/F4PBwOh0Kh1tbWlpYW7BALh8P79+/fsWPHtm3b3n333Q0bNixbtmzx4sXz5s2bPn36ueeeO2rUqAEDBjQ0NJCvOyqkz+fD8c6YvPb7/Vh/cFClWFBUt9uN7ywMIqqqql577TWd/tDsW0yAzUaY0nc0AUbTOOSQQ+rq6nDeYWETW2K/J8pGNT0xzVxkrXy1ntWKn2840s/3qdzjY+HX5XLV1dX169dv6dKl+/fvN/C4NdLqIgUmwF8C8LPPPrvwwgtxWgb8puRe5RyzGARcLheGL6NGjdq6davOLs0vVVjZ/WACXIwWZT4Lf78Y5Xs8ngsuuGDbtm06WsMEOBPDIkNKRYBfeOGFww8/XJIkv9/v8/kwb13ku5TT47Is+3w+TA+RrRNocDAY7N+//9ixY6dOnTpv3rwlS5bs3Llz9+7dra2t0WgUnTOoC6Yp0WtRs1L9pHD4P8v6iBiHZKSDU/Hi8XgsFotEIh0dHaFQ6KWXXlq0aNGsWbOmTJkyZsyYvn374hXq6upA8FBTmFeF9+9yqruC3wUu0EEegNjs2bMJcOsFJsCWYe5oAty9e/dTTz116dKlqzqvV1999Z///Ofbb7/9hsb1Zp6XRjJvaCWTb3y7paNVfq3wfMuPdF555ZXVq1c/++yz9lz+VRSFCfB/+59EIrFkyZKBAwdizCR+Rwv+3vCDOSKATR3wm3LHHXfAHN2Gewb+qy7mSEyAc1SYHKPRigfMKXv27Dljxgy4wspagXYjwKlUqlu3bnhZDFjJDCxHBEoerSQEuKWlZcqUKWTwiT2lJYfCPgVQraB6PJ76+vrevXufc84506dP//vf//7ee+/RDhRQVrG9JJPJSCSS1VE/KE2s84p/+aL+HC4nidDC1wM1PTGjrDLFhM+O5ubm7du3v/3226+99tpll1121llnHXnkkd27dydWbx/Y7VASWurHgv+ECRNK6JyGCXBWDTcj0NEEWJKks88+e8+ePUAmnU5DaakrUAlaAKqidfnTqHS6zCjHCPmWJ8f4FE2rGBRBJejHB+/FZ6K5uZk+KKpESviTCfB/wf/353nGjBn4KtTW1oIG2+GLVQllwBodFoEnTZqUSCTEkzz/W0nlLjEBNlzbq6qq3G63LMs4ALN3797333+/lh6JHbpWHCvDmQAXhvaGDRswlSmaPbMfLGpcZPncq1evCRMm3HLLLWvXrg2FQsRR6eQw9EgwYKbFWwQqihKPx8m8WWw7FEFVfYijCsRPcUk5lUolk0kURhWeSCSymtLBrBqO7nbt2vXGG2888MADU6dOPfLII6uqqujFWSBjK3jP7t69e2tra9YasSCQCbAFICMLpxPgc845p7m5Gf1SOp3O2gl0Caaqj6KfXT6YYwRKMEdBK1mtx7Xi2zA8lUphR0wymUyn06g7u5WzEgkw5ptBsfBFj8fj6XR606ZN3bt3F099yLonir+gJiHg9XpxPmF9ff1f/vIXNBXVgAyLBiU0kBY7pmIas5iOSlYUhc8BNknHKNnFixdjCrmtrQ2WmeFwuIBvqlh3JukDPNLDbw39pRexuSDL8gsvvEBn/wJhLXZUAICpVAo1SL580L2fdtppMHzFgjlmQGyOVTHFA6GFVTPZCHi9XnzC/H4/aZHP56uqqjr22GMvu+yyRYsWffrpp4C94DFlAbVm6iMiYU4mk9FotKOj4y9/+ctVV101ZswYwoHQxooozQjQ7jh4tEY0CqSnnCugLbhcLuhJfX09POSjUmirtvjlNa++0BWIvei8efMchC2pDSbXZFkeM2aMeXAVk7KjCbAsyyeffDI+2bQFoxg0VM9iuUXUQ8iqaBX7MxOZ8sCnEgkwWlE0GlVV4Zw5c+i8B3GTjIO6Y0cXFYMMfJgvvfRSccYICwI0bibB+v5I7AiKyV1MRyUzAbZAjUePHv3ss89iCQv29oXZ54h1Z5I+0JCdSI4F+BiVhdkEGB7jMcdMNPvll18eMGAAJgswykffQqNVo97OPumg24R7GDA6GADDlSN2flZVVR133HE33HDDY489duDAARw1B6XFsqptd2rl1bJAgIlZJRIJnAgdDoebmppWrlw5d+7cH/7wh4MHDxank/x+f3V1dVVVlb/zEmdMgB7NJtin0gsrCbUCcDa/3z9//nxaiSXDK2tmmamaqCNlApyXtucemQmwDlakfiToRK7AWwSLSnA6FBVHgMmICx/FWCyGjr6lpWX06NGSJJGZnGg7V9iXhp8qAAGs2xx66KFr1qwRWxc4MEIKWKkTkypGFtu/UemIaWJAwCvABWhOvo+ceuqp69atUxQF9KmwAZ9Yd2bog6IocEpPg3Uav+b7viWJbzYBRnvBInAsFotGo21tbVOmTAFKdCiOs0AroKZ8Pp/oHJX8frndbq/X+5WvfOXcc8/94x//uG7dOjKAEq2aC1P+YhTepGfRHsXXgQ+tcDgsLmnu3r177dq1S5YsOfPMM4cPHw5/H5g4UG0XBx9GjZTZpmJa1p4yZUqy8yL2i9oRYTSvvsioFXXHBNgkqJkA6wArfsfxTdGJXIG3VPjQT6dDUXEEmLYVQWhra8O091NPPYXPm8fjgUCGZAUMR/iRfBGgUyirq6sxWr3xxhsxRKOBCzyqpFIpJsD5wsvxVQjAJ9ZZZ5317rvvggMrioJJsbz6dPoSFPnVFNMRZUVR6uvr0SLQLzmLy5lNgGHOg3N0sKTZ2NjYt29fmPBgNpO8/qh0oCx/wo8gXs3lcg0ZMuSyyy578cUXwXtBNsS1X8wI09+8lN+GkantiGVD2wQTJhNfRNizZ8+qVatmzpw5YcIE8jZX3Xn5/X60NRwEVR7sF4eik0EELORHjhyJ3XoqAkxfXhFMY2WqGqo4JsDGIkypMQEmKDIFUr8iv+OZKZdHiIiPKDv97SqOAGNSk2y9sHQQCoXOPvtsnB8Id8Ti6SllOU6y4Uv5fD7MvmMn8P/8z/988MEH5GcF9o3xeNyCaWmdVm1U4xfTUclsAm2BclZXV4MdXXbZZdgGWdisilh3OmrT5S0xHVFmAqwPHcbo8Xg8EomgZ/jZz34mzhegV0dIGft0wHk/tbW1MFySZXnkyJGXX3755s2bP//8c6CEVT5si43FYuS/SsUJ9QG3/100HyontSZy6wV7b7w+jXc/+OCDRx55ZMqUKfCdBheYdXV10BmPx+Pz+Zw195S1F5Vl2eVy0So33q5Pnz67du0CYjCHASxMgLNiKAaSSuBrwnuARXAMlM3eA0y9BHUI1IGwUMYIVBwBRl3SgACj3jVr1lRXV5MzDHhHFM2hDWzJnJQWAt7OS5Kk6upqfJjvvvtu1Fc0GiV+YsFXWafBG9VRiumoZCbAWhpiYLgsy3A5HgwGb7rpJiwhFjC3Itadjtp0eUtMR5RBgLH6xCvAmTDSeAVnLWzbtm3YsGEACpOY1KvgdHcDVchWSVVVVZF6DB06dNq0aStXrhS9+8bj8XA4HIvFQHdp1zQgpXOJMhF2aAg1Iixud3R0xGIx0hZ6qebm5nA4jIafSCS2bdv24IMPXnHFFf379weeotqUx64obG8GcwMf9vv9b731FjCBFQwAKaA/JGBzFFAjVFnpdJpXgHOELt9ovAKsgxhpoE4cvlV+CFQiAcbHniweQ6HQT3/6U0mS8HnD/Ch23NF+YFuNdcq4MOC9cEUmSdJJJ520d+9emK6ReWo0GrXgw6zV1KmjzBxLaT2SNVxMRyUzAbZAw71eL3HggQMH3n333bt37xZNQ7PWWmagWHeZd3MPEdMRZUVRGhoaMBYnhmMBPkZlYbYJNAxDcGROIpG47bbbAoEA7Dz9fj9OgUY3TqteRr2ardJBz9m9e/fzzjvvySefJOoL4kernTg4F3bjRHpjsVhZHjtH3rCor8ZRSUADHxG0tVQqlUgkKFo8Hl+0aNH//u//wii6zCbEoSrYI0B///GPf2CKGabymDXIvfsqOCYT4IKhy/dBJsA6iKEf0InAt8oSgYojwJj/xscvHA6DbPTv358WCsiVCBYQbDXKKePC4Kvs6rwwOQ0a/M9//hPueYkAF8BSDGy6KnJScMpiOiqZCbAFel5VVQWrUfhYHj58+JIlSwqoTbHuCnicHhHTEWUiwFirIVdYFkBkSBYWEOBkMolRe0dHx7e+9S1a2hKnL2VZLvvDYEeOHDlnzpxPPvkEShWJRHC8H7a406QhDKFpQyyxvrI5BimzTZGrcAIBmMCpBFFfeJeIx+PYIbV79+7777//+OOPR0OgLcGGtIsSJkJ+0SFgWu3uu+/GcAiWFKLLScLTDIEJsBmoZk2TCXBWWDiwkhGoOAKsKApGS9FoFBPhN910Uwm/RgZmjRUPzOnW19dLklRbW2tg+iVJavz48dgG3NHRkU6n8Xku7xabSqW2bt1KLjppl1FJ8C/vTGEFjYHgV77ylVWrVqVSqVAohF2CMBIp7Q7JdDrdvXt31AKGqo5zztfY2EjDXHK+YGwTxiHAixcvpnOAylVvMWuD7Tl1dXUg+Q0NDT/+8Y+3bNmCrhKbXYnX5QW1OPkiynklUh6RsSL6ySefTJ8+HdNkdCCZu/OCjpXH8UiXXHIJao2aKu05MrU26fglZJdIJO666y5nNV7RMEeW5dGjR5uKWMGJMwEuGDp+sFwRqDgCjE1Q+JtMJj/66KOJEyc6q8PVL2337t1hAUiWTvrxbX53wIABOA8J4zmY6mGuulzbJBNgC3QSJtDgDz6fD4OYUaNG/etf/0qn09hzDgF0olTKxgS4S+Tj8XgsFmtra7vuuutEBz8WaJH1WUBRXS5XTU0NevgTTjjh73//++effw6g4AyMaEyX6KkiiKRXlFXRKuEnmRp99NFHCxYsGDduHOwv8Hl1u920JVi0NbBeJQzJ8bvf/S4mp1Dplh21wATYsqbEBNgyqDkjpyBQcQQYS4ihUAi7XB588MGamhpDPiGlTSQYDLpcLq/Xe/rpp2OiukePHhgtlbZgRebu9XqnTZsGszTanmTN5HSp2jAT4CJ1JvfHQSF8Ph8tpk2ePHnz5s3oHGAhAvvJUikDE2B95NPpNDz5v/7660cddZTjTMRz11XERJdO36wzzjhjzZo1tHqGmUFwGEVRynuiUF8xir8bjUYjkQimEkKh0MKFC7/xjW+gFmh7FE5IyrcSbRj/+OOPB+EHI7XSBBp26aTDvAJcvOpmTYEJcFZYOLCSEag4AhyLxVKpFD5se/bs+d73vidJEs7dseFnKfciwTDya1/72jPPPIMjnWAFnXsK9ozpcrmGDh26adMmsl0v++bKBNgCVZRl2dN50SQRTgaWJOlHP/rR9u3bFUUhe3tiwtbrHhNgfcxTqRSq6fbbb3foNum8tN3tdqNj93g8F1988fr168HQkskkPm2KopBAfhP0MeS7mQiAlaVSqba2Nky8tre3/+tf/5o4cSJGC/C1htOS8qpBe0YeNmyYavYkExMzQngF2AxUs6bJBDgrLBxYyQhUHAHG+ABH6SxdunTAgAGyLJcBAcZn9dJLLw2FQg888AA8dpTB9lHYNP75z3+mVlryo4CpJCYJTIAtGCO63W7yAUObBai9zJgxY9++fdhRSUM0k6pbP1kmwF3iA9cA3//+93GCGvnzt0CLrM8Crrzq6uquvfbaHTt20FkGhBKdbwQ3VxTOQl4I0FdGBeObb76J+WWaiSgPDjxo0CBMl4i79EWfYXmhl3tk6l15BTh30AqLyQS4MNz4qTJGoOIIMHxdJpPJ9vb2qVOnls0B9y6Xq1+/fg8//HAymdy8efPRRx8tHmBo/UDNqByxz2rSpEnbtm3DkSfRaLS0RwGb3R0wATZKefTToZ17NTU1wWAQh51gLqx///6zZ89GRdNWQLPrPWv6TICzwkKBGKOvWbNm2LBhkiTBNpg2Z+orgEPvNjQ0/PrXv961axftTo/FYti1Dg/PCMe6JQHFQr4IRCIRsiGPx+PYXK0oyhtvvHHuuedCebDzyKGKJBa7X79+IMDwHI5mJZLhfNHLMT4T4ByBKj4aE+DiMeQUygyBiiPAOAlQUZQ1a9YMHjy4PFgivmTf/e53P/74YxzwMGfOHFrOEr9zjpN9Pp/X6+3du/d9992H8ypL65XXgvbPBNgCLZVlWXTlSobQkiRhC/1hhx22ePFiGEDCytSCqs/MgglwJiZiCBaOZs2ahXOtsKpPUxsWKJLFWdTW1t5yyy07duyg03pou6ZoCx2NRgsjwKLjK1EWMa8cmc5PhvNF2obz2muvnXTSSVj7pf3YFmuCsdl1794dM32YXMZfC/o9JsCWtSYmwJZBzRk5BYGKI8B0wMm8efMw6vV4POLw19jvimWp+Xy+WbNmpdPpWCwWj8e3bdv276ES2XZaVgwzMqqurpYk6corr8RJSKV1SmRBw2YCbIYWqdLEAUi+zkuSJOwHhkCTYkcfffTq1atTqZQFA0EtvWICrIUMwkGAp0yZgvrF4WFl0J+r1JV+Tp06de3atXh3TOYCAToijvhwKpWiBUx9DMW7IukVZTFOJcg4fB42R2j+6AdoW/VTTz0Fp2tut7sMvrO1tbUgwFj7hVJZUNFMgC0AGVkwAbYMas7IKQhIVn7krMxLvwL27ds3dOhQSZLEg0BpkGFnwe12uzov2noky3IwGOzbt280GoX3WkVRDhw4cPXVV+NMYBwaSasi4JN2fkexbLIsd+/eXZblvn37vvDCC3g1/cp19F0MtrZt20Z1JwoiMiybgYAsyzU1NW63GwYUY8eOXb16NVZ+sCoSDocxRgyHwxaYCKZSqW7duuFNwescdw4wmi2wAoYA0Kh2umHDhu7du7vdbr/fj77ODMWwPs1gMAglJGHatGniN1SUjQKT09FHAGqMieb777//4IMPxqwZZl4y/2ZVmxIaZ2ll7fF49u/fryhKW1sbvkFkYqAPSJF3aXIBdvupVGru3LlZQbNnIOGJ8ZUsy2PGjCkSEzMeT6fTs2bNgn7i60YltyewqlK53e5x48ZhZz4mochIQewGScZIOPMvRcgqZCKfmQJCsj6uH5iZFIwZC05QPzv9u9gsk/k3s5AUQgmKKNFdlYDawV/aVWHsd18sRsFyxRFgVMnChQtBq4gWqtqbbX9SP6vqv6677jo0p3Q6jXdsbGwU2TJ5iHHW8ojH46HFut/+9rd0QGvBGm/zB5kA26Tp+f1+NJ/zzz9/69atcJ6HhRFsuaQdmKZqVBmsAJtKgJPJ5MKFCwOBANx6l81sEbYx+/3+YDAIYn/mmWeuW7eORiEqwVQl5MRVCOALu23btgULFsyePXvOnDmzNK7ZwvV74RKCvyRqJDNLePRL4pce7vyhlQLCxYfFZ3/729/CtAqvBu1SzL+YAJuP8f/l4HQCHAgETj75ZDAo/O3o6CAzDWswrORciCoT0dXvIqLRKNwtEWhkmkQhdhAqjgBHo9FwOHzaaaeRs1Bn2S+BvpLnaiwH9ezZ87333sPuX9oiG4vFTjzxRNhz4h1ra2vxuONoP15z1KhRb7zxBszS7NB4zCgDE+DSEmDMK3k7L5p5+fGPf9zc3KwoCjnCCYfDGCmaoQNimkyARTQy5Vgsdumll+L433I6Bgmk1+fzYbnmqKOOevrppzGQVVFf/YFIJmIcUjwCZFseCoWw3TrRecX/c8X+cyEcf2kQqSP8JwH1/6jGlUwmxSwgY+tyZngikRCzFiMcOHBAURQwCsSx5jvLBLh4bcwlBacTYEmSvvGNb4RCIXLig7cWdViUs3aSWBwSo5Gsbm/xOG5ppZMZHyGUoEoQ2x1kRMhMB+GZ8cWnVIkX8DPf9LV0TCtrqp1YLAbYo9GoBRZzWuXUCq84ApxOp5ctW9azZ08yIcY6T2mH3bnnjgG6y+WCu1owwx/+8Ic4qjSVSmGRCl/oRx55BEsicNRBvNdZnB9+iVwul9fr/cMf/kDnfGjptKPDmQDn3hbMiAnSi7+yLGO/wL+7iJkzZ4IDt7W1YWjY2tpqjab16NEDb4rZK8c1XlNXgFtaWrAVEz0h/jrLyEVLjXv27Il14IaGhttvvx36pjUgs0YVOReyASHzRdEShGqH1klIoFuFCVrIIzXKhYQcc6H4eAsMGzo6OrDIZsEcHxNgrZo1NtzpBNjj8ZxxxhnwAhMOhzG/pKOfWvqfL6pGpZNvvnaLTx2FStApJyyf0cDJLlUnfkluVRwBVhTlkksucXVeHo9HHDZpDUTsFi53Xi6XC0PhmpqaF154gWghvtCYKmtubqbRIY2b4f/Wbi+lVR5Q90AggCWRSZMmffzxx2hUJWkwZmfKBFhLE6wJx7wS+gfs7kNIdXX1/PnzUTvwFkMnhZqtEkyAdRDeuHFjQ0ODJEnihKBqe4g1mmN4Lr179/b5fB6P5/zzz//www9hhK8DBd+yAAF8XpFRIpHAlhxaEKYlehomYqWFfpKgtQKjNeDWWAD+wusHkhXT1EqHCkACngKjQP9Gjr4swBM5gm/DIRbvATYDdqcTYEmSvvOd72ROOmvpuRaGWvGpOagi5JuO6nH9n/CrR3HEvKg8KoEiFymoku3yp1g2UdZ6MJlMir0izp0t7YmSYrFJrjgCvGXLlkMOOYQGK1VVVTCfoxD7C7S+gRXdU045BatSWAQmMwMIt9xyC0h+IBCgB0mw/8vidBPycNO/f/+HH34Y30tS4nISmACXXCdpUgxzRh6PB+Tq0EMP/cc//iE6htWZgTZKJ9kEWh/Je++9FyY8mCArD+pL/hokSRo3btyrr75qjT2qPtR8lzYZoZcGIOTHmNgvQjKHhsWMWbXA18orM3eEiGVQxaGXQhwMJ7TyNSqcCbBRSOqn43QC3KdPn/POO2/Lli37Oq/9+/e3trbikMKObFdI44poXJlphDsvjWRCmfERopH8F8FIU/xL6YiBOrJ++pl3KX1jBZ0S4lY8Hm9tbe3o6Ni3b19TU5NtR+wVR4BnzJiBFVT4C/V6vWQYXPKRdy4FoH1uILHV1dUPPPAA+j6Y4+OrhpBkMvnuu+/C37XH43G73RjcO2uYGAgEcNQECMnkyZPhr1K/x3foXSbAubQCU+PA7FmW5aqqKuoc6uvrwUZeeOEFrJCk02mabDJP2ZgA62M7efJkKAPVFJm6mKokZicOfevRo8cf//hHICCuPepjwnfNQwCeXRKJhEgXReorMsyssn7Zsj6SY6BIaLUeQe6ZdxGOHcXg+UyAc2njNJRC/8NeoHMBrbA4Ho/nG9/4xpgxY4455pj/6byGDx/+NY3rSI3rCI1LTGaEcGkkc6QQ5UuiRvJfChYf0Mr3Sw8U8UNMX5TFMhQgU4m0nh02bNjQoUOPPvroY489dsKECS+++KINl38VRak4AnzkkUeC+pJ7YSwCF9YmrX/K5XKhz0WxDz744N27d8PaHk56MCgHGVY6r+985zswJKZjn6jXtr78BeRYW1uLVfru3btLkjR48GB4/MLbldlfJsAFaIiBj4jGES6Xi2iVJEnQw4kTJ27ZsgUOYyyY1+RjkPQb+LBhw1D7NK2JpWADVaJUSXk8nvHjx2/YsIG8r1kw4aKPNt8F1xUZL7ZCpIVLREll5UixRLIqyuKzuciUoGopWOtZMT7JqVQqEokgBXGexQJ94xVgrZoyNtzpK8CYEMRuF1q7KlXPXEC+9HnK8VnEz/yb4+OmRhNLpZURxk6YjK6vr3/22WeN1WejUpOMSshu6aBjDYVC2H6N6cy77rpLq8KcEg63KBiLwymUoijiR0tVEYlEYsWKFX369CH2W1dX5yACjKL6fD7autytW7eLLrpIURR4Wsfm51AoZM2MtQpew38yAbZtS4QhtCRJZ5111jvvvKMoyt69e1UKQD4qaXCpElTxu/zp9BVgWZaXL1+O18QIG+tLXb64KgKIBDo6nMKqKMrGjRttqy05Foz2p5B2YYoTMy9PPfUUplrolVWw8M8iEVA1T/pZZLKGP04FwwfC8PRLlaCqT0gkEvPnz8+x7dgkGs2ZwjrvuOOOKxWY+vnOnj0boyn0MPlSMpugzcVwEAI4wuDfHrxXrVplwWqBvv5nvVvOBJg8j2E39s6dO8877zwHaY9WUcl31+DBg0UPq1krWFGUpqamM844g459ov5aK31bhYPwYzhIzWnYsGHvv/8+TcaLZFgLBKeEMwG2lfqJhfH7/dDG3r17//SnP12/fj12ZsLaQrS50Fr2KWDwygSYWi715ziwVFGUp59+Wqwgh8ruzguFx7lHkE855ZTNmzejc9Of5SSIWMgXAZFYinK+6Zgd385lK+bdmQAXg15ezzIBdugHwrnFphE7E+C8mqoBkZPJJJYE4/F4R0eHoijPPPNMr169nKtMVPJgMAgX0FOnTt29e7fIA7MCl0gk7r33XuxsxF9abaA0bSvAiAIEmKzWXS7Xn/70JxhogVRgeklnJTxcwJcjAAAgAElEQVQrMjYMZAJsW1V0uVzETxoaGm644QY4n8PpmtAlWDOKFpLiyLUCCbAkScuXL8eLqwa7+ba+VCpFvu7R9m+88UbbakvuBcOZW7DroxGD2+1+8MEHgRte1gJ71HxrpAziq5on/bTbq1HBCuhD7PYuYnlUfYITV4BpmwyvAOfe6XHMSkCAPmdMgMVOzwo5nU7DV017ezumzy+//PIy0Dnyh9y3b9+lS5diDUrHugC3tm7dOnbsWByoK8sybQm2PyBkAo2iBoNBfG9OPPFELALHYjFacGMCbP8KdWgJybVSVVUVbCiOOuqoW265BSqXSCTQ0NLpNJw9iANWUc6373P6CrAkSY2NjcUTYCz/EgfG/OZ3vvMdh6oTFRvHm4u72mRZ9vl8X/3qV+noI8yqlBnzybchmBRfbJuibFJ2BSdr57IV/FKYKETPifkdJsDFgKn/LK8AU6/LgjUIMAHWb5Lm3sUhJVj+3bBhw8CBA62pdVNzoZ0bp59++meffYYBt/5xLLFY7N9flxkzZmCYJUmSg6ygUVSv1wsmTDuBa2pqHnroIbIPxHyHzkSAuapmXOoY5m7btk2sJgfVl6nKX8LEaZqfzBBkWe7Tp8/TTz+Nwwnb29vRDOEhVhywinK+msIEGIiB+mL/MOR9+/YNHz68hCphSNbo1rA/BTqGkOnTp8fj8WQyiWlcWDMxB863+XQZX2ybotzlgyWM4JRy5gJR2awAY2DmcrlGjx6dy4tbH4cJsCE9NieSOwJMgK1v5l/kCLtEjCHi8fjvf/97SZKc5fBZR8969ep1zz334O3A8HWAxgB9zZo1RxxxhEirdNK3zy0iHkSAach40UUX7dixgywD7elmXadest5iAmwf3VOVxOfzwWURTSRJkjRq1KjnnnsOSxmhUAh1SiYJ4lAVctZK1wksDwJMy+MQCpioIuNnYJtMJrds2dK7d29VHTnuJywLPB4PDaDRRb/++uuKomDuUpzm01EVvlUAApkttLB2WkDWBT8ilrngRGzyIBNgyyqCCbDjvg5OLzATYMtatzojuPXHJr3169d//etfJzfIjtYqLAaeeuqpW7duxQiJzkBSQ9D5O5VKhcPheDweCoWuu+468UBdZ+GAbc9ut5uWQwcPHrxkyRJ6a/1lcIpmc4EJsG3V0uv1BgIBqJ/b7Q4Ggzhx58wzz8QWF/I7wHuAxUpctmxZ8QSYTl4FE04kEi+99FIZnHjk9Xo9Hg9ehOxcxo4di+8XnTVN03w2774cVzyRTIqynV/EKeXMBUOnE2AySaMJel4BFjt/lisZASbAufSBpsTBkKu5uVlRlEceecTlcjnI85NOm8GKwTXXXAOjOKzuwkwuK44YOWEiYNGiRVjCog2NOhnZ55bP54PjfqK+tAR38803k0vYrK/vuEAmwPZRPLEkaDKyLPv9fox1oI3dunWTJGny5MmffvopJqSI7InjVJLzVcgyWAEmAkwewgpYAcZWf7jaxn6HxYsXixXkaBnahcPtgsHgrbfeqigKDi+IRCLg/Gz/nG/bySU+NUyVkMuzpYojFrVUZTAqXybARiHZZTq8Auzob4QTC88EuMtWaWIEeEjevXv3uHHjJEmCA2SnqBG5qoJ1nCRJGCS53e6+ffvS8m8u8MViMTDkvXv3XnjhhWCPsLgjc2KfzxcIBOin/VEC/Rg0aNC6devK76jMpqYmVAFt+bZ/jVAJaaMB3Nu6Oi+6W5aCLMtTpkzZvn27oigwxceBwKAutHxXGIdpaGgQJ4Ac1EhR142NjWC8xRBgDJTF43DPOuusMpjTpNr0eDwNDQ2SJPXr1++9997LpWM3Kg62C0E5RXKVi6xVhlyeFePYLR2xbMXIpXqvfPOF0Uqy8yqsm9LKsctwZAcDrlQqtWDBAmd9IzAUQUOWZZlXgJ1VfVxakxCgFiHL8ssvv4wepsvewOII5XwOMGbQn3766SFDhtApuCZVthnJwi6ODsmg9c9LLrnkwIEDUJRkMolNcTp6gw9MMpmMRCL33HNPfX09ddkej4c22UqSRKMxM17H8DRdLldDQ8Odd96JPXJEM3SgcMotRxNgbGIkvSK9NVwB7JAgOJgsy3379r3pppuwDbitrY2cNsFvE9xEF7DyqSgKCDDt3ndWI4UXaEMIMHgI3G6nUqlTTz2VtmTbQRMKKwP2dGCeC7p0/PHHY+rW1M5K1VvC1tpi5iO+ICZHMv+KcSpZzkSGppMMgSUcDkciEdpGhJkma9xqMAE2pAa7TIRXgAvrovmpwhBgAtxlkzQxAkai+/fvv/jii3HqDy3HF1adFj9FS3+0cI0VYJ/Pt3LlSpx+BJNL2EJrQUljGvjK+uCDD7AdGnQXuRBFcdaAEoCcfPLJO3fuTKVShX2ttWb3tfC0Jty5BBi9ns/nw/QN6shxnC33xo5N9XjBfv36zZ07F+0RM1PQFhzho6IcuSsSzVjRvFXuxbNDTKNWgIEYuHRra+uYMWPs8HZFlgH6Q/6fXS7XT37yEwuOc9u/fz/MEygvMi/X6hJNDddqDqZmakHioKnFZ2Q2PpQ+tIJ+WiAwAbYAZEVRmAAX2Vfz43khwATYmnadPRdsjn3llVcOP/xwMvrNq/5KGxnMQZIkEAm/3w92etJJJ2FDLwaC8c4rOwSdoeRGBechK4oyc+ZMnNhOa3Qej8fr9cLLVGnfOq/cUf6ampqFCxdiJzBNYOsAorqlNTRRRbP4p3MJsLvzIot9bJEtYwKMiST4x5IkafDgwU888QQ5wVKRisK0qL6+HgBWMgEWHWsrirJjx46hQ4fm1V3YNrLIgWtqau655x6atSxMYXJ5ClnE4/GPPvqora0t2nmlUqmOPK92jSvPZDo0kmkvVTr55qsVX/VeWtG6DFelQz+1HqQIKkEr/kcffYQZOnjySyaTiURCf249FzXLJQ4T4FxQKj4OE2DbfgLKsmBMgItvs0WlkEqlZs6cCRNiv99P65yO0DYiwCg29lV6vd6//vWviqJg2j4ej4uWllnBooOCYQKtKMr69esHDRoEigIOCerrLJZCflMlSTr77LMxKVDAIhsTYGObA+ntgAEDcPAYhRibkU1Sw7RUMBisqalBCzrhhBOeeeYZsnaGD3aYbFBg1qaqFcgEGNNb5C9HUZRNmzb169fPJjpQZDGwwRtd8aGHHvraa69paYKB4bFYrKWlZeHChRMmTDj++ONHjhx51FFHjRo1aozGdVyel0YyY7SS0Yqfb7hW+lrhWunnG18rndGdV2ZqWvEzYyIk3/j5pvPtb3978eLF7e3t+CBC0yyYiKGdgbwH2MDWnTUpJsBFdtT8eF4IMAHO2gytC1y/fv348eOxdw5neDpoLI5REXSI1mZHjBixd+9eIsCxWCydTsfjcf2Vz1jnpShKe3s7ThOZOnUqVNnbeUGmBeG8tLxUkUGAa2pqXC5X7969X3zxxcIUiwmwGTXYu3fvK664Asu/qn3mZmRX2jSDwSBmqbBbwePxHH/88e+++y7WTxKJBFmZFjBBoyhKXV0dfUsct1HfqD3A6LgIwHXr1tGMQ2lrv8jcXS4XOl78/frXv44evrDeLK+nUqnU3Llza2troV1kJ4V9Maq/+b6m6nH6qZWOR+OiB3MUtNLXCtdKNt/4RqWjla8GPB6t+FrhWuWUZfnOO+/EDF0kEonFYvF4XOd0ibw0TT8yrwDr42PUXSbAWo2Cw81AgAYt7ATLqCacRzrxePy2226rr6+XJAn2vW632+fzmVHTJqVJzAGrTP8eXv/mN7+h3b/kAwM0WAsa8esSjUbxhXv55Zd79eqFYoNJwkmYgxbJUdRAIABwfvazn+3fv9+aGWstqA0Md64JNOabDj744DVr1kyfPr2hoUGWZQdNPBXQlnv06IGnoIr/n70vD5CiONvv7rl2Zu9dTpEbBBXPiKCCqCAR45lPiah4RtGY/ESjwXwaFAGFEA0BloiJxnhr1CgSYFVEFBOPBDlcrgVZUJBjYdlrrr5+uk98v3JmZ3amp+fonpo/dmt6qqqrn3qr+n3qfestSOakSZPef/99iATRNgPyqWlaSUkJ6qc3ioFGZrGIKXuAMXGRmWjlypVEHbP4aKnfWpIkiA2O17rkkksyc65bc3NzIBB45JFHsB3G6/W62z6pPxGvwaIIzJ8/H/NVa2tr/CV1E9903AJsLphxauME2KID06LNJnWFE+A4ozJdPzU1NdGRP3QuCy11W0Kk3G43zALg7f379//Pf/5DoRoR1ApxsOKAiDcZNG/8BWEeMWIEYGEJsCVgoUZCdQM4xx9//ObNm4lpxAHEEj9ZlwCT50JjY+PevXsvu+wy6PfUazZLIMCex+PBUMWiFdIPPvjgwYMHEQUaep4BF2hOgDFgMXdhNlMUpbq6mg4Dt7pEud1uHHrncDiuuuoqHOqW7mkKSD722GNwLyosLDS2+hnLophsp+CwtOi/ydZjVnuSvW+C+al5CeanbNHI4ApliEjQjSISEdnoq8vlmj9/PgXwwzo7twATPnESGDik7vNjkOJgxX/KHwRoRHAC/N+3OetuatYLHmcY6rpOe+1w+tHq1avhkVhcXAyrlLXYL3wdnU5nQUEBDGi//OUvTQxK8c477+AWsF/BVG4hiMioiD3eBQUFU6dOhVDRuceapuEVnoPEmB0LEWld12tra+nYGzaR+7Mnjq0uLS3dsWOHpmm1tbW33HIL/AuwVCFJEmnbNjjHNVaPYChNmTIF4ehVVSVHaCRIStmf2p0VLb0HWBTFJUuW0CqAgSUAwgSjGOt3U6ZMcbvdxjhbrC7L1nV21l22bFlmWAfAnDt3Ls2fVvSuz1aX2fK+CxYsoAUmcjSj0ZfWBPsGnD9/voXgpcGLRU9RFIcPH55WrAxXzi3AFpIrGzQVQwMLcPwc4G+HLTvNGR7GEQXJtske6qCq6vXXXw/mQEZUOEJbRbAgPZIkwULbu3fvZ599NuLZU/m6Y8eOU089FVYUQCRJEpnKcx8ljCuE8sJKxznnnHPgwAE6foZWRoh4pAKX6WXZsRCRtjQBhiyVlJRs374dy1IvvfTSFVdcwXJgURR9Ph98PnNf0oy1ELvre/XqNX/+fMxRCMOOvibHP03TKDx7LBnjBBjIgDwj8t/kyZOx1GKsd3KnFNxY0B6Xy/XBBx+AhMQSBrOucwKcOzKQIy3hBNhAR3ACbAA0XiQfEOAEOPJlzSr6kb+l9h2mUU3TYP79/PPPYdKkTb/QlixkMUCDXS4XHuGKK67YuXNnaiB9r3QoFPrtb38LOyqCFVlrjzRGF+hWWVmZIAjFxcUvvfQS+YRTbDBOgDM526JfSkpKNm/eDOK3f//+VatWDRgwACJNiyxer5fM+JlsYWbu5XA44Pvdu3fv559/HoHrsCiDeOzEezFlfW9wfv8LJ8BsDG2scN18882kemamQ9N0FwpwKIpiRUXF559/nhnjGyfAaepQ61bLCbCBvqNZCKoItwAbwJAXsSUCGBrcAvx/2lw6CDCU7EAgoKoqQhfi9CPYNrFPhmiwhQgw5lNsDystLX3sscfIjfD/AE0ttWHDhgEDBgiCgMUCaw1CsAv8hTOkKIoXXnihLMt+vx9SQbaUHOTA7FiISFvaAgy3i7KyspqaGnj/wg785z//uV+/foIgVFZWYleCw+Gg/efWkr3EWwv/0uOPP/6tt94C5aAhSzLZ4XmbnACzUx8OQ7rqqqsS74VczkkEWJKkvn377t69m4L8k6ikI8EJcC5LRVbaxgmwAdg5ATYAGi+SDwhwAhz54mYV/cjfjH5HnbIsgwDrur59+/YTTjgBxwawjpcUb9MSwkfSIwjCGWecsWbNGtMVo3A4DEdx3IuCTlsCH6xlkAnR5XI5nc6SkpJPPvkEogSCAT0vgnsYlTUzy7FjISJtdQLscDg6d+68devWw4cPE/Kqqk6bNg2xxwvaPljisYSwGWgkFj49Hg/WaM4666wPPvhA1/VgMEjrMnLbp0OLHyfARICxsKVp2iWXXGKtvfGxREgURQwESZKGDBmC88xNjPUQa87iBDhWj+TtdU6ADXQ9J8AGQONF8gEBojA8CNZ/38Ksoh/rxWz4OoVX+fOf/wyVgsyDkDZYU60ieQ6HAwL0jXn2gQceaG5uNlcrAlyvvfZaz549gYnl9mTCvCaKIjoaTzF58mQ8WkNDAw4UIb5hWLTSUZAdCxFpqxNgSZK6du26c+fOYDCIRwOAe/fuveeee2D19fl8bK9ZZVQm3k6Hw4GA2FijcTgcl19++caNGyGTgUBA0zRFUcgOHEfGOAEmAoyxrGna2LFjbRMFGm8rp9M5dOhQRMBKRCriCEwiP3ECnPhYzpOcnAAb6GhOgA2AxovkAwKcAEe+iFlFP/K3lL9DaairqxszZgzECzFmoYBa7tBISZLguT1s2LCPPvpI1/XGxsaUQfq/CsJtn3379l1zzTV0TrK1hiX6l4CCRahfv37//ve/6SiRDkPs/h8imU2xYyEibWkCDFpbXl6+c+dOMv9Sd9TW1k6aNAkH27pcLtIerCV4ibQWHgq0BudwOHw+380337xv3z4IGnE5itYWSwA5AaajcQOBAOKHjRo1CgHwEumLHM8DUXG73WeccQacAmgxN5ZIpH6dE+Acl4rMN48TYAOY0ysMy1h8D7ABDHkRWyLACXDka5pV9CN/M/odW8JkWUZQmZUrV8LtWRRFWAjh+UxpC4kabGU/+clPcOTvvn37zDVmorZ58+aJoggyiUncEhBF7OumRxAEYd68eUAMDpNkPjIqYmkpx46FiLSlCTBiXPl8vtraWqxJwdRJKzg1NTVYorKcx0FS44JW3JxOJ2gwnKJnzpx54MAB7IuG83OHnh2cAIMAI2I2BssZZ5xhGwKMWdfj8Zx55pkdbgg3azLiBDip4ZwPmTkBNtDLnAAbAI0XyQcEOAE262Udrx6QHPi7BoPBK664IsIn1rqi5na7CwoK3n//fXp+HPUUwZfwlfIkmKDzV/bt2wdzCmJBWxcutNzhcAwePHjXrl2hUKi1tVVRlA4JRoKIZSYb5Nm65wBj1isvL//iiy+gZOOJVFWFx6+qqh9//DE4cElJCSkQ5KlhG9fWdoeS2+1etGgRZFLTNCxCxXd5JZRgKoRndbuV5+bF6upqVVWxUgmRwN+kBhTJEhKDBw8GGrn5yEm1CkNAkqSLL77Y2GSeFJLIDBjnzp2LpU/ypkmq5TyznRCoqqqCVJBzigG5SrYIpgWKbyLLclVVlbVQJdsvjjQbNmxYsiBkJj8/B9hacmX11rIE+L333suMkCd7FyHZAjmYn0jO2rVrjz/+eEEQbBBdFnzgggsuqKurgw2TVEBTCLCiKNhvJsvy//7v/yKIlD22ZVZWVr7yyit4p4JjmGs5T+sQsCsBZkFrbm5+7bXXzjnnHDhrsFKHI52JFVv9HdBu+4866qjnnnsOo480PxafiLSdCDCcew24+NLshwQnwBFCkuxXwMgJcLsjND8vcgJsrN85ATaGGy9lbwQ4AU72pWwwv9/vV1U1GAzOmjUL1JdVqS0qZHiQp59+GlZf4qvtsl+wpmTh0zQNpqd///vfJ5xwgiAIsANYFDG22VdeeeXevXu/4fbhcFhVVU6AWXDSmsasF20BDofDWOzHNk5ZlhctWoSg0HDZQEHbSGAskLEXY+TIkW+99RYN2/jyaXUCTE9K1h5OgFnxgORzCzCLCU9nHgFOgI1hzgmwMdx4KXsjgPcadn5xC3Cy7CyJ/Dj3taamZsSIEYiEZAPvOFEUTznllB07dtAWVtpR2S4HTgIvJmtLSwtOkPp//+//wQhs9TGJ8dajR4833nhD1/VQKKS0fZiHzumk/SzAYDuwOOEcIKR37ty5YMGCoqIibOZkqS+mTquLYqz2Q2EaPXr0qlWrAA4Ov4kll5YmwKIosgQY4k3MP9YjR1+HzNB+cm4BjoYoqSvcAhxreObtdU6AjXU9J8DGcOOl7I0AS4BXrlyZ1OspY5lt4gKt6/of//jHoqIil8tVUlJiAwL8jXfoQw89BDWF9uS0S31xMVmJgc6tKAqCh/3tb3/r27evPQZkYWGhJEm33347MIEROFl8spXf6gQYQ6+srIz2AIPjkZSCw9DFyZMnd+nSRRAEWn+RJMkGWxhiDSVRFAsLC91utyRJ11577datWzuUNE6AaRGQE+AOpSXBDJwAxxqheXudE2BjXc8JsDHceCl7I0AEWBAEEGADC98Jvs4MZ7MJAT548OAFF1wA829paSmmJEuLV8+ePT/77DP0K4y0iBkbiwMnKwHNzc0ogoDJu3fvnjhxoqURo8Z/c3KyIAhDhgzBeUhQ9ZLFJ1v5bUOAt2/fjoUbitwWDodxMjDswNgE++WXX1555ZXY8U5xoe2xgEUCySYwNcERWhCEW2+9dfv27fGFzdIEWBAE1gKMhQ/8jf/UEb9iFHMCHAGL4a+cALOjkqcFQeAE2JgYcAJsDDdeyt4IcAJs+O2cREFVVUOh0N///vdOnTrBlxLnHlldtm6//XbsbYYfL7gEgqm2y4GTgOy7rKFQSG37ICbt888/X1ZWZnXcYD90tn3uvvvuYDDICXAm+5QswBEEmA3kRsf/YD/wO++8c+WVV3q9XofDYWPqi14QRZHlwJ07d3700Ue/+uqr7wZlO/+tToDZKNCcAEcPRigKfA9wNDL8SiYR4ATYGNqcABvDjZeyNwIRBJgigLSj4mTvkh0swMFg8M4770QMJ1j/yMBiXQl75513dF1vbm5GfC9yGW2X/RpzLWhsbAQ5rK+v13V948aNxx57rHURQ8vBoEpLSyVJGjFiRGtrazgc9vv92Rtiyd3ZrhZgRHGD9La2tpJXP2Rv1apVxxxzDB1ghqnT6qIYq/2FhYXYqY41u/Ly8scffzyOlNiJAGPCMbAmhSLcAhxHTpL6CXjyKNCxBmkeXucE2FincwJsDDdeyt4IsAT43Xff5QQ4qRf0t5lZsgdDKGxHdGymLMuapq1Zs6akpMTd9rGi6uxwOJxOJ6ZRh8PhcrnGjh0b8exJY9dRARAt4iG6rh86dOjxxx8XBMHn87lcLrfbjTUFNMwqYxUBwAsKCpB45JFHdF33+/3kiAtgQqEQnUPTEVTf+z0z/WLdc4AFQRBFsbKycvPmzQAu/uqMoiiwA7/xxhsDBw4URRFhsbCGhU4URdHn81lFAuO3E9QXeXBupNPpdLlcixcvBlyHDx/WdR1HWGN+KykpQX4s7ljrHGBRFJctW4Z5m858ii8S3xtv331BKDtZlnGa9OjRo21zXjT5/48aNQo+Pt89dBr/Y0V13rx5GFnYdW97/4v4YzPPf12wYAFtWqEBm0YRbKsaUwG5tum6Pn/+fAt1BCmcRIOHDx+ebtCM1c/PAbaQXNmgqUSARVE0vAc43fp2TluAIx6erAfsFrJwODxt2jRSlKXvPlYRIJpAEQdIkqTKysq5c+dGPLuxKa/DUtCw4QKt6/qmTZsQCgtBenBMKzltWgVSbAXH3+uvv/7rr78GDjgvGo+M5RVWkDrEChnS3S9QCPKHAAPVcDgcCAT++te/du/eXRAEonyetg8Ezx4cmCXAEFGsf51yyilLly4FzQMHRnQ6TdMiLMDsjJH7Q9JEAoz9Gji87dxzz7UNAYbq7Ha7R4wYQYfeJTgdGc7GCXDuj50Mt5ATYAOA02zMCbAB9HgRGyPACbDht/N/C7JkAy9scoEje/qePXtOPPFEslLCqGIhqaIJlI7hPf3003ft2sU+e6o4tleeVhOwORPm0HA4PGnSJFihYQ2AdYLgtQSwWA0BuxgwYMBLL70EACAzUKNxhVwJ2kOo/Wvp7pd8I8B4XlgeZFmePn06iK4kSZA6r9cL85Tb7baWHLY7WNjxjgxYshME4Yc//OHnn3+Ogen3+2VZxspUaWkpSmFIRtfQ7o1y5KJZBJi1EYXD4XHjxtmDANO+d6fTOWzYsFAopGkarUi2PweZcZUT4BwZILnTDE6ADfQFzcZ4N4miyC3ABmDkReyHAIYGVvy5BdjIS5slG6Qio6JAIABN8emnn4ZmTBqz5bRkiIgkSXCEvv/++6Pdv43AF7cMFCDStHBerizLb7/99sCBA2H7hWpOU7wlhqgoirQD3OVyiaJ48803w8kWAgPnLjw+XYkL1fd+ZGXyez+Y9CXfCDA0fmx313W9vr5+8uTJbreb7cfi4mJ2OcYSchirke2OJjhZOJ3OCRMm1NbWQkSDwSCklBNgAIKhAT/qiy++GM72sXC2ynWn0wmRcDgcJ5xwAmLy07Rs0qTSTjWcAFtFQjLWTk6ADUBN8zknwAbQ40VsjACGBifA7bx9E7zEkg1oP2AyqqoirFFLS8uZZ54JGRJFEdtWyQBoFdmiDcCCIPTu3XvNmjUZIMDogmAwCCsooMbmwyuvvFIQBI/HA+sEjMBWARORwMEoYDk8+eST169fr+s6nSalaRqlExRFysbKJF00PRHhAk1vWUv0QlJ7gOF6gI2dSG/ZsuW2227Dk9JYpoQlEDDQSLJy/+xnP9uxYwetCOi6zgkwLVrhLRAOh3/yk58YADkHi9DsKknSgAEDEBPOwMJcslMQJ8A5KAzZbRInwAbwp1czJ8AG0ONFbIwAJ8DJvpQj80eTDSyQh8NhvL8/+OADUDX4u0KJJJXCErIliiLO7MGD3HDDDWCh0c8eiU5q30nHogTVt2jRooqKCjL/YlnBEmBSI2EwdLR9vonpNXPmTDxdhP8z2ZTo2TtMpLtf0ID8IcCappGpE24I4XB4x44dZ511FnoT4mfFjegkjYkkPB6Py+WCG8jDDz+MbcBY7+MEGARYURRM+4qiXHfddRjjiWCby3nItUEUxS5duuzcuROrnx1ORClm4AQ4l6UiK23jBNgA7JwAGwCNF8kHBDgBTvEdHRkFmgy/0Avr6+tvvPFGcuUzRg4AACAASURBVNZ1uVy0CGch8YICVFBQIAjCgAEDqqurEe863USLFhGok2jP4aZNm84//3ysKcCgajk8iTVhNeTEE0/88ssvofPBl17X9WAwmLMEeNu2bYS/5Vw9k7IAa5rW1NQEv1Y4I8D/88033xw9ejTO9KYlGHtwHowmuAaR/sT2cu/evZ955plDhw4hJBIPgoU5igiwruu33nqrnZwCsHTr9Xo///xzA5MSzeGJJzgBttBLLTNN5QTYAM40gZPyyfcAG4CRF7EfApwAJ/46bj8nSwIRHxVOkvB/XrduXWlpaWFhIagCqA5UZExGlhApNBhhb88+++xgMAh6zz57++ikfBUGN1atRJzkb8Ji3XfffRaNMYOuh1S4XC7sBxZFcfHixQcOHKDDtNhEUkBmoF90Xc8fAgxphxsCRbbDIsWLL7541FFHYYULY5mYsCWGdpxGEvulBCzAXq8XJ5n37t178eLFEDaKiY25Ij+PQUKsPtA2Xddvv/32goIC0j7jQG2JnxD4TRTFTz/9lFbokpqXks3MCbAlBCOTjeQE2ADaNAVxAmwAPV7ExghwApzsS7mD/M3Nzbqu43QQWZbvuusua3k7tyvroih27txZEITOnTs///zzxARiYcESsETSseqh6xGVYIlhw4YNp5xyiiAIxcXFrCmy3UewxMVRo0bt3r1b13U4l36jQzc0NBAIuZOA/QcEGMDSK9YSOKORFRUVW7ZsMXzWFFxedV3/05/+1K1bNwRIJ4ufw+GgqFEwnNpgHgButBNYEIRBgwZ98sknuq5jDMJJxFrsFw9VXV0NqaYFjuhtFx0OQBjD4R2gKMqyZcss55zS7viF3owu9nq9c+bMMQBOh+hFZwABnjt3LuQKgmfFqaZdVPlFAwgsXLgQUoElmMx4IkTMCeFw2FrnALPaEY4gGTZsWPRwy4Ur/BxgA4OCFzGMgCkEON0DJ6fPAWYfHmoBguXour5x40YKf2W4h3KkIFSQcePG1dTUkP8zLN7Rf7GLNfG/0TXgClsDmwevvf379//85z8HzfD5fBayqMfq0/79+y9ZskTXdb/fj2cMBAKZMbawYtxhGm3jBDgYDMqyvGfPnt/97ndHHnkk7MAejydCR5ckCbp7rH63ynXYM2HjRRBsQRCGDx++du3anj17frOPnfg/q3JZ4ulMIcCsaq6q6ooVKyzqohLRZehxCLbD4fjlL3/Z4RRhSgZOgCM6gn/lBNiYDGAIYylWkiROgI3ByEvZDAFOgE15U/+3EoS/am5uhilgwYIFxcXFEdqwFQWInHV/+9vfgvzAxG0mdobqWr58eZ8+fcgIbEVs2Ta7XK6f//znjY2NrPMz/G8NwZOuQpwAE7LY6dDQ0HDnnXeC/pWXl4Puejwe9rArtqMtmoYWhZUml8tVWFiIye2SSy6BmzS70YMlw7n/vKYQYIwLcpD517/+5fP5SPXMfRDitBDrHXDvv/jiizMZBItbgOP0S779xAmwsR4n8wC3ABsDkJeyJQKcAJMqa0ICXKW5uVlV1b17944dO9YeLnAVFRWCIBx33HGrVq3CPjdQfdYqy6blJD9sWTbNVhNmPoqiwAt6//7911xzDWJTW0vhjjWbHHfccTiPOxgMglwh6pIJ0mleFZwAE5aKosBEv3HjxmuvvRZ+zphVHQ4HySTiqMfqdAtdh/5EpA6no4EX4dkLCgoQKdpCDyUIgikEGFKB0aHr+oYNG7p27WotHGK1FhuAi4qK8CJATDgaBWlKcAtwrO7I2+ucABvrek6AjeHGS9kbAU6ATX53a5qGPWCvv/56SUmJbTb+SZJ01113NTU1YTsuVBOTsUusOjKzgBm+/PLL3bt3FwSByIZ1R6woioWFhffeey+esaGhgZTpxLDJUC60irtAY4UiEAhgOWbdunXjx4/Hmper7QOXM2wfwFRrXeEk9zmYeWm4Ycevy+UqKCjAzmdsh7bWk5pIgMk6WldXhwBp1oKi3dbClwEEuFOnTp9++mkG5hpOgNvti3y+yAmwsd4HAYafjiRJp556agbGr4Fb8D3AxvqXlzKGACfABgZpzCIgh7IsNzQ03HzzzYIgkA+kse7JnVL9+vV7/fXXcfwvfPyyyIHRAVho2LZtGyzttMaZO6Al2xL4GY4cORIbrVtaWvCMMQUuSz9wAgzgNU2DKwTcInRdf+edd0aOHImdnwgaZKdJgHa0iqJYXFwMxtvuuCsqKrIW4TeXAGNuPHTo0KmnnmotHGJNWVjJdbvdkiS53e5HH300A3GwOAGO1R15e50TYGNdzwmwMdx4KXsjwAmwmRwC59aqqrp8+fKBAwda0RLSrrh7vd4hQ4ZMnz792Wefffzxx5944omnn376ySeffCLG589JfmJU8wRbzZ+Yz1/bPk8++eSzzz77xz/+cezYsW63G3a2dttvlYvOtk9FRcXvf/97WZY1TTN2DrCZMt1eXZwAEyrkC4pES0vLm2++2a9fP4gc1A78JZOpVaQxup0Oh0OSJDwODMKUB17QbrcbTMlyD2sWAcbQADmUZRlTE6Fk0QS0BPQp/NsvvvhiWvqhsWB6ghNgiwpM+prNCbABbBEolGZsURS5BdgAjLyI/RDgBNjMt7aqqlCApk2bhm1y2DJnA7mRJAkMEwpufNduKclPLHwosk5EBvbukiRRjK6IbFb8CpAvu+wyOhAYEmWmmKZcFyfAgBCkV1GUlpYW1iHiscceQ1DowsJC2i5rA0sg/FmcTiforsPhcDqdeC46ogY/ka3YKmPQFAJMx6VQ5PZLLrkEs5NVcGi3naC+8H/2er2SJA0aNIiOakt5OolZASfA7XZHPl/kBNhA73MCbAA0XiQfELAGAYZrccz3pKk/sEfOxq+43ZyKotTV1R177LE4E8U2RuB8GAy58IwgwF27dn355Zc1TUs82jYrjWw6vgwb+xUEuLa2lj3thpheLsDYYRtEUaysrMQ5wMZAiF/q0UcfxSpQjx49wAZtsxuiQ2wtl0EUxWXLluFgZ5AudgRFp2N1PcZFKBSSZVlV1XA4/NRTT1kOjXYbTKMbNNjn861cuVLTNKwB0Wb46Ih9LHqxcIt1HYb0P/zhDxg7WGShlrTbTn7R3ghUVVWRewU226dpgThCbnEXLGypqrpw4UJr4Qy3HdoDHH0MUsTzxhqS7V5HWfan6Cvsr7HSmqY9/PDDaCTCSdhg1dhacpJvrTVMgFMZL7HkP9Z1wdhwilVd/OsJPhibLWIKrqqq6tSpE7gBf1vn24hK5XkpVjBCjiGceILbgCMEkr7Gl3Zjv0Lg7USAI4awMVioVDgc3rVr1z333INtwD6fz+l0cgKcytBIa1mzCDA8gBRFUVUV0eyXLl1qg60Z0BKcTic2AKMv7r77boSEwJlttCWYdYUgioLpiAZIgglOgNMq9lasnBNgY73GCbAx3HgpeyPACXDku5iYQxydmM3Dvto1TWtsbDzjjDNg/OHmX3sPnnQ8nSRJYEpDhgz58MMPdV0nd8pISf3+92iZZCXz+3lT/cYJcHwEwQHq6uquu+46mH9hN0uHwPA6U0fALAKsKAqZQLFutWHDBiyGpt7ILNaAZVyXy0X+7YIgDBgw4ODBg5qmgabSg1MCY4Sdl+KPmuhfOQHOYqfn5q05ATbWL5wAG8ONl7I3ApwAR752E3lhs3mQplqWLFni9XodbR+cT2tvAeJPZy4CoiiWl5fDfWDGjBmJR5qJlskIySQRTT3BCXCHGAYCAU3T1q1bd8EFF2AeYMmDuTLDa0sRAbMIsKZpOApe13V4Be/bt69///4pNi/rxaEl0H4HclT529/+BvMvvMdlWY5gv9wCnPW+s1kDOAE21qGcABvDjZeyNwKcAEeqsiyRiPztu+9sHjatKMoNN9wgCILP58NxoBR5z95ixJ/OFAQomheizowdO3b9+vXfCV0H/1k5ZNMdFDP0s/0IcITfpiFUIguhznfeeee0004TBKG0tNQUIeGVmI6AWQRY13UK2w4C3NzcPGrUKNMbnPkKoUDjdSaKIvy6L774Yhi6IeqhUAgHYrMjIZW5iFuAM9/ROX5HToCNdRAnwMZw46XsjQAnwOzL+tt0Ii9s5KHMattHUZS1a9fiBBToB3zXn70Hj+lPh3UThE+TJKm8vLyqqiraqBIpsm3fWbll0+1mTvGibQjw5s2bAQXFb08RGRSH4i7LMuyBb7zxxpAhQ0yXFl6hWQiYSIBlWVYUBQeY6boeCARuv/12s9qZxXrIfwEJrNB16tTps88+o0Ow292vkcpcxAlwFns8N2/NCbCxfuEE2BhuvJS9EeAEOFLjTfaFjaMvFEWRZfmOO+5ApEocEAItwd4CxJ/OXASwdOJwOCBIF1544Zdffhkpo+19Z+WWTbeXN9VrnAB3iCAoEDzYZVletGgRHQ5srsDw2lJHwCwCjO36CAFNiyAvvPBC6i3Mbg10qh0dbUCH4d19990QcnreCGeKVOYiToCz2+85eHdOgI11CifAxnDjpeyNACfAkapssi9sRAHB9qcjjjiCXMVg/qXNwPYWI/50ZiFAjrLl5eWiKPbs2fP999+PlNH2vrNyy6bby5vqNasTYBy0UFlZuXnzZmAFq12quHy/PMy/gUBAVdWmpqYZM2aYJSS8HnMRMIsAwwEYBBhjRNO0zz77zNzWZr42rOQiFBb+knNTjx491q9fTxbv6Ih9qcxFnABnvq9z/I6cABvrIE6AjeHGS9kbAWsQ4O8rltn/Bq/UAwcOsCdAzJkzx96ywp8uAwhIkgTrChTNkpKSiy66SNf1cDgcCASgXzY3NyPqTHZHwrZt2zIASJpuIYpip06dQIBNh5FV+tk0PEQ8Hk9BQYEkSR6Px+FwcD+RNHVxUtXiHGAyY5o7vmD8x4hGq2xwNpIgCIhZMGnSpHA4rGnaoUOHIsy/KY4sLCLMmzcPN4L3tdPpxAIW/xsLAWzVppNU6UyKpEZEbmauqqrCSxA6mLlbV2KJK7z8yNVfluWqqqrcxKfdVkHLx3kEkI3hw4fHetjsXp81axZaK0kSiXe7D5WDFzGrs65etHMkqdbiwRMpQhCxiTgF2WyUpvx0BQm6HivRYbZkK4x1o4jrHd6X8ieSE/p2586dX3/99ewKf6y7C7F+yOJ1vJtlWQ6FQpqmffnllxdeeCHhzhMcAcMIQFH2eDx4E3Tv3n3Tpk309kWgHVDiLMq/ruucAMfCnyW9bLq2tvbKK68UBAEGNK/XC0d3w6LCC5qFQFoJ8OWXX07ho5Cwx6oHZqqBAwcuXrwYETGwNhdrXCR7PRgMKory+9//HsERMFjsAZ1ZcttuPQ6Hg11tgci1m9NyF3OEAC9YsMBC0HECnJnOkiSpZ8+e06dPv++++2bPnv3QQw99w+enTZv2YIzPAzE+0777RPz+3eX//qdaI65HlKKvEdnoa6wMdD1WIrqGiJyUAYmIXw1/pWojaqDrSBA+Edno6+zZs6dNmzZ79uwZM2ZMmzZty5YtqqoirGOyr6q05s9FAow3vd/vh6Pjyy+/XFFRkZlhxu9iVwSwZo+nczgctHw4Y8aM5uZmrENj5aXdeDNpHYTRlXMCHI0JrrCkl03rur569eof/ehHLpcLhiysPtpVni30XGklwE888QRcEEHenE5nBD+xEFBsU0VRdLvdkiSNGzcO/lCBQMBEBUKWZU3T/vCHP1B4fBzF5OSfuAi4XC7iPDD/IigJ23cWTWeLAMM3hDxEOAGO9e5L8bqlLcAOh+O888776quvmpubVVUFO2hqakKU3Oi/4Rgfpe0jx/0gT6ycqDi6gmTzx2jgfy+bVVt0O3El1t1j3ZetB3k6zNnY2BgKhRRF2bt3L9ZwUxTgdBTPOQKsaVpLS4uqqsFgEJ107bXXWvSNwpudOwiQ0xqa5HQ6wZROPvnkTz/9FEFl8Q6Gz2E6BlvidXICHAsrlvSy6UOHDmmatnr16mHDhlEYIc6Bc2EAppUA19TUYG9/QUEBSCOdqZsLz264DaIoFhcXu1wut9v96KOPYgu0iUZg7MyfO3cufAuxfMAtwIb7ywYFs0uAKcodJ8Cx3n0pXrc0ARYE4eKLL6ZjO8hWweoAiaRjYQgKHV0Dm5/9lb0eKx0rP3s9VtqsOhOph21DrPyJ4BNRlvbsQK+GOTMiT9a/5hwBxlIBHLR0Xf/oo4969OhBa642eM3wR8giAggBDXEid+jHHnsMG84xGk3UMg0Pb06Ak4WusbERMfNeeeWV/v37I0KePYyBWRwvptw6rQS4oaHhuOOOEwQBBBhLHjbodxwILIqiJEn9+/d/+eWXzd07jfE1b948n88niqLP53O5XKDcLv6JjYCH+cDdQJIkeywcZJcAcwtwsq+8ZPNbnQCPGzeuubk5GAy2tn0QHDeWJTPW9VjWy+j8rM2TTSMneyVWncgTnZ+9Hn1fXIlVZ7K1se1k08buy5Zia4tOBwKBYDAIQ30gEKBQjskKbbrz5yIBxiZMLEvce++9giDQIa6mKGS8kjxEgIyBbrcbPpOkJU+YMGHnzp14Aeu6jqNH0j3w4tfPCXB8fNr9tampCdfnzp3brVu3PBTy3HzktBJgv99/4403iqIIv/fcRMBAqygWtM/nkyRp5MiR27Zta1fsU7k4d+5cvlXeQO+wRbBIwV6xaDpbBBiWIk6AUxnIiZS1NAF2Op3nnXdehBWRNV1GpKOdonEFQEVkjvjKghnxE/bKIT5cxE+xao5lO43VwvjtTLa2iEbS11h3j/UUVJBs7x3mRAbSq3PTCzrnCDA8Yfx+v67ra9euPemkkyiwjUXfK7zZuYCA2+2mdXqy/YIJ9+rV67nnnqOBSgkM4Kz85QQ4WdgVRfH7/Zidm5ubf/3rX/fq1Qv9mwvil89tSCsBlmX52WefLSwsFEUxYmHL0ph7vV5sMXW5XIWFhZIk3XvvvZs3b052XMTK39raKsvyvHnzysrKCgoKSkpKnE4nIqjT0cQ8EY2AIAgwD8Pw6/V66bViaXkTBCErBJjUYqLBVVVVFvL4o6Zi8hFFkUeBTsdAEEXx7LPPjiDAiqLEInKJX4etlfKzTI/S9CslIkrRdRShr5SIdZ0ydJhI9o4dVphghoj7EiYdPhGGNsa1qqqKopAHe6y3Uuav5xwBhgrb0NCg6/rjjz/OVdh0zCb5WSeMKqQowyaMi1OmTMGqHoYrVmEyPxrpjpwAExQJJlpaWhDNe//+/djRPXHiRD575MJITysB1nV9w4YNnTp1wgZgURRtY9Ls3LkzBbh2Op2lpaVPPfVUgsOhw2zYVPzSSy8NHTp0+PDh55577qhRo8aMGTOaf+IiMGrUqHPbPmd/9zn55JN79eqVCwMtxTbkCAFeuHAhscoUnygDxampnACnFW2n03nOOedg1gqFQiYGamEZXYfTJmVAKfqagUTm74iHMoYPlDFivIFAIBcMS9HdlHMEmA6hOXjw4IgRIwRBsMfbJa2zA6/cMAKwrhQVFX344Ye6rsONNsLNI3rYpPsKS4DpFWv4GTNZEKfDVVZWbt26FShhTSHdiGGaxgsSf7/66qv/+Z//If8Rh8OBnRQ4JTiTmOT5vaqrq2kZmBImyoPf77/66qspzHtlZSXtbrAf8i+//PLOnTuxuE7qRTAYZM9TJVcIE6NGm9hflq4Kahy2yYTDYTieDBo0yAaStnDhQnb9NzMvQZJbCLPlzgGmkHt4TYuieOqpp+amhFvaBVoQhDFjxkBIMAYzc051bnYlb5VZCOQcAdY0DVGIXnzxxd69ewuCQKe22uAdwx8hNxHwer2/+93v4BPS2tqamXd/nDFsaQIsCELmCXBLSwsiMei67vf78Y5cv379ueeei016xcXFcF/EkkduyqEtW5VuAqwoyrRp0xDNGNGwbAkjHqpXr14vvfRSKBTCQQnYKxQdHyvU9okzw/CfjCEAtRuumLIsq6p6+PDhI4880gYixwmwsU7EchsnwMbQS7wUJ8DGpixeKg4COUeAcQprc3PzhAkTCts+giAUFRUlPk54To5AsgiIojh06NCNGzfqun7w4ME4AyYzP3ECnArOsizTZqG33npr6NChoL7wfscJWMlKCM9vGIF0E2Bd199++204CiEWtI0twIIgHHfcca+88goW6VpbW7FdCGQMsTcxdsg+nMpQ4mWjEVAUBT4mra2t4XC4ubn5hBNOMDw6cqcgJ8DG+oITYGO4JVuKE+DouYhfSRGBnCPA8Np67733evToQfGfbbOtK9kxz/OnGwFJkuC1+43dcv78+eQFneK4SrE4J8DJAghXOjIC41wr2MdeeOGFgQMHYh0NG79tE7cm3aPDlPrTSoDhtFlfXz9u3DhBEEpKSuA0ZErLc7ASl8slimK/fv2efPJJClVAdmAKKYThwzlwstNIIvkjrOsHDx48+uijc1BUkm0SJ8DJIob8nAAbwy3ZUpwAJzI78TxJIZBzBBjv7ClTptDkws9ASnam4PkTRwCxK7DCcskll+zfvx+O0EmNItMzW5cAA3nWBTozwQ/gEQoCAGJAwRtUVV24cGH//v0FQXA6nYWFhYmLB8+ZOgJpJcA4DVLX9QceeID2e9t4gQMzlcvl6t69+69//ev6+nqEfAuFQuT1QJgQQzZ9gsrbCml/dTgcRrquro7vATYsD3wPsGHoki3I9wAnixjPb3sEco4A67q+ZcuW4cOHIwDmN9H5EQwzdT2M18ARiEYAujIOB+7Wrdvf/va3XBjzVifAFRUVCIKlaVpmCDAFzwMf8Pv9sA0iOnQ4HH7ggQdAHrxer7XiikULrbWupJUAa5oGf9S33nqrT58+rEOHtVBKvLVFRUVutxseDRMnTly/fj3cphAcFfuBOfVN0zQOYYODCW6xfft27gJtGG1OgA1Dl2xBToCTRYzntz0COUeANU2bOXMma6XhFuDEdSOeM1kEXC4XlGY4Mk2YMIHvAU4Ww+j8mSfA4XA4GAwGAgHsjVQUBQlN02AZq62tvfXWW7t27Up2wuhm8yvpQCCtBBjHLei6vn///quvvloURRubf6l3nE6nKIpOp9Pn85133nkrVqzATmA2GpaJJ4XYXg1K6gFx+iicTT7//PMFCxZUVFRQ11g3wV2gjfUdd4E2hluypbgLdFLTFM+cCAI5R4D9fv/ZZ58NZ0WXy0UnlyQ7Wnh+jkAiCEBjdjgcbrfb5XINGDBg8+bNGTNaxhqiNrAAb9myBTpiZsDENkhZlunoFzp4XVGUxsZGXdd37dp12WWXISBWIrLB85iCQLoJsKZp6P3f/va3djoHuF3w3W43FG6K5eZ0Ort37z5jxozt27cjhAF8H9iNwbHmGX49WQQoysDevXvnzp3bp0+fsrKydnvKchc5ATbWZZwAG8Mt2VKcACc7WfH8HSIg0E65iKNf2OtsusMa42Rg69E0Ddt9g8EgVGRorosXL8aBJYj8zM2/yU4TPH9SCNDbi3yhb7/9dsgwAquSiQlub6wMxxF1wz9hGNbW1tIBg2wiqUfLVmZRFEtKSnbs2EFTCiUMw9JuwUT6AvshydFuw4YN4MAOh8Pj8WAHuNPppES2QLPrfUVRXLJkCQ0icLN2e9PYRfj6wsi/Z8+eH/zgB9g7g2hniPsNbB0Oh72Nw6NHj37++ecPHz4MJAOBAE5LwujTNC0UCuFVS/4R6Bea6LBixQ4rShvrHZSiSuLMA2weNp3KfSPKqqqKJ0X9+JWgoJsiG4CClhLR7C1btsyePfukk06CXMEab4Pxu2DBAowmKGYRTx0BZipfCWpK4HApzNLz5s2zEJi0mwZvEFEUhw8fngo4CZYl6CISsYprmvbwww8j3ieOTKeWWwXt0aNHgyPgJWLuq4SFMRaGuXA9k+1k78WmWRzY62yazZNKOh11su3JGgFWVRWuRJj7aOa98sor4ZIKZQWnO4KlWGWg8nZaCwGp7UMhx0877bS6ujoKoEqehMFgkN7TGJbsQDIrDbWDE+BE8ExwcsSbkpjw8uXLzzjjDNAkR9vH9d2HR5s3feSmmwBjvMAuFwqFpk6dSj2LlSPiJ5ZT+JLtC1EU+/bt+7Of/ezdd99tbW3FCMKsRelAIAAviXA43K4GyY4pNp3IeIyVJ5F62DxsOladyV5naS3xfKpEURTsoCbWFwgEWHxCodC+fft27Nhx9913jxw5EuvyTqcTmok99JNsEWDy2+cEmASywwQ7Rth0rIKcAMdCBtcTwTB+DZn5NZPtZO/FptknZa+zaTZPKul01Mm2J2sEGA8GmqGqKmLVfPbZZzD8YjmNnBXtvXKfrKLD85uIgCiKkiRB3nCGSmFh4cKFC2mQwBSgqiqsTOkekJwAE/IdJhLsCyxb6LpOAWz+/ve/9+nTB/qr1+uFOPl8Ppp2TBSwPK8q3QQYZEbXdXj8rl+/Htu8ATsswJIkkcOwXbvD5/OB4ft8vpNPPvmuu+5auXIl3qrRYe0pXjRFzGIXo9lhRekOB2OcDFQJ0cvozGweNh2dM5UrqFlRFFmWYfv1+/3frJtQw6CKHDhwgHZSyLL8xRdfPP3001dcccWgQYPgnhYhRTSHRFy31tesEGD0JuGvadr8+fMttFZFTeUW4HRLO7cA08od5rFUZsJEyrLzMJtmy7LX2TSbJ5V0Oupk25M1AoxG4DWDg/W+WcW/9957KfizJEkFBQWYXzgBTvfkkrf1Q7SwhI93mMPhOOOMM6AjEmUilTHdA5ITYHZ6ip9OpC9gxqFVDOrQuXPnDh48GGZ/nK0KZ5O8HQhpevB0E2DqWYxQRVEuv/xyeonQEd9Op9Pj8djDUtduTzkcjsLCQqJnbrf79NNPv/XWW2tqanbv3g2UYOekEYHho7R9aKCxY4pNUwYDiUTqYfOwaQO3i18EZkbWugvn8EAgQF4/+HX//v1vvvnmHXfcMXz48PLycoLd7XZ7vV74qRW0fegnSyc4ATbQ0544RwAAIABJREFUfZwAGwDNWBFOgDkBjj+3G/g1mwQYXkl0fsm2bdsGDx6MWESw/YKckKORsWHDS3EE4iCAvYKCIJD1r6CgwO12L1++HJKJNZrm5ma+BzgOjOxPObUHmAhSU1MTFhfgHSrL8gMPPIDwrUVFRWC/JAzs4/B0KghkhgC3trbSeUgvvvhiUVER+InD4SDSSwM8lcfJ8bKSJLlcLlaMjz/++GuuuebFF1/88ssv6WwkTdNkWSazG+kNLPOMSFMeAwm2qljF2TxsOlb+ZK/DxE01U/HW1lZEIcGBbU1NTXV1devWrbvvvvvGjx/fv39/BAjweDwAlsQJrwwcIpDjUpFg8zgBThAoNhsnwCwaaU1zAswJMM3bZiWyRoDxDqYe1XX9iSeewPghQxy+skcipXWA8crzEwE4sLlcLpyuiS3BV155JZwqQX1xvg72A0drUWaNRgwHXdf5HuBEIKWOiFbl2eIw7NCmR7/fDyawZ8+eyZMno9PxNx84UobHeLoJMLoeUb4xPPfu3TtmzBhWMUWarmQYgczczuVyIbYN+XtTaDdJknr06PHDH/7w3nvv/cc//kEGYYwRig9HX9lhRWl2QCWbpkrijFM2D5tO9l7x8yOoFU0FeHZFUVpaWrZt27Z48eIpU6acdtpppaWlbK8RsAUFBYgaQNgimz3mDU6A2U5PME2zCmSAB8FKEDcD2TgBJrqEGTL+XJf6r+w8zKbZmtnrbJrNk0o6HXWy7ckmASZfLF3Xt2/fPmbMGIwKClWHr9w10cBkwYskjgA87SVJohhIbre7a9eu7733nq7rIEvYMMaOxjjKHDvAkk2jWk6AE8GN7Y44+elwYKi/sH0dOnRI1/VNmzZdffXViDuQuMDwnIkjkG4CDL8MGqQQg+eff760tBS6KXb4Y6s/a75L/BEskRPEDHZvvEDxt0uXLrRD1eVyHX300ddcc820adO++uqrQ4cO0U5XhIP2+/3smGLTccZXhz8lUg+bh013WHmCGZqbm+m8CRQB7/3kk0+eeeaZm2666ZhjjsEqGEy75eXlRUVFsKWT2BDbgUjgzC0qZQk5idPIrBBgvO+gCvIgWAkKcwQRSmS88CBY8bFNBMP4NWTm10y2k70Xm2aflL3Optk8qaTTUSfbnqwRYGoEQlAsX75cEAR4n+J9g8ismK/pDRRn+uY/cQQMI0BL+F6vl5ZyH3zwwaamJgRPgobNo0AngnBOuUBj0y9C3aiqCmswehM/ffLJJ6NHj8bB4xEKbiIPy/PERyDdBJgCKAaDQaJzwWBw0KBBsOPRNmDaGBy/wZb+lXX5Zh/c5XLR6h4IntvtPvHEEydPnvz666/X1dUBunaX+aCC0PvaQCIRJYbNw6YN3C5OkXA4vGvXrrfeeuvBBx8cO3Zsz549WcdmGM8x/2MpAYHEoZawR2ohJ00X9ohRki0CDN6LTldVlR+DFEeA6Sd2jLBpyhCR4AQ4ApCIr4lgGFEkK18z2U72XmyafXD2Optm86SSTkedbHsE9kuG07Rra/fu3ZdffjnWUy2tf/DG2wYBSZIGDhxYU1MDExPCzKbJ6hs97rZt20ZIkppFV3I5AbW7srJy8+bNeK6MgRYNY5wr2PIHPvzxxx/jYCQKdQN7GigTnaOTy7Dnctuqq6th4aFwxPgap3dS/2nx4sU9evQQBIHsnzyWRISQgONJklRZWXn22WdPmzbt9ddf371798GDBylWHGxNEQt/iSgliK2FHo9VPH4v46BE8lKmSkiK4heH886+ffvWrl27YsWK2bNn33LLLaeddlplZWUEDvwrEKiqqkLEBKwPZmbeRv9SIBhZlquqqqzVI7RiDjeTYcOGdSiZWckwa9Ys6BKsn4iFoL7ssstgkAiFQsFgkOKSphVMdq5LJJ1sY2LVSdMdMiRbreH8sdpjoEJFUfAeaW1tVRQlEAhgejFQVfqKZJMAB4NBTLWrVq068cQTYYSx0IDkTbU3AkVFRYsWLSIv6PQNwuiaOQGOxsT0K5qmtbS0aJrW2Nj4pz/96ZRTTiEnFBJsbP+jrzxhAIGsEOAtW7ZceOGFsHaSfwclDDyFzYqQyzT7XE6ns6ioqF+/fuedd96UKVOef/75devWQemMRYdwnhCpa2CtBhSdlpYWv98f4aVMN2XVMtyCZgP6Cdc/++yzJUuWzJkz57rrrhs5cmTfvn2Li4tFUSwqKmLttDCJ891VbO9zAsyikXiaE+DEsTKc0+fzjR8//uuvv6aBT8s0NAMkkqDiaUrEakOyt6N6EixI+SMSsYpHZOvwa6x64l8PhUKKolCvGXgvxK8/9V+zSYCbmpqwSHDfffdhnd5axi7Dg5kXzH0EoC1deOGF+/fvVxQFyhn5WKY+8OLXwAlwfHxS/xVGyEDbR9f1lpaWBQsWHHnkkaBMsPo6HA4EpefEKZUBmxUCrOv6okWLjjjiCEEQ3G43HIBZCpTKE9mprCiKYIMIo0VeDx6Pp7CwsLy8vHv37r169brxxhsnT5788MMPP/fcc6tXr66rq8Mhw/A8j9ZsQqFQuO0DhkznDNPIJdPuN8cfthuSGoc2Yd9+c3NzfX39V199tW3btpqamnXr1r366qtPPfXUrFmzbrvttgsuuOD444/v2rWrz+fzer041Qzey862D41f2Oi4mtGuAHMC3C4sHV7kBLhDiEzJMHDgwPvvv//hts+sWbMefPDB6dOn42v034difGbF+ETXYO6VGLeNeTnZu8d43IeSrSfZ/LEe4KGHvr31/fff/9BDD02dOrW2tjZxzx09g5+sEWBFUXAeyebNm0866SS8d/leX1NmCl6JWQiUlpa+9tprcNCiuOUZGJ6cAKcbZHKgCgQCWEvetWvX7NmzyUmMXGf5pJTiaMoWAd66deuECRPQfThKgIhQik9kg+IUFSyCDRINZp8RuCFMYElJSefOnXv06NG7d+++ffuee+65F1100cSJEydPnjxz5sw//vGPzz777CuvvPJO22fFihXvvvvuypUr32v7rFq1auXKle++++6KFSvefvvtt956a/ny5cuWLVu6dOmTTz75+OOPz58/f86cOQ888MDdd99922233XTTTT/84Q/POeec008//aSTTho0aFCvXr26dOlSXl5Oe3ShOUQ8BfbrsjuivW0fj8dDOxqwj5d9zDxPcwJsTAA4ATaGW1KlMMCPOOKIwsJCj8eDbfkUlR3+LKn8xUpZ9F+cCZL431htiK4ZV2LlZ6+zd0+2nmTzs/dl08nW43K5fD6f0+ksKyvr2rXrsmXLohdJ063jJVJ/1ggwOTItWrQIL92ioqKI11hSI4Rn5giYi0BJSYkgCNdff30wGCRnvEQGVep5OAFOHcP4NdAh5LquNzU1wba/d+/en/70p926dRMEwePxgDtx1pTisMoKAYZ98oUXXsBOYPZo3BQfx07FoVrhtQvSKDIfUESPx0OLQeyzE4WO4KKsugYVyul04pA5+FPgdR+xrlRQUOBp+7i/+yA8FUhstGKAg4hoGzNlcLvdRHHRWqfTyQYAw0U8LJcKtkM5AWbRSDzNCXDiWBnOiY0M0S48zHT1vWSsG30vE/Ml2fxM0ZSSHd43VoYUr8dqdLLVJlKPJElLly7NpAEpvu7H/po1Agw46urqxo0bh92/xcXFyaLP83ME0oSAKIogQn379v3ggw8oSio7eNKX5gQ4fdhSza1tH13XVVWFN4qu61988cV1110HnQbqOxTxNIlZPlSbFQLc0NCg6/pXX3117bXXIrZZBOPKB+TjPKPb7WYBgR4TJz/LcpEN50sRQUUNDocjIuI0WWhBjD0eD2gwMVjU3GGIMuxHKCgo8Hq9Pp+PbSpRcaLBFM+Zmk17GSgPWwNPC4LACbAxMeAE2BhuSZVyu90Y5i6Xq7i4uKioqKCgwOl0frdcFvkfh8hE/8UqW/Tf6Jy4Ep0z/pXIdhj9Hn0X1BSrnclej9WuZOuJbieuFBQUFBYWkom+uroax6mQ9pUjiawRYBxJ8tRTT5WVlWGbFvs+Tmps8MwcgXQgQMznrrvuQiSYjA1aToAzAHU4HIadEIegkk9KdXX1uHHjoNbwSSn1kZUVAhwOhxGZadWqVeeddx7WWHlvRvSmKIput9vr9RYUFAAc8FiQW3LSA58ERyUCGYszo2z0jWLlR076FWoued/R7SIqpOOLQHEpGxUk6htREF/xRLY5wrfdZ0z2IifAySKG/JwAG8Mt2VLsGMeyGi2uYfZg/8aqnPVPYdOx8rN1Zj7NthDpWO1M9nqsZ0m2nugWUjsxkyOoCghwBpS6ZG+RTQKsadott9yCyKs4sxE7tZLtA56fI2A6AvD6w+rM8OHD9+zZg2guyQ4wY/k5ATaGW+KlmpubYftFdH64uKuqClP/q6++evTRR8PohBncdAHLnwqzQoB1Xa+vr0eosylTpoCVcQJMUgfthHRKXE8w5jmrPKEgXaH62QT9yt4OF0l/ovyUmWqmBGtzpvxQgqmeiFvgOi1mgdKzedh68jzNCbAxAeAE2BhuyZZCzHascMFmVlBQQNNFigmaQFJMxGoGLcxFJGLlj+b28RsWq55YpWLlj3U92XrQudh74vP5li9fTgeeJa6kZSBnJggwMQdZlqGRhEIhTdPWrl0Lt2dsyOHaSbIzAs+fPgTIgIAdZVOnTsWRmHRiISQZR+mYPlBZApy+Z0xTzZIklZWV1dbWgmGaDg5VyMbup4upJ/x+v67r1dXVgwcPFgQBq3JwwcIeJIfDASdMqD5pgtEe1YqiuGzZMkgCDZkM7KjHLWDhP3jw4IQJE7Cvm3aRUaxgNlSSPTDnT8ERMIBAVggwvVURiVBV1YULFxpofBaLWIIAa5r28MMPg95gnYsvA2VRZvLh1hAwiNzKlStppKeuoZlYQyYIMB14QHHA4G04bdo0OnQEhxZwDpwPA8MqzwhdGQP4kksu2b59OwYeDjeDjyVOCTZdoecEOJE5Lh0EGHpYOBw+fPjwwoULu3TpIggC/FPgL0qBc8hr1CrynJV2ZpcAozdlWV68ePGQIUOAAJa04OIhSRJR4qzgw2/KEcgRBDgBNtYRnAAbw42XsjcCnAB/q8QSN4DVl0KBbd++/eijjwYBxgzSYRgMe4sLf7pcQ4Bih4qi+M1hmE8++SRYGbRqTdNoQYcSidC2RPJwApwISukgwNgPHAwGcTjwvffe6/V6MZVjx6DL5YIvlsvl4gt2HY7Z7BJg9Kau64FA4Ne//jV6ENZ7OikHK1wdPgjPwBGwNwKcABvrX06AjeHGS9kbAU6Av1Viye05HA7DfRSJ+fPn0+Y66CJ8Jd7e48FyT0cCCaPfxIkTW1paFEUBAWZlm1Z5EqFtieThBDgRlNJEgDFBgQPv2bMHcQoEQaAw9UVFRVB6OAHucFBniwDD3RqrGEivWbPmxz/+MRyhMaJpOxmN9A4fh2fgCNgVAU6AjfUsJ8DGcOOl7I0AJ8DfKrFq24dW4qFcHjp0aOTIkYIgYDFekiQej9Heg8FyTwc/SToJUxCEwYMHf/jhhzg/VpZlWIBNt/2C+HECnC0CDN6raVogEMDZSJs2bbriiiuwWkdR+rj5N8ERnS0CrGka3jWyLLe2tmLR6t133+3bty+7lkGRKhN8HJ6NI2BXBDgBNtaznAAbw42XsjcCnAB/T4nFMjz+/uMf/8CiOw4DRIAZBHazt0zwp7MKArARIfYdpNTj8dx9990w9obbPiTfZG6iKykmOAFOBMA0WYBbW1uDwaCqqoFAAHb+zz//fNSoURBdOoOUmw0TGcvZIsC6rtPRZZRQVXXBggVFRUV412CM835MpB95HtsjwAmwsS7mBNgYbryUvRHgBPh7SiyZghsaGi677DJEvYIiAhVEFEVoJPYWC/50lkAAo5doMBKDBg3aunUrxJocoen82O+Je2pfOAFOBL80EeD6+noErod5HzbhJUuWjBgxQhAEr9eLzeF872giAzmLBBgdp+s6jrbC39bW1ltuucXhcDidTuzlxgacRJ6F5+EI2BgBToCNdS4nwMZw46XsjQAnwN8qscQT4DKqadqWLVskSaIYqrQAT+6F9hYL/nRWQcDhcCBUrMfjcbvdMP0999xz9fX15NIPX+hE2FpSeTgBTgSudBBguD0jel8oFIJtv7GxUdf1J554omfPnuDAmNyh+lhFnrPSzmwRYPg/h8NhdCheQzDp19TUDB8+HCuwGOB84TUrssFvmlMIcAJsrDs4ATaGGy9lbwQ4Af6vEoul96amJlVVw+Hwz372M0Bj7+7nT2dLBIYOHYrzkGj3b0NDQyJsLfE8qqpu3bqVDIxWHCzl5eXbt28HCVFV1fQgYYmDaVZOTGJPPPFE9+7dsYkU3IlOl6XjZKnjbCn/yT6Uw+Gorq6m4wBARLMoD2jA22+/3a9fP/gf0cIrlmLJMiwIAifGyXY3z29dBBYuXIj1vkwOUtwREwLOy5w3b561MLQEAdZ1fdasWdAlJEnCS8qKqoW1ZCOfWwvpgqTl7znAWIAPBAJwSPvss8/OOuusfBYL/uyWRqCysvKll16CQu/3+1VV9fv9ZrEs1MMJsLl4mlVbOBzesWPHzJkzwYFdLlf0yW0OhwOOtZYWchMb73A4li9fTgSY1kTM6pRk6wmHw4qiHDhwoKqqqmvXrnjSaKLrdDp5XEYTxYBXlfsIcAJsrI84ATaGGy9lbwQ4Af5WOTl8+LCu642NjbCYzZgxo1OnTvbueP509kbghhtu+PrrrzVNa2lpgf4N82Cyunis/JwAx0Imu9dB3nbv3n3bbbeB5ZaUlCBBHvKCINCeDnuPggSfTpKkZcuW4TgAHINH6az0pqIoWLHau3fv7bffjoBYJSUlsIp4vV7aGMz7McEu5tnsgQAnwMb6kRNgY7jxUvZGgBPgbzUcGH6hc+zatWvYsGH88Ex7y73tn27QoEFvvvkmZBukiMLtmKLTcwJsCozmVsJu9t6wYcPEiRNdLhfr9kyh7EVRRJQs2w+ERB6Q9gBjARRLRbR9wNw+SqQ2WIAVRQmHw5s2bbr66qvZ4IsRAbF4PybSxTyPPRDgBNhYP3ICbAw3XsreCHAC/F+FJBgMYlfJM888U1hYKEkSpgx7dz9/OrsigPOQQHrr6+tN1+Y5AU6EyWQ4TygU0jSNVjo+/PDD888/H/ZeR9sHQZVAmfj8xo79pUuXIgIiBWQ2fcgkLgw0bFHko48+wpYcj8dDveZ0OtGP3AjM9iNP2xsBToCN9S8nwMZw46XsjQAnwP9VSwKBgKIo9fX1V1xxBQ5WJVXD3hLAn85+CEAnHjZs2Jo1a3Rdb25uNtf/GQ6iPAhW4pQmYzkRQ1jTNJj9q6urhw0bBt4LT1pBEPgG4OghH02ATT83O3EZUBSFDuQDGV6yZMmJJ57IBoWm8O/cWSm6N/kVuyLACbCxnuUE2BhuvJS9EeAE+Fu1RJblcDisquobb7zRp08fCkBn777nT2dXBDwejyRJhYWFM2bMgNqN9Z3EVfAOc3ILcIcQZSUDCLCiKIcOHYIx89VXX+3bty9EHWTJ4XCwLrV2HQWJP5coikuXLqVjw7B2kMUo0IqiIC6j3++nPfzPPPNMt27d8FB4bSMsFo+DlXhH85xWR4ATYGM9yAmwMdx4KXsjwAnwt2qqLMtY758yZQrfUmVvic+Tp4OV7/zzzz9w4IAsy01NTeYq9JwAZ4Xfxr8pbV6F+244HAYfrqqqOvLII3E4MKyIeTIKEnxM2gOMt0DWCXBzczMWL/Biwt6cb/r0/vvvBwfGS4rbfhPsX57NNghwAmysKzkBNoYbL2VvBKxBgDXmE18FjP8r/MqoMlVVlbYPuMGGDRt69uxJaqLlOl4UxdLSUpgF6PxP9ikMn6tGBSMSbOWJpCOK09dYZSlDRMKs/NHhcJ1OJ6CTJIk8Rd1uN7ziY903N687HI6ioqKqqioK8xZ/dCT767Zt2zB9CIJAidyEIrpVoih27tx5y5Yt5q4LJIthZvK3trZOmzatoKDA6XQWFhYiLJbP54uGJW+vVFdXg/2S73EWXaDjSMVvfvObioqKiG4SRZF2AoMVRwTKisjPv3IELIpAVVUVVvcyeQ4wzv6l+PCyLFdVVVkLQKsQ4Icffhi6BLlhWk61sJZg5HlrIV3gF++99x4dhRjnFZz5nwSirKlrq4h0oigKWxX2Wc2bN6+8vNzhcCB0qoUkA0qPJElwh6OvFcynMoUPU833kslW2SnJT2eTPtG3Rcu7dOly5JFHdunSpVu3bv379x88eDAMLORVSO4A7S4o5KyESJJE4X9/+tOf7tu3Lx3HutiAAG/evBnzADsbZH6Cy8Adt2zZcs8990iSRMGToBLlrAxnuGFZIcB4ryXe+6qq7t+/f+7cuf369RMEwe12I14jsGIX6WjiyjCM/HYcgbQiwAmwMXg5ATaGGy9lbwTylACrqkoqr6ZpgUDg0KFDI0aMoK1xsKNape/RWprjwNaGDBmy//ufA9996pP8NMT4JFlNzOwHM/uhduzevXvfvn27du3asWPHnj176uvrP/300zlz5pAYwGhmxbhBxNiPOuoonIeEXYWJa9sd5rQ6Ae7UqVOeEGBYS2pqahDhz+Vyedo+VpnfMtDOLBJgehN1OOKwULt3797p06f36tWLYMFbvLCwsLi4GBfJIEx5eIIjYAMEOAE21omkHIqi+M2x58OGDetwtslKhlmzZmE24xZgYx3NSyWFQH4RYJb3wiaG8Fe6rr/yyius+TQpELOemUy+giB4PB647N5///14XtZ+nqzNAZNgdA3G6jFrSjWlPXTqCT2jrustLS3vv/8+bOl4VZAqCZCz3tcJNgAEGNGwbr31VtoOalYX6LpuMwKcOA8xEcPMVAVv3mAwuGbNmjFjxgiC4HA4yMM/QYmyd7bsEuDEZQ/bg1tbWxcuXDhw4EB0JU1NpObC1G/vLuNPl4cIcAJsrNNpZuAE2BiAvJQtEbAGAWbVRJb8sNcTSbNHO6qqKssy+UJfccUVZOiD/ximDKv0OrzYaQNznz59NmzYkAgmieRhMWfTiZTN5TxY/oD2SYsjTU1NZ5xxBno/+q8l5AEu0IIgVFZWCoJw1FFH1dTUmN4RVifAlZWVmzZtQu/TLi/TUcqRCsPhsKIooVBoxYoVQ4cOdTgc1nJySfe4swQBlmW5paUF9vwDBw7MmjVr0KBBmPOdTidZTsj7I92g8fo5AhlGgBNgY4BbkQAbe1JeiiOQOAL5RYBJGdU0DewXVz766KNu3bo5HI6SkhIYUQVBsJaCCEMlLfxPnDiRdjvTqZKI7xLLLMwy24g04RaRiMhm+Cs1LMFErBvFKo780b/i4BMEfZVlubW1FYLxl7/8pbS0VBAEBApC0KDEB1XWc9LaTUlJCdJ/+MMfErcyRfRyrK92IsCIhxfrSa1+XVEUv99PZ0G//PLLQ4YMybqU5lQDsk6AExmeoL66ruOMq8bGxieffPKEE04AkhTVDLZ9vNpzCmTeGI5AighwAmwMQE6AjeHGS9kbgXwkwLD2EB1SFOXWW2+FF5nX60WCKIRVup8IsCAIvXr1wrbPdrmuAW0esbKj/yZbVSziGut6svV3mD/iRlgECQaD8BGFg4Cmafv27TvzzDNpKUSSJMvJAyIzi6IId4aRI0fu2LGjQ3ySymB1AlxRUUEWYHsTYCz0UJTj1tbWmTNnIpCSVea3dLczFwhwhxxYVVVsAz58+DAmq+bm5mefffYHP/gB8GFf59wOnG6Z4fVnHgFOgI1hzgmwMdx4KXsjwL4xczcKNKuXsxyGvZ5ImqgvMquq2tra2tDQ0KdPH2wAplNwKJqIVbqfjYM1atQoGHxiaVQshomkY2GbSFk2Dy06RCTYPGw61n0jitPXWPnpOlu5pmnQJuEMT1jh4h133AFDCrbRYq+dVYQBrYUMFxYWut1up9OJ4U1QpJ6wAQHeuHEj+h0ykDomuVkDFsJUVQ0EAnjevXv3zpgxw0LynO6mZoUAt7tASRNRtCwpigJ3FRzvXF9fj8nqk08+GTZsGLbwIHhMuuHi9XMEsoIAJ8DGYLcKAZ49ezY4CcU1MPa8vBRHIBEErEeAo9WCxK9AXaivr8eRblA1pk6dmghSuZwHvQgXuIqKimeffZbOrEscHJ6TEFBVdevWrQMHDnQ6nS6XC39zWQCi20Z7wrEy4vP5Ro8eTXG/MBBoAzw9eFKJbdu20X0hgfQ1xxN4uVZWVtbW1tKaSFLPbo/M1113HVZ5EO0ci4AU9S3HO9HE5omiuGzZMjoqDCQzDhE1q/dJ9lK/16effnrdddcVFRWBBtMxSNSbHo/H5/NZ0ZPFxI7mVVkdgQULFmAjADwgMnZYN+sjJsvyggULLIQkvZ2JBg8fPtysSczEejRNwznAOMacdBgLQc2bai0EWAK8cuXKHD0H2MQxBuVGUZRgMKhpWl1d3TnnnGOtPmu3tUTShg4d+vHHH8Pp0UTc8q2qhoaGq666ihyJKaxUu+Dn2kVEekSrnE4nXnvdu3dfvXq1ruuyLIMA06ZQY53LCbAx3HKnVE1NzdVXXw1p8Xq9LpeL9pHmmkintT1WJ8AwCG/YsOG2227r3LmzIAgulwv7/x1tH5oELOfJktZ+55VbDgFOgA10GSfABkDjRfIBgbwjwIcPH9Z1PRQK+f1+XddfeOEFrJpbvbOxuu92u3/zm980NjbmjpJt3Za89tpr3bp1E0XRipYxrKEilhuZg26//fZwOCzLMqgvaLDhRXROgK0r29Tyf/3rX/ZYAUxlArc6AaberKurmz59et++faODOOJoN0xlqWDFy3IEsogAJ8AGwOcE2ABovEg+IJB3BLixsRGOoMFgsLW1deLEiTboZjrVc+DAgZ988gns+Km71ZFelW8JOFkdPHjw0ksvRSgs4pNWkRbwdth+ceaNKIqDBg1as2b2GzX4AAAgAElEQVQN3OMRAIyNhZ5sL3MCnCxiuZYfwYRXrFgxbNgwxEtzt32sIuRmtdMGBJiOR9qzZ89f/vKX0aNHAxyHw0HrX06nMz8t/GbJCa8n6whwAmygCzgBNgAaL5IPCOQdASb/T13X33///e7du9tgWxS5vN5www3BYFCWZfD8XFO4LdSe5uZmXdex1QfwWi4qA3vWKzHhWbNmYa8jeUFzCzC2YlpIOM1q6qFDhxBX6a9//evAgQMFQchPC6HVCTCiAMptH6x+Ll++/Oqrr8aUBXdo2gycD2oNf0a7IsAJsIGe5QTYAGi8SD4gkF8EGIpCKBRCBOC77rpLEITCwkIb9LQkSd26dfv73/+OTZ6w7ZilKOdhPQ0NDbqub9q06dRTT3U4HPQKsYSoEFd3tn1Yf8hzzjlnx44dqqrCCxpb4o31L7cAG8Mtp0q1traiPQsWLOjatWt+xh2xOgEOhUI47J0OCg4EAtu3b588efLgwYMRyKC4uBirYAh7Zol5jDeSIxCBACfAEYAk8pW0F8wAoijyIFiJ4Mbz2B6B/CLAoVCIzgL5+OOPjzvuOEEQbHBeoiiKLpdrwoQJX3/9NQgwSH5OqdrWagwOjFFV9dFHHy0uLqZXiFVmBDL5ut1uh8NBlr3Kyso///nPgUAAhl/D5l9d1zkBtpZIR7c2GAwGAgFw4H379t15550IoWQVITernVYnwE1NTdjw4vf76aQrmIKff/75kSNHkvmXDgY3CzpeD0cgkwhwAmwAbdJeOAE2gB4vYmME8osAQ91vamrSdb2qqkqSJBwSY/UOhrPrvHnzlLYPNFqy7UQrvvxKIghATj766KOysjJ2K50lpMXn85EdmEK/4spNN92EMGkIHmuYA3MCnIgU5XIeuMHrug5/h6+//vqqq66CkmQJITerkVYnwFj0bG1txdkwoVCoqamJxvXbb7/9ox/9yOfz0U4Zs3Dj9XAEMowAJ8AGAOcE2ABovEg+IJBfBFjTtAMHDui6vnPnzmOOOcbpdJaWllqrm8mBDTY9h8MhtX2OOeaY5ubmcDgMvSccDvMgWIa5BzD0t32+OVDqvvvug6cAu6tWEARJkqwVVAanobjd7sWLF+u63tzcjE0BBoDCUcnkMUuvWAuNpoqKii1btsBQRmzBABSWLgLKpOs6ouJv27bt4osvRieS1wAosQ08ZeIIZ3V1NWRA0zRZlu2xLVzTNOx0OHz48O9///ujjz4aL4vKykqyCQMTrAVjr4fL5fJ4PFgsowEeBzr+E0cgYwgsXLgQ4xTe/plRcjRNw02xY0iW5aqqqow9sik3ouGMDRGnnnpqbr62Zs2aBV1CkiRMPlZULUzpMl5JBhBgCfB7770HbTDXhoZgYoMwhb344ovsCTcZANqsW5DJGj0HAvxN5Q888ACCG8H5WVVV2g9mInp5VRWRwxdeeOGII47Am8PtdiPAMjrC6XSyhlazejlN9cAE5HQ677nnHr/fryiK4aOAOQG2wVjw+/2yLEO3a2lpARleu3btyJEjsb6D9UFRFO0RKCHOsKquroYyjTMCcvNFaEDkAoEAnXm2evXqSZMmlZSUAIfCwsJu3brRKYBY72DVTYogEAc3/hNHIJMIcAJsDG1OgI3hxkvZG4H8IsDw+dy9e/f48eOdTif7srdEN9MWDiRIQenWrdvmzZuhHsEL2jYKnAGdz5Qi5B2qadrOnTvHjx8PCQHyrrYPrtCShCVECO7Qxx577L///W9d1w37yXMCbIqY5UIlWCmTZRnTo67rb7755tChQ+H1AF4kSRIk3ypCnlQ7RVF86623IghwLnRNim0IhUIRy6B1dXUvvvjiKaeccsQRR+D153a7u3TpUlZWhgU+j8eDqAGwwGAdJCkweWaOQPoQ4ATYGLacABvDjZeyNwL5RYBxts2SJUt69OhBZ35YyIIHHZQccQsLC9F/N910k67rpL+SW2OK+lPeFtc0raWlBY8Pl4FFixbB25mkhRZQLLSMAvkBpZk5cya2DhqTFk6AbTA6YPttbW0lmqSqKibJZ5555qijjhIEoaSkBM7PZCq03xsRBJg6FLDQV+smaGhjVzC+appWU1Nzzz339OrVC/zW4/FEeESzceOttcvDfsLJn4hFgBNgFo3E05wAJ44Vz5k/COQXAca+x//93//FZkjsp6Wtbrnf6+gtR9uHDnAqLS1dvXq1ruswWqqqirM9baPGZUUBpd0+WFZYs2bNKaecAn0R7xIrRlBDIBy4s44YMeLLL7+E27wBhG1JgLHzM/qvAXwsUURRFDo8lhoMyQ+FQnPnzu3evbsgCB6Px1qu/snO5HYlwN/EL8C7gDoXhyDoun7w4MFly5Zde+21lZWVgMvtdvt8PvJnoc01tOSXLKo8P0fAdAQ4ATYGKSfAxnDjpeyNQN4R4JUrV55++unEZNgTYqzS02RyhLIybtw4cnVTVbW1tRXb2DITH4JUK/slEPoC4cT8fv/06dOBPFZP4EtMjoKWEJ6CggJJkrxer9Pp9Pl8zzzzjOFVEk6A7SHwZPsNh8N+vx+TBuKfHzp0aOrUqTAAFhcXW0LCjTXSxi7QiqJgQYe2xiDgGfr9yy+/fOyxx8aOHdupUydaXfX5fFgatrffuzFR4aWyiwAnwMbw5wTYGG68lL0RyC8CrCjKr371K1jA4A5KZMZa3UwHWpSXl7/44ou6rsNuEw6HyQ5sDwU9K08BlRFIwkqm63pNTU2fPn2wUw7CAwXRQhYShO+SJAleDz/+8Y937NhhbKGEE+CsSKa5N1UUBUGSsA5CwU4RBlnX9S+++GLSpElFRUUWnScTn9VtGQSLVjdg55dlORwOwxEabwpMdFu2bJk2bdqQIUMo0Dd5RVEicSR5To5A+hDgBNgYtpwAG8ONl7I3AvlFgIPB4Pnnnw+nPtDg6L1PudzfOMRCEAScVCEIwuDBgxHOF/s5QYPJz81cdTl/aoPfIDZDBoPB1tZWMIRLL720vLxcFEXY3i1EfUmqYcqDR+sRRxyxevVqToCJ+EU7P+OKXSWfCBLFQsMEAtdZOP9//vnnmDOtKO0k9h0mbHkMEjY4UCBofMVUBsswBFtV1aampl27dt14441HHnkkomOgu8kjukMAeQaOQAYQ4ATYGMicABvDjZeyNwL2JMDs2R5Q6WDNe+mll1iPPlrwtlAfezweQRBKS0vhfEvvg4zp6CxJSPam0XQi+kqydWYy/6efftq1a1eHw1FYWIid2GVlZRhClhAhGK4hQohvdOmllwJAHAML5Rh/iQtFIwzOXFtbywaJtRxBqqiooNjp1pLD6B6JvpLKOMUKmqZpkIF169aNHTsW625YMSQRsk2EpGXLloH2YyXR8N746I6IcyWVPopTbSo/ffDBB5MmTQINRiisgoICxIXGFOdyuXw+H1mG6SQCbAnBDGOJydAGjcSZfHgQURRxjDOCg9Bs7HK5aBVDkqRrrrkGfYcTziibVdBYsGABlu3gyIBXVSoCn2BZvPJwa1VVFy5caBXE4LOG1mJ4iqI4fPjwBB88w9n4OcAWkisbNJUlwCtXrszN03OSPgeYjFo0YWma5vf7f/zjH2M6wCvB6/XitWGVjoTe6fF4sEdryJAhOLs5k5NUKkpbNM2IvpLJZ0n2Xl999dV5550HvRDvEpfLZSGdD+oOzL8YAkOGDNm6dSvhEAgEMHbinw/MCTAhlrOJFMcpniscDkPFfPXVV0844QTW/x/n5bArIFaZRdttJyfAuq4fPnwYax8ff/zx1KlThw0bRgscbre7qKiooKAAGoPD4cA7CGCyNJi4cbs484vmIgBfMHSK0+ksKCiAkoBVWuqj3r17jxkz5o033li/fv3pp5/udDrJA85CC7iCIHACbEB+qIs5ATaAHi9iYwQwNMS2j30IMGlvSMC69c9//hOTPi2IwpphoUVQ+K8WFxfjEaZMmVJfX59hFTxFxZrWJtBsaxFgXdfnzZuHuKnkPkAJS0wTJPxQbb/Ra3/3u9/ROjq5TmDIxBItToBjIZM711Mfp6FQSNM0+M7Isvzcc8/h9DgIPDYCWGj1J/7w5ASYRBe2NUVR/vOf/9x3332nnXaax+NBUGiXywWKhX4vLS2FEdLpdFprM1F8YbDKry6XC7uiIoK0ezweaDWiKBYWFg4dOnTWrFnr16+Hd8OYMWPIKuh2uy2k/3ACbEwyOQE2hhsvZXsE7EmAodBjD5uiKKFQqKWl5c4772R3b3o8Hnp4q3QztA0s8R555JE4/YgUl8wkUles2XZajgCvW7cOCoTP58PJqNYiwOS8Sha8YcOG7d+/X1VV1rVM0zR8ZTuL0pwAExQ5m0hlnKqqqmlaY2Mjng5BoXVdnzt3bteuXVkfS9scDswJMKJDh0Ih2h6sKEpjY+PXX3/9yCOPXH755V26dIHBv6ioqLCwEEtpLH2SJMnlcpG2bZW3qp3a6fF4SkpK8EROp7NPnz6/+MUvPv74Y3IYbmlpueiii+gUDMt1FrcAGxBX6mVuATaAHi9iYwSIA4qiaB8LsCzLFLwXU39NTU2/fv3cbjcWqh0OB17VllsBhdu2IAhXX3314cOHad9axhTxVBTraLobfSVjD2LgRlhJmTFjBhlArHUMEpy36XUIhwiPx4NA4gCEmDAnwAYkJHeKpDJOyQaIx1EUBVGyNE2bPHkyfFxJeEicLP2a5AQY5kEcIx8KhYLBIMQA26J27tz5yiuvTJo0aeDAgehoLKV5vd7S0lK4RuNsApYSW1okLNF4vIAkSfJ4PEVFRVBv3G539+7dJ0yYsHTpUvjyhMNh7GoJh8O33HKL2+0mr3Vr9RcnwAbEkqZoToANoMeL2BgBexJgte1DyqiiKBS0gKYAdKrlzreE52plZeULL7yAI2rjEBVCwMREKop1NN2NvmJiU02vCjRg1apVxx13nCAIBQUF5FFsoTkCRwEjaA3G/4UXXojFlJaWFk3TQqEQOUW3iyG3ALcLS05dTHGcgvxQfGxZluFQs2vXrvHjx2MlBcJvxSEQPVo5AYb0qqoabvuACTc3N+/bt48EOxAIrF27ds6cOaNGjSouLia3ZzpfLRpYfiV9CDidTji1UUdIktSjR4/rr7/+6aef3rNnD2K5hUKhQCDQ0tKC4xKnTJmCxQs4lFlrzzYnwAbEiRNgA6DxIvmAgD0JMMXyQhTT2tras846C92JPTO06kkeoZbobCz0CoJw0UUX1dXVsT6rpKOkO5GiYm3pPcBgBfX19b/61a+w9E5RRiwhPxSyiGLbwGhTWloKAoADn+iw0FiyxAlwLGRy53oq41TXdZwBput6IBCg1RCskvzzn/8cP368z+fDYiL+WkX+Y7WTE2C8NMF7qccpGrYsy8FgEAM/FArV1tauXLny/PPPP/bYY+ELgHCSDofDHgsiseQkB687HA632+3xeAYMGPCLX/ziH//4R0NDA15VoVCosbGRjvHD7DRnzpyysjIcBpmDjxO/SZwAx8en3V85AW4XFn6RI2BnAqwoCixay5cvZ/etseYLhP+yihyQejF79myK00uOaplRvlNRrFGWbWf0FfbXnE2/8cYbFRUVgiAQk7SKCKHBWAZCYBu0/J577gHnkWUZy0asEhzREZwARwCSg19TGaewFNEMAzswAqRhY/CaNWuOOeYYrKfYg/BwAgwCDLHBJnCwXxiEMeTxF9KO+WHjxo2PPPLIWWedRb5UpG1bZUq0bjsRnEwQhC5dutx0003//Oc/WWUA0U9kWUZAB3/bR9O0hQsXYjs3Vm+tNX45ATYgrjQkyf+RH4NkAEZexH4I2JYAw+FHVdWDBw+ef/75uTnLg35H/40lZ5i/Bg4cuGnTJhhnclDztneTFEUJh8P19fU4UgtxOGP1V7LXoyUhYws0PXv2/Pjjj3Vdp4ETx7Ue3rDr16+H8QdECA517T5CsjhkJn9lZeXGjRtx+ouu68T37C3AKT4dgkLrur506dLhw4cLglBUVAQvStgA4ZZJvgZJdWW7wkPaW1JVJZXZ6XQuX76ckMECEP7SRZ6Ig0Bzc/PatWvnzp171llnYR4gHyv2HFpIBXxnyGJM/QtvFJyvThfZIkn1aS5nliQJj0koAQ16atrZiwy4jrOLyGcNeY477rjf/OY369atQ+/AgB+np0Kh0LvvvlteXi4IAsUTyWWs2LZJkjRv3jxMQViLoWML4jyyKT9hSQjvxHA4PH/+fLZhEWmz5jGz6mGlCE0988wzTYHF9EqmT59eVFSEDeqSJOWm3h7R3fyrpRGgYBbvvPMOu8JrumwbrjDpc4ApNJSmacuXL+/Tp48gCLRPxrq9hUe45557ENkCoUpys88Md3YuFwyFQhRTZP78+dgFR1qLdeUKytCcOXOCwWA4HGbj38TpjpqaGgp+gx3FFkJAkqTOnTtv2bJF13Vs7eaEJ05f00+IL6jr+sGDB5988klwYCzMkTbv9XqttbFQFMXq6mqYQBVFaWpqos3P9OA8EY1AS0uL3+9nV8oOHjy4bdu2O+6449JLL+3Xrx9p3g6Hw+PxRJzWg8N4RFHEaerREymCVjocDvwElmiD9zge3OVy4QFp4Ph8PlwhKMABevToUVZWRg9eVlY2dOjQ8ePHV1dXb9myBSt3CF4YEf0kuss0TfvPf/6Dk/x8Pp+n7ROLaMW6Hmuej5XfxOuPPfYYFB4IXsaUnwgCvHDhQlqJiIVG7lzHEPN6vcQnTzvtNNZZIFpOsnVl6tSpkHMMCpxVEUt+YiEcK3+2rpvVzmTrSTZ/vuGD9xF0FafTuWLFimyJffz7Jk2AQ6GQ3PZpbGy89957adhnq4Np43FEItn2wN6yatUq2CGJ58eHj/+aDgTWrVv3gx/8AFNMsv0YIQb0Ndl6ks1PN4pIYICMGTOmtrYWngXx346tra0Ih4PgN6QKJNuebOXHy7W0tHT9+vWKosQ/9DgdwmPROqFuEgduaWmZM+f/t3etIVZVX3zGxzgjWippmpOPYCqRSiQaSAj9EAV96GGB0JcSJKIg6lsfAsMiQpAJH4VoGYXWJykhgzSzFDOzB+ooijo6jfmYGV8zc2fuzNz5h8v/4ufZd527971n33PunHU/6Drr/PZvrf3b+9w56zz2XXnHHXfQbboJEyZw3UszKqrxDUxX3oyKv6qqih6BxvNprOsqdLzKkzY9YRv4xujo6Ni9e/eHH374/PPPNzQ04Ivi1dXVdXV148ePr6urw7cwaBbRaz68RnHgC1Y6passf6DXtJAVHzujR4+m0pSuC3DXamtrGxoaFi9evGrVql9//bWjo4Ou3NHy3d3d3YEhMEefrvG1tbXRLQEcFI6ScGPNmjXUTSr7c7lcGb69eVEMDt3U1MTPJvDXERuu30vcMGC48oTjaWTpCZ1FixaZ0yMJnuXLl9MS5fR8Pj0VkvA5qelVtAJ8+Z5+Bokeb0zCscA5OBfA9D2Vy+X27du3YMGCqqoqfkOpooeqqqpq8eLFmUyGf6aV1uxlpdTwqgA9Hkw/i9rX1/f+++9PmDCBy7/KnVp07nX77bdv2LCBBOQrLCF6njhxgm5i4H3gihCBrjFPmjTp8OHDdBVJq52QgeZd/Lfh2rVrdDJ95MiRd999l34Ku66ubsKECXQOF+2rAb4nVXV19bZt27LZ7NWrV3t7e2kyYDHMCqiBCuBRwy8PDwwM8MJpuVyuu7u7ubl569atn3zyyZw5c6ZOnVpXV8f3POnJLDpxpweD8S4xe/iRSN8zoTz82EeMSH9N+PYv/2rd7NmzH3/88eXLl+/YsYMX5abFGrq7u69fv86vb9BaZThGaLe3t/f19V2+fHnu3Ln0zE7gAXVMJsSWCq2QJnl3FcHT1NSUyWSy2Sz/ODlOQuxs5DZ9P5DCVADn7VQCnXQcVVVV1dTUUGH5yCOP0IqGkatUCuF/z9288847NP9ra2v5T4kkaRHzJy9VVDx5yfk5FzOKhJf8JgN5osL75nHl993f0aNH0zIKI0aMqKmpoQKYv0tLmcnRtnUugOlhtr6+vhUrVpDoU6ZM4SMqcJktxk1pgKWURo4cuWXLFl6uk1YtKsMV0GiHs3LZ6Ip7T08Pnf3/+OOP9fX1IVeCpXGU/K7zQeIpwk9l/LPPPtvS0kITLPzEor+//++//+ZzNXrEMcb8nbpMadfX19M7wLTosR5HBQ9M+t21oaGh3t5euhg0NDR08eLFV199lZbVoS9bumxPNbDruOSdQk4kRYCrqqq+/fZb6n5/fz/9CSx4P62gXMMekM1m6dFQevV0YGCA1Qv0vaurq7Oz89q1awcOHFi7du3SpUsbGxunTJlCd3t4MSc+Q6JB5E06iaT3ZivxviV2hO2ampqxNz701jT76fCpra29//77lyxZ8vbbb+/bt+/kyZN8v5euTtKrsLxcGa1iYHP2lslkHnvssVIei+NUA0begzfEKR2qUpMRI0Y0NTXR1MpkMvRzfWW4UEV/7vlmw+DgYFNTEw1T3i6E5J8XLzmj4uEarKamhg6fp556KnCEJmGzt7f3vffeo8uplCetcC7pEJh+vCnhJb+r/hKP5OfEAoaEl/yB5rwZFV7iiUsf17gsSMCQ+sWnr7Sc7XfffVeGL5MiDrRiCuBMJnP27NkXX3yRrnvxaj0BaSpr84knnmhra+vt7cXSN2S13iK01iY2CtBauGfOnHn55ZfpanplTSQzW7owPGfOnO3bt/f19YV/EfT393d2du7fv3/WrFmV+GxFdXX1mDFjGhoadu7ceeXKlYGBgfD+2kyJlGB6b3yosyzajh07nnvuufHjx48ZM4Z/HsmcY4n1zJgxY/Pmzf+9LxN+0SclQ2zfTa5+A3+DeGJQPWx+n/T39587d2737t0bNmz44IMP5s6dO2vWrIkTJ/ICWqNGjcKykIoNPF9J7FyySYzKfuwO3YIYOXLkbbfdNn/+/FdeeWXTpk2HDh3iRy14UHDhj56eHnrbK5vN9vX1UZ3GSNOgB4YvXbq0dOnShx56aMaMGdOmTZs8eXJ9TJ/pwkdKZ968eevWrWtvb8/lcnTxxeyjDw9fC6O3Py5cuLBy5cqpU6fajHUSMPhCQXV19dixY5988kl6+smHXEVznj17dt26dY2Njffee+/s2bPvuuuuKVOmTJo0SZoPUfmFaTg9Kv5K54lLH99xp02bVl9fP3369Pvuu+/hhx/etm3b+fPn+cp+0dM48obOBfDAwABdkz5w4MBvv/3W1tbW2tr677//nonp0yJ8zgofKc19+/bR7Rd6CpqEDpx8kFP/9aFAb28v/fXltXBbWlp27dp1xvEjTIcWYTqcdaQX4VLcCzc+hw4d+v3333lFqPCbCTTrfvrpp6NHjx47duzcuXPnz5/3nb/YMccdra2tp0+f/uuvv4b+/+nr6+Nn6v7v0//zKJDNZnt6eqjCGRwc7OnpoWPhxIkTBw8ePHbsWGtr6z///HPy5MmWlpYzjh9p/kjz1pFehO/fv5+XlqW3SwYHB/l57yH9CApwoUtrL9E6THR9tvvGhy8oZLPZ7u5uWmOP/2BRGUM6X7x48ZdfflmzZs2yZcseffTRO++8c9SoUXhnmF+U5Xdlk1BalJjDyJEjx40bd/fdd8+fP3/RokX/nf1v3769ra2N9Oa6K5vNZjIZKnfpokNgkTY64aGfrQp5koVfbDl37tylS5e6urroNIkWTLH/l4c7YNgzFIdsbW1lTXI3PtwjYYZG4+YHHDj65cuX9+7dK30vSd9jZ4RPVDwC/ZnTp0//dzfoxI3P8ePHm5ubjxw5Eo00UbMMDg6eOnXqwoULeOlHmi2B6cebEj4q/4Dwkfg5sYAh4SV/oDlvRoWXeHz7uSMBwzVuoDlvSjz8hdnZ2Xn8+PGo53JkfM4FMD+yQmfzg4OD58+fpwc76XuzQv+lBYroQUQ6DU3gixyRDXsiiS5fvkxndVeuXKFTDT4jqdBJRWex/FZ5NpsNf5GMjiOaeHRYUalcQd2n85j29vb+/v6uri4aUD5ZT+S8S0RSJBE9CkjDzcUM5cfn5XTKWEFTglYSomOh4J20RAxGApKg35jlP6ycEc8KOgWh8w862yAM+cmmScJtc7nc9evXW1tbjx49+tVXX61atWrZsmULFiyor68fO3YsvjxcYvEZY/PJkyc/8MADL7zwwvLly7/++us///yzs7MT1aD3qHke8rJzhKFHzUlPUpKvRLCMknH16tXBwUG8y8EXc6Umpl86rk2kD08mk+nu7uY55iOEycnhSHxJgWT6+ZoI9+LKlSvhF7hNBcrg6ejo4Cj8p4QvOvAuNiS1GZAQI6o8XXlc8XHJFVWerjw4tegrkX7XIC4dpLjOBbBEpP5kKuA6cZPZC81KFRjeCuhxOrzH17V30rU/V56C+Gw229HRcfjw4W3btq1fv/6NN95YsmRJY2NjfX39+PHj+WFpWtKJi2R6cJp/mBorXtqFHnpPkt46M98ZI/+oUaNoAWd+epmQAR5aX4peKpk4ceKDDz749NNPv/nmm6tXr/7mm2/27NnT3t5+/fp1unzAl4oKiqAAVaA4BfR7uzjdtJUqkAQFtABOwih4zEG/oD2Kq9SqQEQK6HEakZDDhMacD9F2jB/Q5TtX9MgGR6EfbT558uTPP/+8devWt9566/XXX3/ppZeeeeaZhQsXzps3r6GhYebMmdOnT586deqkSZPGjRuHj1XX1tbSD41KyzJzVUw/zkSF7ogRI+rq6iZOnDht2rSZM2fec889jY2NCxcuXLx48WuvvbZixYr169dv3bp1586dXV1dmUyG7t9mb3zongOtY0y9oDtd9rdwue9qqAKWCpjHKXksmytMFVAFYlRAC+AYxS9HaP2CLofKGkMVKE0BPU5L02+4tQ7MBx/dy+Vy/NAp89MreLw5NDSUzWbxsV56u7i7u/vq1audnZ3Nzc2HDh36448/9u/fv2fPnlh53ZMAAA2+SURBVF27dv3www/ff//9559//tlnn23cuHH9+vUff/zx2rVrV69e/dFHH23YsGHjxo2ffvrppk2bvvjiiy+//HLz5s1btmzZsWPHrl279u7de/Dgwebm5lOnTrW1tfHbVZwPl+u0QhX78xqsYd696lQFSleA51jAKJ1ZGVQBVcC3AloA+1Y4Zv7A9zJvxpyWhlcFVAFQgA/MgAEQNVOkAE4DH93mR6ypBqa1CXhdj2w2G1hVi5Zk4zeTQ1LiNwwRQ93hFY/M12t7enoymQwFxaXjqSDnu7iUNr2jyxLRm9L8+i6/OM2t2MCU1FYFSleAJ2HAKJ1ZGVQBVcC3AloA+1ZY+VUBVUAVUAVUAQcF8HzaoZk1lGtCKkrztuNbxLxkFMHIT78PRKUs35hlAK8OSqsoc73NAKqTuSQOJEB7cSUVKmupMuelAbke5uZMyx3MW5AzXg1VQBVQBVSBdCqgBXA6x117rQqoAqqAKpBQBbgA9p0flaBUx/JvHPb399OLtVzZZm58+A4tVp6cKpWa1NYmbW7IZTBXy+zpu/GhX2cIcJq1bgBAm/QLUnl3qVMVUAVUAVUgtQpoAZzaodeOqwKqgCqgCiRRASoO/WWWzWa5uOUopofuu5p+Lj65LRpY2VIpyzeE+Y6xafA9W6QK2PTjtFSc0wpYgdwCJOF5Bsh1UxVQBVQBVSA9CmgBnJ6x1p6qAqqAKqAKqAI3FaC7o4E3e7l85WKSfskcX82lt3DpBV0qbnEvN7QXmu79YkNOA18D5usCgbqXy2y8h0w1NnLa56NIVUAVUAVUgeGtwM0CmP/Y8BVT9KDtKge2ZTvw10viZHyEf8OQE20pB8mPbdGW8L79mAPavuNK/JgD2hLetx9zQNsmriveldOeH5F0emcTyxWDUUppWwqPa1wJjzmgLeF9+zEHtH3HTRs/aot22nSQ+ouaoC3hffsxB7R9x/XNzy8/Y6cSeD7jWweJPyALb0p49ZMCLFTAUH2K00eP0/CZE5hmBTfD2ZKzN08BTDWw1MPiUjfZbHiwlQ3eBoOcaNu0RQy2RRsx5bQxB7TLmQPGwhzQRkw5bcwBbZscXPGunPb8iKTj1CaWKwajlNK2FB7XuBIec0Bbwvv2Yw5o+46bNn7UFu206SD1FzVBW8L79mMOaPuO65sf+0J2tBFNfh9Ros0Z2So9f+xLOW3VLVxtV31MfDi/616TnzyuPHHhpfwlf1x5usbNXwBLvSrlymWA0yZRbGKDt8EgJ9o2bRGDbdFGTDltzAHtcuaAsTAHtBFTThtzQNsmB1e8K6c9PyLJtonlisEopbQthcc1roTHHNCW8L79mAPavuOmjR+1RTttOkj9RU3QlvC+/ZgD2r7j+ubHvpRy+iTlGeDnTQmfND8nHDCSlmfS8gnIxZtJyzOufFiQgCHlYwmTmhf0B/h5s2DDhAA4YUsjIWkXTKN8BTD+Op/lXwLUumBPLAHIibZlc4ZhW7QZUGYDc0C7zGlwOMwBbQaU2cAc0LZJwxXvymnPj0iybWK5YjBKKW1L4XGNK+ExB7QlvG8/5oC277hp40dt0U6bDlJ/URO0JbxvP+aAtu+4vvl99wX50fbdr6j4MWe0o+IfrjyoFdrDtb+u/UJN0JZ4bDBSWxs/8qNt0zYJGMzZxk5CzjY5VFFnTKjUSRNp70FOm1aueFfOUvixLdo2OaQBg5qgXYl995E/cqIt6UMYaW+0fpt8oo3ojw37gra/iMqsCqgCrgrgsYm2K0/S8MOpL0nTNs354LxCO82aYN9RE7QRg7YNBvFqkwKoG9qVok9ZC2C8CWwjkA9BkRNtm3wQg23RRkyabdQE7UrUxEf+yIm2pA9hpL3R+m3yiTaiPzbsC9r+IiqzKqAKuCqAxybarjxJw3NfkpaY5lPRCvC8ChgV3akIkw/IwptSiIIAqWHK/axbwKgUWcpdAHMNbCMQamqDt8EgJ9o2bRGDbdFGTJpt1ATtStTER/7IibakD2GkvdH6bfKJNqI/NuwL2v4iKrMqoAq4KoDHJtquPEnDU1+SlpXmU+kK4DGCdqX3K6r8URO0JX7CSHvVLymA2qIt4ZPmj6EAtpfAh6DIibZ9VoTEtmi78gxXPGqCdiX210f+yIm2pA9hpL3R+m3yiTaiPzbsC9r+IiqzKqAKuCqAxybarjyKVwXSoAAeI2inoe82fURN0LZpqxh7BVBbtO0Z4kXeXAQr3iQ0uiqgCqgCqoAqoAqoAqqAKqAKqAKqgCrgWwEtgH0rrPyqgCqgCqgCqoAqoAqoAqqAKqAKqAKJUEAL4EQMgyahCqgCqoAqoAqoAqqAKqAKqAKqgCrgWwEtgH0rrPyqgCqgCqgCqoAqoAqoAqqAKqAKqAKJUEAL4EQMgyahCqgCqoAqoAqoAqqAKqAKqAKqgCrgWwEtgH0rrPyqgCqgCqgCqoAqoAqoAqqAKqAKqAKJUEAL4EQMgyahCqgCqoAqoAqoAqqAKqAKqAKqgCrgWwEtgH0rrPyqgCqgCqgCqoAqoAqoAqqAKqAKqAKJUCDRBXBcP6wcV9xEzAhNwlBA54MhyS2OuPSJK+4tndeNxCiA8wHtxCSoiaROAZ2H5pCrJqYmSfCkeVzS3Hdp7qVBEy2A84x+GgY+T7fVJSig80EQ5qY7Ln3iihuuhu6NSwGcD2jHlY/GVQV0HppzQDUxNUmCJ83jkua+S3MvDZpoAZxn9NMw8Hm6rS5BAZ0PgjA33XHpE1fccDV0b1wK4HxAO658NK4qoPPQnAOqialJEjxpHpc0912ae2nQRAvgPKOfhoHP0211CQrofBCEuemOS5+44oaroXvjUgDnA9px5aNxVQGdh+YcUE1MTZLgSfO4pLnv0txLgyZaAOcZ/TQMfJ5uq0tQQOeDIMxNd1z6xBU3XA3dG5cCOB/QjisfjasK6Dw054BqYmqSBE+axyXNfZfmXho00QI4z+inYeDzdFtdggI6HwRhbrrj0ieuuOFq6N64FMD5gHZc+WhcVUDnoTkHVBNTkyR40jwuae67NPfSoIkWwHlGPw0Dn6fb6hIU0PkgCHPTHZc+ccUNV0P3xqUAzge048pH46oCOg/NOaCamJokwZPmcUlz36W5lwZNtADOM/ppGPg83VaXoIDOB0GYm+649IkrbrgaujcuBXA+oB1XPhpXFdB5aM4B1cTUJAmeNI9Lmvsuzb00aKIFsDT6Bfy5XK4AwsPuCIPi5EbbQ9ZKqQqkS4EIj9PKEk6/SaIar9ROoagEtOFJrch6nFpODxbKBq8YVSBaBXj6RftNFS1btF22YQvkX4pKWgDbCJ4Hw6Ln2efBFXk4JgwYHnJXSlUgLQrw0ZSWDt/aT+5+4E/UrSjdKqwAK1kYqgh3BVIuL3dfj9OQuaMqhYiTtF00WEnLqsR8Ip+BTFhiYnE1z5s/O4v4NhMLYCS1sX0ognElfsSgLeGj8mMssonZ9ONe1+gmm8RgIsPjuuKluK5+17iueCmfqHgkfskfV1wpH8nvmmdUeFceKX/JL/FLfokn3G+ySXgTSR4JH5e/uDyxVXGZIwPaEhti0HbFY1u0JR7ffsyBbIpo+nGvmVVUeFceM5Nwj29+ST0pK9d8XPHxxsVspUwkxbCtaUtsJpI8UeElnlL8mLMrD7ZFW+JBDNqueGyLtsTj6kdOtF15IsRjGmSHkJvggk1C2Ox3FRcXW4XHQiTa1Ao9ZEtsJrI4vCuPlI9N/hgrnMfcqwWwqYmVB0W3sa1IASRxAuQW0zf+lmAlbMSVp2vcErp4S9O44t6ShMWGa55R4V15LLpyC0Til/y3NLbYcOVxxVuk4AVSXJ7Yqri0kAFtiQ0xaLvisS3aEo9vP+ZgY0v5SG1d8a48Er/kTxq/az6u+Kh0KC4utpIyIT8ibWyJTWobFV7iKcWPObvyYFu0JR7EoO2Kx7ZoSzyufuRE25UnKjznMHjjw5sSPwMChoSPyh8Ix5vh/AwreG8TkTa2FFdq64p35XHlRzzGQr+NrQWwjUp5MCi6jZ2HItQlcUqNXPESj2+/a56ueCn/qHgkfskfV1wpH8nvmmdUeFceKX/JL/FLfolH8rvyuOKluL79rnkSHrMyPbhXsouLa7Zy5TcZistfiuvql/KR/BJ/VHhXHikfyZ80ftd8XPFR6eAal/AY3fSYe6Uoph/bom0ii4uLnL5tzNk1FrZFW+JBDNqueGyLtsTj6kdOtF15osJzDsOsAKZ+oUqmx9zLahQ0sC3aUkPEoC3hJT+2tbFteBBjw4kYLYBRDWcbpQ+3XalNtnAGE0+e8Fbl3+uapyte6lFUPBK/5I8rrpSP5HfNMyq8K4+Uv+SX+CW/xCP5TR4JSX4TT57wVuXf65qn2QvTY9OL4uKaraRYJjLcI/GUxx+eG+6V8kEM2q54bIu2xOPqR060XXkkPHKSLSHJb+LDW7nipeiuPMXhMXpx/SourtkKM0HbRIbniW2jsjEHV05si7bEgxi0XfHYFm2Jx9WPnGi78kSIxzTIDiE3wQWbhLDZ73KNa2ZlejC6xG/6sZVpm/io4obzmJmQx8zHRCLG3BvuEQvg8Gbl2VtKx8qTIUfhVNlTohE5YYn5aHNVQBUwFdDjlDQhHVAf04N71XZSQKeZk1wmWAUkTcyj0vSY6qXTw3Om4AOo6dQnUb0eZtPY7I7psdGf57ANOIEYm/wZU8Rx+j/STOvnf+BIzgAAAABJRU5ErkJggg==;" vertex="1" parent="1">
          <mxGeometry x="380" y="490" width="82.32" height="20" as="geometry" />
        </mxCell>
        <mxCell id="2HamQk87lNA_e7r32Q2T-3" value="User" style="shape=umlActor;verticalLabelPosition=bottom;verticalAlign=top;html=1;outlineConnect=0;" vertex="1" parent="1">
          <mxGeometry x="50" y="354" width="30" height="60" as="geometry" />
        </mxCell>
        <mxCell id="2HamQk87lNA_e7r32Q2T-4" value="&lt;div&gt;VRRP&lt;/div&gt;192.168.50.10" style="sketch=0;points=[[0.5,0,0],[1,0.5,0],[0.5,1,0],[0,0.5,0],[0.145,0.145,0],[0.8555,0.145,0],[0.855,0.8555,0],[0.145,0.855,0]];verticalLabelPosition=bottom;html=1;verticalAlign=top;aspect=fixed;align=center;pointerEvents=1;shape=mxgraph.cisco19.rect;prIcon=router;fillColor=#FAFAFA;strokeColor=#005073;" vertex="1" parent="1">
          <mxGeometry x="280" y="370" width="50" height="50" as="geometry" />
        </mxCell>
        <mxCell id="2HamQk87lNA_e7r32Q2T-6" value="" style="endArrow=none;html=1;rounded=0;exitX=0.8555;exitY=0.145;exitDx=0;exitDy=0;exitPerimeter=0;entryX=0;entryY=0.5;entryDx=0;entryDy=0;" edge="1" parent="1" source="2HamQk87lNA_e7r32Q2T-4" target="2HamQk87lNA_e7r32Q2T-1">
          <mxGeometry width="50" height="50" relative="1" as="geometry">
            <mxPoint x="350" y="390" as="sourcePoint" />
            <mxPoint x="400" y="340" as="targetPoint" />
          </mxGeometry>
        </mxCell>
        <mxCell id="2HamQk87lNA_e7r32Q2T-7" value="" style="endArrow=none;html=1;rounded=0;exitX=0.855;exitY=0.8555;exitDx=0;exitDy=0;exitPerimeter=0;entryX=0;entryY=0.25;entryDx=0;entryDy=0;" edge="1" parent="1" source="2HamQk87lNA_e7r32Q2T-4" target="2HamQk87lNA_e7r32Q2T-2">
          <mxGeometry width="50" height="50" relative="1" as="geometry">
            <mxPoint x="340" y="670" as="sourcePoint" />
            <mxPoint x="390" y="620" as="targetPoint" />
          </mxGeometry>
        </mxCell>
        <mxCell id="2HamQk87lNA_e7r32Q2T-8" value="vm3&lt;div&gt;192.168.50.13&lt;/div&gt;&lt;div&gt;:443 ssl&lt;/div&gt;&lt;div&gt;:80&lt;/div&gt;&lt;div&gt;:8080 console light&lt;/div&gt;" style="sketch=0;pointerEvents=1;shadow=0;dashed=0;html=1;strokeColor=none;fillColor=#505050;labelPosition=center;verticalLabelPosition=bottom;verticalAlign=top;outlineConnect=0;align=center;shape=mxgraph.office.servers.web_server_blue;" vertex="1" parent="1">
          <mxGeometry x="870" y="90" width="48" height="57" as="geometry" />
        </mxCell>
        <mxCell id="2HamQk87lNA_e7r32Q2T-9" value="vm4&lt;div&gt;192.168.50.14&lt;/div&gt;&lt;div&gt;&lt;div&gt;:443 ssl&lt;/div&gt;&lt;div&gt;:80&lt;/div&gt;&lt;div&gt;:8080 console light&lt;/div&gt;&lt;/div&gt;" style="sketch=0;pointerEvents=1;shadow=0;dashed=0;html=1;strokeColor=none;fillColor=#505050;labelPosition=center;verticalLabelPosition=bottom;verticalAlign=top;outlineConnect=0;align=center;shape=mxgraph.office.servers.web_server;" vertex="1" parent="1">
          <mxGeometry x="870" y="271.5" width="48" height="57" as="geometry" />
        </mxCell>
        <mxCell id="2HamQk87lNA_e7r32Q2T-11" value="vm6&lt;div&gt;192.168.50.16&lt;/div&gt;&lt;div&gt;&lt;div&gt;:443 ssl&lt;/div&gt;&lt;div&gt;:80&lt;/div&gt;&lt;div&gt;:8080 console light&lt;/div&gt;&lt;/div&gt;" style="sketch=0;pointerEvents=1;shadow=0;dashed=0;html=1;strokeColor=none;fillColor=#505050;labelPosition=center;verticalLabelPosition=bottom;verticalAlign=top;outlineConnect=0;align=center;shape=mxgraph.office.servers.web_server_green;" vertex="1" parent="1">
          <mxGeometry x="870" y="650" width="48" height="57" as="geometry" />
        </mxCell>
        <mxCell id="2HamQk87lNA_e7r32Q2T-20" value="" style="edgeStyle=entityRelationEdgeStyle;rounded=0;orthogonalLoop=1;jettySize=auto;html=1;exitX=1;exitY=0.5;exitDx=0;exitDy=0;dashed=1;fillColor=#d5e8d4;strokeColor=#82b366;" edge="1" parent="1">
          <mxGeometry relative="1" as="geometry">
            <mxPoint x="462.31999999999994" y="499.89" as="sourcePoint" />
            <mxPoint x="870" y="499.89" as="targetPoint" />
          </mxGeometry>
        </mxCell>
        <mxCell id="2HamQk87lNA_e7r32Q2T-10" value="vm5&lt;div&gt;192.168.50.15&lt;/div&gt;&lt;div&gt;&lt;div&gt;:443 ssl&lt;/div&gt;&lt;div&gt;:80&lt;/div&gt;&lt;div&gt;:8080 console light&lt;/div&gt;&lt;/div&gt;" style="sketch=0;pointerEvents=1;shadow=0;dashed=0;html=1;strokeColor=none;fillColor=#505050;labelPosition=center;verticalLabelPosition=bottom;verticalAlign=top;outlineConnect=0;align=center;shape=mxgraph.office.servers.web_server_orange;" vertex="1" parent="1">
          <mxGeometry x="870" y="471.5" width="48" height="57" as="geometry" />
        </mxCell>
        <mxCell id="2HamQk87lNA_e7r32Q2T-22" style="edgeStyle=isometricEdgeStyle;rounded=0;orthogonalLoop=1;jettySize=auto;html=1;exitX=0.5;exitY=0.5;exitDx=0;exitDy=0;exitPerimeter=0;entryX=0;entryY=0.5;entryDx=0;entryDy=0;entryPerimeter=0;elbow=vertical;" edge="1" parent="1" source="2HamQk87lNA_e7r32Q2T-3" target="2HamQk87lNA_e7r32Q2T-4">
          <mxGeometry relative="1" as="geometry" />
        </mxCell>
      </root>
    </mxGraphModel>
  </diagram>
</mxfile>
